<?xml version="1.0" encoding="UTF-8" standalone="no"?>
<!-- Created with Inkscape (http://www.inkscape.org/) -->

<svg
   width="512"
   height="512"
   viewBox="0 0 135.46666 135.46667"
   version="1.1"
   id="svg1"
   sodipodi:docname="relax.svg"
   inkscape:version="1.3 (0e150ed6c4, 2023-07-21)"
   xmlns:inkscape="http://www.inkscape.org/namespaces/inkscape"
   xmlns:sodipodi="http://sodipodi.sourceforge.net/DTD/sodipodi-0.dtd"
   xmlns="http://www.w3.org/2000/svg"
   xmlns:svg="http://www.w3.org/2000/svg">
  <sodipodi:namedview
     id="namedview1"
     pagecolor="#ffffff"
     bordercolor="#000000"
     borderopacity="0.25"
     inkscape:showpageshadow="2"
     inkscape:pageopacity="0.0"
     inkscape:pagecheckerboard="0"
     inkscape:deskcolor="#d1d1d1"
     inkscape:document-units="mm"
     inkscape:zoom="0.72285243"
     inkscape:cx="300.89129"
     inkscape:cy="-31.126685"
     inkscape:window-width="1920"
     inkscape:window-height="1009"
     inkscape:window-x="-8"
     inkscape:window-y="-8"
     inkscape:window-maximized="1"
     inkscape:current-layer="layer1" />
  <defs
     id="defs1" />
  <g
     inkscape:label="Layer 1"
     inkscape:groupmode="layer"
     id="layer1">
    <path
       style="fill:currentColor;stroke-width:1.56409;stroke-dasharray:none"
       id="path48"
       d="M 20.956325,30.921273 C 30.874354,25.85713 40.728811,20.564701 50.6932,15.667445 c 0,0 -2.824509,-2.562086 -2.824509,-2.562086 v 0 C 37.910548,18.39949 27.996375,23.916506 17.704829,27.955485 Z" />
    <path
       style="fill:currentColor;stroke-width:1.56409;stroke-dasharray:none"
       id="path49"
       d="m 17.066987,28.175901 c 0.02869,3.923204 0.864046,7.766264 1.994062,11.356612 0.459001,1.458357 0.998521,2.868197 1.497781,4.302299 3.172804,8.188852 7.264016,15.754236 12.277052,22.082704 4.081173,5.152076 5.562613,6.169026 10.209892,10.4765 2.961518,2.179142 5.845013,4.563351 8.884555,6.537431 2.243536,1.457096 4.584061,2.639365 6.937123,3.738183 7.873024,3.676491 16.101476,5.799631 24.33424,7.344019 2.77806,0.521139 5.571525,0.880037 8.357285,1.320056 10.298283,1.119287 5.26345,0.705653 15.102823,1.277339 0,0 -2.50632,-2.476589 -2.50632,-2.476589 v 0 C 94.420375,93.649525 99.407305,94.026976 89.196412,92.961433 86.418976,92.522535 83.633329,92.169553 80.864095,91.644737 68.839717,89.365923 56.821709,85.65619 46.009871,77.963937 41.415273,73.734724 39.894454,72.688459 35.860572,67.617103 30.916004,61.40085 26.882274,53.94998 23.822392,45.841831 23.345534,44.436891 22.828685,43.055416 22.391825,41.627016 21.332504,38.16337 20.514508,34.398854 20.623471,30.619872 Z" />
    <path
       style="fill:currentColor;stroke-width:1.56409;stroke-dasharray:none"
       id="path51"
       d="m 124.13356,65.746858 c -3.3523,6.006997 -7.42709,11.176749 -11.50603,16.2646 -3.24739,3.822018 -6.56434,7.533934 -9.87807,11.250146 0,0 2.99205,2.519766 2.99205,2.519766 v 0 c 3.27072,-3.783722 6.55259,-7.54958 9.84476,-11.299365 4.17153,-5.063329 8.31235,-10.202719 11.94696,-15.987897 z" />
    <path
       style="fill:currentColor;stroke-width:1.56409;stroke-dasharray:none"
       id="path53"
       d="m 9.5892091,21.65485 c 3.1343059,4.96375 6.4431199,9.715177 9.9199899,14.246807 1.545153,2.013895 3.131779,3.9691 4.697668,5.953651 2.211061,2.59915 4.408151,5.220084 6.633193,7.79745 3.617893,4.190765 11.944368,13.619658 15.53045,17.697076 7.694698,8.748962 15.425851,17.423979 23.217663,26.015237 10.026378,11.088299 20.220984,21.886169 30.535117,32.480729 0,0 3.29025,1.76588 3.29025,1.76588 v 0 c -0.98583,-0.99152 -6.577304,-6.61344 -7.155695,-7.20406 C 88.098774,112.07603 80.145405,103.38618 72.15801,94.759859 64.335726,86.167173 56.576064,77.489922 48.867817,68.711639 44.77162,64.046815 37.628188,55.939721 33.53767,51.132741 31.397995,48.618305 29.296688,46.045088 27.176195,43.501265 22.302236,37.231137 17.420036,30.92975 13.263973,23.752446 Z" />
    <path
       id="path54"
       style="fill:currentColor;stroke-width:1.56409;stroke-dasharray:none"
       d="m 46.445789,15.560917 c 0.782733,2.158766 1.959478,3.962514 3.136809,5.745554 0.867183,1.313328 1.747128,2.612523 2.660753,3.86729 3.510369,4.821065 3.766078,4.889167 7.782514,9.490816 1.733645,1.693291 3.414795,3.489424 5.201101,5.08004 1.986305,1.768696 4.023295,3.440808 6.107971,4.98993 6.809195,5.059918 10.237584,7.366922 17.203378,10.871589 6.464532,3.252467 9.989806,4.467494 16.620835,7.085964 7.11797,2.614573 14.30839,4.816828 21.53519,6.781836 -0.93372,-0.993239 -1.0994,-1.160455 -2.03227,-2.192715 -0.0591,-0.06535 -0.14042,-0.157448 -0.2081,-0.232789 -7.25003,-1.907429 -14.4574,-4.101061 -21.5867,-6.739597 -6.758313,-2.688387 -10.072724,-3.821096 -16.65842,-7.177952 -2.577658,-1.313884 -5.104335,-2.805725 -7.63914,-4.263404 -1.45457,-0.836476 -2.936396,-1.606953 -4.328336,-2.61887 -5.086113,-3.697473 -6.592484,-5.460432 -11.148997,-9.909459 -1.410141,-1.62296 -2.85982,-3.185072 -4.2302,-4.868842 -1.159678,-1.424863 -2.264084,-2.930251 -3.354652,-4.451138 -2.0076,-2.799718 -4.027361,-5.756144 -5.450962,-9.171671 z m 82.533481,54.537229 c -8.1e-4,0.0018 -0.001,0.0038 -0.003,0.0056 0.004,0.0011 0.008,0.0027 0.0121,0.0038 -0.003,-0.0031 -0.007,-0.0062 -0.009,-0.0094 z" />
    <path
       style="fill:currentColor;stroke-width:1.56409;stroke-dasharray:none"
       id="path63"
       d="m 41.151881,5.458172 c 0.388152,0.4845689 0.365831,0.4649806 0.862326,1.0309579 1.388615,1.5829561 0.529332,0.5491101 2.357174,2.6506749 1.600148,1.8397802 2.38659,2.8047252 3.992957,4.7311182 0.767537,0.937176 1.534349,1.875431 2.302614,2.811521 2.568839,3.129981 5.163563,6.211755 7.827935,9.194074 1.957786,2.191413 3.576649,3.917859 5.560998,6.058166 4.880187,5.222826 9.901597,10.196576 14.926781,15.160427 2.0127,1.978697 4.009541,3.986293 6.002983,6.000015 0,0 2.99583,1.602959 2.99583,1.602959 v 0 C 85.894603,52.654324 83.809744,50.606831 81.724383,48.560254 76.635004,43.558489 71.55253,38.540062 66.591952,33.306755 64.531772,31.095551 63.049642,29.529132 61.023192,27.255917 58.40708,24.321244 55.864766,21.281336 53.363748,18.170516 52.626962,17.254087 51.894848,16.33085 51.1604,15.411015 49.526239,13.378102 47.899735,11.333092 46.260429,9.307753 45.862438,8.8160419 45.444851,8.352836 45.057594,7.8457779 c -0.0791,-0.1035724 -0.148353,-0.220016 -0.22253,-0.330024 z" />
    <path
       id="path64"
       style="fill:currentColor;stroke-width:1.56409;stroke-dasharray:none"
       d="m 36.740268,58.801344 c -2.834377,7.544675 -5.956566,14.892189 -8.953162,22.322331 -3.301547,7.999711 -6.51238,16.069814 -9.8134,24.071065 0.312468,0.34471 0.642696,0.65813 0.993172,0.94335 0.583152,0.44167 1.181567,0.8416 1.787292,1.22026 3.316514,-7.99047 6.598934,-16.006838 9.952597,-23.969683 3.106051,-7.356386 6.307939,-14.637319 9.481414,-21.940296 z M 12.15596,118.87011 c -0.02335,0.0521 -0.04622,0.10464 -0.0696,0.15676 0.0051,0.0165 0.0093,0.0337 0.01531,0.0498 0.01817,-0.0688 0.03613,-0.1377 0.05429,-0.20651 z m -2.3844461,6.50775 c -0.013468,0.002 -0.026896,0.006 -0.040364,0.009 -0.014115,0.0231 -0.027569,0.0418 -0.041765,0.0685 0.0062,0.003 0.012525,0.004 0.018788,0.007 0.021994,-0.0204 0.043987,-0.0494 0.063341,-0.0845 z" />
    <path
       style="fill:currentColor;stroke-width:1.56409;stroke-dasharray:none"
       id="path65"
       d="m 66.440376,35.130122 c -0.544469,1.440807 -0.886882,2.988679 -1.262921,4.517057 0,0 3.461123,2.567531 3.461123,2.567531 v 0 c 0.362307,-1.513657 0.677191,-3.059237 1.275389,-4.445258 z" />
    <path
       style="fill:currentColor;stroke-width:1.56409;stroke-dasharray:none"
       id="path66"
       d="m 48.418847,68.235043 c 4.429753,-1.943714 9.149365,-2.213084 13.765415,-2.531607 4.520262,-0.117613 9.07955,0.12497 13.523582,1.337788 2.286657,0.624054 3.356632,1.150613 5.553258,2.069843 0.753652,0.372677 1.507307,0.745355 2.260959,1.118032 0,0 -2.939763,-3.094807 -2.939763,-3.094807 v 0 c -0.744283,-0.352478 -1.488566,-0.704957 -2.232853,-1.05743 -2.190565,-0.881056 -3.271639,-1.393573 -5.551483,-1.980671 -4.449321,-1.145783 -9.007081,-1.326396 -13.522367,-1.213599 -4.748525,0.301092 -9.587768,0.554731 -14.177396,2.376523 z" />
    <path
       style="fill:currentColor;stroke-width:1.56409;stroke-dasharray:none"
       id="path67"
       d="m 76.716995,42.464957 c 2.271185,-0.861246 4.658584,-1.020895 7.001151,-1.209686 3.06217,-0.246787 3.280884,-0.209781 6.39389,-0.292697 4.334335,0.02231 8.734337,0.0904 12.958094,1.57019 0.526,0.18428 1.03848,0.432656 1.55772,0.648981 0.42913,0.243922 0.85827,0.487844 1.2874,0.73176 0,0 -3.0333,-3.218701 -3.0333,-3.218701 v 0 c -0.42886,-0.222463 -0.85772,-0.444929 -1.28658,-0.667397 -0.51516,-0.19467 -1.02467,-0.418867 -1.54547,-0.584015 -4.209737,-1.334939 -8.566476,-1.3213 -12.864099,-1.336625 -3.821021,0.09571 -7.683859,0.136613 -11.484974,0.740703 -0.870104,0.138284 -1.443741,0.333638 -2.263611,0.580285 z" />
    <path
       style="fill:currentColor;stroke-width:1.56409;stroke-dasharray:none"
       id="path68"
       d="m 90.74448,39.515089 c 1.684057,3.825825 3.92246,7.122885 6.158381,10.365389 2.49204,3.518087 4.868529,7.16329 7.005319,11.084333 0,0 3.50696,2.041904 3.50696,2.041904 v 0 c -2.17161,-3.933509 -4.55507,-7.622057 -7.05935,-11.177525 -2.175247,-3.153477 -4.360753,-6.351151 -5.974385,-10.094902 z" />
    <path
       style="fill:currentColor;stroke-width:1.56409;stroke-dasharray:none"
       id="path69"
       d="m 69.138347,67.769168 c 0.154209,0.376599 0.295578,0.76329 0.462626,1.129793 1.012307,2.221002 2.236361,4.283361 3.422031,6.335661 6.043796,10.461336 -2.959896,-5.247151 3.632785,6.275176 4.307973,7.539898 8.591528,15.103649 12.794379,22.750642 1.934318,3.73451 1.022945,1.95786 2.737628,5.32667 0,0 3.445655,2.02133 3.445655,2.02133 v 0 c -1.798255,-3.41654 -0.848838,-1.61357 -2.848453,-5.40872 -4.242692,-7.605307 -8.524328,-15.170043 -12.788609,-22.75347 -1.645394,-2.926315 -3.339299,-5.803422 -4.95693,-8.757781 -0.650044,-1.187208 -1.296927,-2.36101 -1.861367,-3.62583 -0.152165,-0.340988 -0.27653,-0.703183 -0.4148,-1.054771 z" />
    <path
       style="fill:currentColor;stroke-width:1.56409;stroke-dasharray:none"
       id="path70"
       d="m 100.85286,94.782626 c -1.990391,3.749878 -3.979453,7.492344 -5.871125,11.335984 -0.35328,0.73405 -0.70656,1.4681 -1.059839,2.20215 0,0 3.271024,2.57423 3.271024,2.57423 v 0 c 0.345529,-0.73719 0.691058,-1.47438 1.036592,-2.21156 1.884678,-3.84837 3.883828,-7.57388 6.041148,-11.154342 z" />
    <path
       style="fill:currentColor;stroke-width:1.62032;stroke-dasharray:none"
       id="path71"
       d="m 101.67317,94.067624 c -0.30978,0.0089 -0.62017,9.63e-4 -0.92934,0.02677 -0.7408,0.0623 -6.067839,0.660971 -6.096361,0.664229 -5.575962,0.637496 -11.145555,1.333936 -16.714182,2.065378 -13.969313,1.966071 -27.957851,3.689079 -41.975283,5.009029 -8.454221,0.7822 -16.931962,1.09407 -25.385782,1.87396 0,0 3.273827,2.93621 3.273827,2.93621 v 0 c 8.299485,-1.01125 16.639086,-1.4005 24.948437,-2.26245 14.015974,-1.42723 28.006794,-3.1882 41.993889,-5.003928 8.094613,-0.96332 16.214638,-2.05145 24.350345,-2.144959 z" />
    <path
       style="fill:currentColor;stroke-width:1.56409;stroke-dasharray:none"
       id="path72"
       d="m 114.58855,83.749126 c 2.07539,2.268125 4.24808,4.364348 6.32319,6.635539 0,0 3.57913,1.941523 3.57913,1.941523 v 0 c -2.04033,-2.240401 -4.17111,-4.320123 -6.21273,-6.554612 z" />
    <path
       style="fill:currentColor;stroke-width:1.56409;stroke-dasharray:none"
       id="path74"
       d="m 22.995045,105.1485 c 4.105836,-4.57247 8.409389,-8.795809 12.766266,-12.918522 3.788006,-3.374864 7.36291,-7.204022 11.249754,-10.376575 0.555984,-0.494301 1.139619,-0.913174 1.746567,-1.277599 0,0 -3.316979,-2.952762 -3.316979,-2.952762 v 0 c -0.590669,0.413162 -1.161797,0.868103 -1.70643,1.386228 -3.751288,3.354357 -7.192933,7.314746 -10.950093,10.66222 -2.114906,1.986055 -4.247336,3.938517 -6.346421,5.954873 -2.283628,2.193623 -4.501086,4.512837 -6.808768,6.661887 z" />
    <path
       style="fill:currentColor;stroke-width:1.56409;stroke-dasharray:none"
       id="path80"
       d="m 118.28849,87.073922 c -1.74051,2.579084 -3.58968,5.020576 -5.40498,7.502941 -4.04732,5.469227 -8.09495,10.937077 -12.07173,16.499957 -1.860382,2.60579 -3.559871,5.40016 -5.214231,8.24289 0,0 3.139045,2.50788 3.139045,2.50788 v 0 c 1.509466,-2.94173 3.119766,-5.78082 4.918946,-8.41618 1.37874,-2.02027 2.45663,-3.63 3.89157,-5.60298 2.68703,-3.69456 5.52312,-7.18598 8.26412,-10.806283 0.5632,-0.719007 1.11939,-1.448119 1.68959,-2.157025 1.35848,-1.688952 2.7786,-3.285686 4.17744,-4.912312 z" />
  </g>
</svg>
