<?xml version="1.0" encoding="UTF-8" standalone="no"?>
<!-- Created with Inkscape (http://www.inkscape.org/) -->

<svg
   width="512"
   height="512"
   viewBox="0 0 135.46666 135.46667"
   version="1.1"
   id="svg1"
   inkscape:version="1.3 (0e150ed6c4, 2023-07-21)"
   sodipodi:docname="scheduleTreatment.svg"
   xmlns:inkscape="http://www.inkscape.org/namespaces/inkscape"
   xmlns:sodipodi="http://sodipodi.sourceforge.net/DTD/sodipodi-0.dtd"
   xmlns="http://www.w3.org/2000/svg"
   xmlns:svg="http://www.w3.org/2000/svg">
  <sodipodi:namedview
     id="namedview1"
     pagecolor="#ffffff"
     bordercolor="#000000"
     borderopacity="0.25"
     inkscape:showpageshadow="2"
     inkscape:pageopacity="0.0"
     inkscape:pagecheckerboard="0"
     inkscape:deskcolor="#d1d1d1"
     inkscape:document-units="mm"
     inkscape:zoom="0.72285243"
     inkscape:cx="161.16706"
     inkscape:cy="238.63792"
     inkscape:window-width="1920"
     inkscape:window-height="1009"
     inkscape:window-x="-8"
     inkscape:window-y="-8"
     inkscape:window-maximized="1"
     inkscape:current-layer="layer1" />
  <defs
     id="defs1" />
  <g
     inkscape:label="Layer 1"
     inkscape:groupmode="layer"
     id="layer1">
    <path
       style="fill:currentColor;stroke-width:4.16207"
       id="path1"
       d="m 33.454917,24.938668 c -1.594815,7.710793 -3.087245,15.468755 -4.921899,23.095013 -0.717606,2.982927 -1.520574,5.931294 -2.280861,8.896942 -2.824158,10.056663 -6.283112,19.811707 -10.26304,29.207343 -1.111872,2.624862 -2.331385,5.173067 -3.497078,7.759604 0,0 3.725857,2.741045 3.725857,2.741045 v 0 c 1.143894,-2.61216 2.335249,-5.191366 3.431684,-7.83648 3.921188,-9.459741 7.372104,-19.233537 10.345701,-29.239783 2.794457,-10.486501 5.334267,-21.063441 7.731716,-31.708063 z" />
    <path
       style="fill:currentColor;stroke-width:4.16207"
       id="path2"
       d="m 13.081354,92.797485 c 9.860329,8.326925 21.299866,12.404425 32.501395,16.675815 15.384684,5.53407 31.155929,8.91337 46.948462,11.85882 0,0 -3.344806,-3.19608 -3.344806,-3.19608 v 0 c -15.795193,-2.8409 -31.552734,-6.25746 -46.902671,-11.91522 -6.351587,-2.47411 -9.123958,-3.4294 -15.195581,-6.240416 -1.881421,-0.871051 -3.747956,-1.796864 -5.594589,-2.781791 -1.372998,-0.732313 -2.64943,-1.764718 -4.060448,-2.367877 -0.427115,-0.182577 3.985621,3.216562 0.163628,0.243482 z" />
    <path
       style="fill:currentColor;stroke-width:4.16207"
       id="path3"
       d="m 107.04391,38.494767 c -1.51252,6.924557 -2.84495,13.912435 -4.18308,20.894894 -2.23547,11.668205 -5.020975,23.158284 -8.731855,34.208302 -0.90908,2.706987 -1.917479,5.357845 -2.87622,8.036767 -2.526775,6.91456 -5.543288,13.50333 -8.502897,20.12214 0,0 3.866155,2.84114 3.866155,2.84114 v 0 c 2.887538,-6.68974 5.845846,-13.33774 8.388062,-20.2586 0.96357,-2.68466 1.9693,-5.345306 2.89071,-8.053977 3.755095,-11.038884 6.699395,-22.459949 8.955335,-34.141999 1.38565,-6.932274 2.75038,-13.886578 4.46631,-20.699305 z" />
    <path
       style="fill:currentColor;stroke-width:4.16207"
       id="path4"
       d="m 105.21386,55.330904 c -1.00756,14.034233 -3.70776,27.781244 -6.323985,41.438723 -2.57057,12.728373 -1.30329,6.557993 -3.79505,18.513403 0,0 3.7785,2.61437 3.7785,2.61437 v 0 c 2.396075,-12.01546 1.155235,-5.8255 3.724815,-18.569163 2.67614,-13.603 5.40906,-27.250141 6.89376,-41.165606 z" />
    <path
       style="fill:currentColor;stroke-width:4.16207"
       id="path5"
       d="m 105.27002,53.335605 c 0.25385,9.115697 -9.8e-4,18.224327 -0.30286,27.331738 -0.28244,5.670831 -0.42401,11.356236 -0.97742,16.999737 -0.34052,3.47253 -0.67281,5.56431 -1.15391,8.94429 0,0 4.082,2.77028 4.082,2.77028 v 0 c 0.38438,-2.88478 0.84274,-6.13214 1.11356,-9.02192 0.53129,-5.668978 0.61995,-11.38029 0.92315,-17.071214 0.31215,-9.045008 0.60346,-18.089475 0.63298,-27.144743 z" />
    <path
       style="fill:currentColor;stroke-width:4.16207"
       id="path6"
       d="m 105.90735,39.667682 c 0.29247,7.719524 0.78906,15.419254 1.29705,23.120018 0.69146,10.356166 1.03256,20.742447 1.20932,31.131506 0,0 4.15269,2.681282 4.15269,2.681282 v 0 c -0.30439,-10.416757 -0.67339,-20.832227 -1.30475,-31.226337 -0.46347,-7.625963 -0.9195,-15.252475 -1.0427,-22.902128 z" />
    <path
       style="fill:currentColor;stroke-width:4.16207"
       id="path8"
       d="m 40.385435,22.046232 c 10.40063,3.998907 21.023405,6.956474 31.579944,10.190289 12.596157,3.973747 25.214516,7.830163 37.818781,11.761554 1.22846,0.413918 2.45693,0.827832 3.6854,1.24175 0,0 -3.63835,-3.557322 -3.63835,-3.557322 v 0 c -1.20886,-0.390677 -2.41772,-0.781359 -3.62658,-1.172036 C 93.655955,36.714248 81.109093,32.905798 68.590872,28.948609 57.871383,25.642768 47.067664,22.622902 36.575801,18.247041 Z" />
    <path
       style="fill:currentColor;stroke-width:4.16207"
       id="path9"
       d="m 34.150662,20.711673 c -0.925511,6.237718 -2.28225,12.353635 -3.780261,18.401122 -0.375142,1.40551 -0.750283,2.81102 -1.125426,4.216532 0,0 4.034537,2.840584 4.034537,2.840584 v 0 c 0.37522,-1.409498 0.75044,-2.818995 1.125659,-4.228485 1.535857,-6.04614 2.909702,-12.155723 4.046632,-18.345668 z" />
    <path
       style="fill:currentColor;stroke-width:4.16207"
       id="path13"
       d="m 91.01058,114.95474 c 1.741175,0.41093 3.469455,0.89963 5.210555,1.31493 0,0 -3.821061,-3.6848 -3.821061,-3.6848 v 0 c -1.755629,-0.42754 -3.501448,-0.91031 -5.25059,-1.37841 z" />
    <path
       style="fill:currentColor;stroke-width:4.16207"
       id="path14"
       d="m 101.10175,108.35901 c 1.86682,0.2867 3.71838,0.7191 5.58309,1.03872 0,0 -3.85421,-3.67696 -3.85421,-3.67696 v 0 c -1.87821,-0.32884 -3.743555,-0.76079 -5.623615,-1.06923 z" />
    <path
       style="fill:currentColor;stroke-width:4.16207"
       id="path16"
       d="m 107.80169,89.579318 c 0.0393,2.888517 0.0246,5.777673 0.0155,8.66644 -10e-4,0.385973 -0.003,0.771945 -0.004,1.157915 0,0 4.30585,2.800587 4.30585,2.800587 v 0 c -0.001,-0.38759 -0.002,-0.77518 -0.004,-1.16277 -0.009,-2.882074 -0.0241,-5.764537 0.0155,-8.646347 z" />
    <path
       style="fill:currentColor;stroke-width:4.16207"
       id="path17"
       d="m 107.39381,98.107131 c -0.30103,0.0032 -0.60205,0.0067 -0.90308,0.01008 0,0 3.90929,3.625629 3.90929,3.625629 v 0 c 0.30823,0.003 0.61646,0.006 0.92468,0.009 z" />
    <path
       style="fill:currentColor;stroke-width:4.16207"
       id="path18"
       d="m 36.845584,10.350679 c -1.628998,1.485896 -2.706125,3.773678 -3.102005,6.276806 -0.09046,0.571978 -0.09121,1.16121 -0.136824,1.741817 0.167332,1.171421 0.145395,1.955377 0.774524,2.90329 0.244838,0.3689 0.561798,0.668093 0.900361,0.884854 1.737634,1.112493 3.439926,2.394121 5.306146,3.088768 0.471577,0.175533 0.932315,-0.395447 1.398471,-0.593173 0,0 -3.908173,-3.419704 -3.908173,-3.419704 v 0 c -2.634941,0.762855 -1.331475,-0.05669 1.654499,3.130243 0.281189,0.300113 -0.703504,-0.326459 -0.982845,-0.629367 -0.692239,-0.750644 -0.710362,-1.521015 -0.930098,-2.569064 0.02684,-0.545749 0.0042,-1.099177 0.0805,-1.63724 0.333618,-2.350769 1.390116,-4.538924 2.999268,-5.772424 z" />
    <path
       style="fill:currentColor;stroke-width:4.16207"
       id="path19"
       d="m 44.080762,11.981764 c -1.330105,0.567624 -2.491096,1.841284 -3.100708,3.469069 -0.15691,0.418973 -0.255371,0.869691 -0.383057,1.304541 -0.636959,3.820775 0.97467,7.132363 2.574391,10.184006 0,0 4.336221,2.412302 4.336221,2.412302 v 0 c -1.314932,-2.374355 -2.868779,-5.155214 -2.870991,-8.200055 -3.24e-4,-0.480764 0.09426,-0.953972 0.141377,-1.430958 0.692169,-2.35232 1.436304,-3.500286 3.348158,-4.29754 z" />
    <path
       style="fill:currentColor;stroke-width:4.16207"
       id="path20"
       d="m 49.918612,14.579109 c -1.063021,2.068577 -1.914518,4.440456 -2.227245,6.90309 -0.06593,0.519192 -0.06145,1.04901 -0.09216,1.573517 0.171604,1.364543 0.118275,1.841696 0.726525,3.040679 0.440334,0.867992 1.2303,1.75093 1.917228,2.275009 4.763503,3.634255 3.525529,2.950742 6.375833,4.329794 0,0 -3.744242,-3.757082 -3.744242,-3.757082 v 0 c -1.927458,-1.02717 -2.067047,-1.184125 1.785709,1.65057 0.379404,0.279154 -0.753741,-0.575213 -1.098226,-0.920341 -1.0115,-1.013391 -1.580011,-2.187426 -1.729973,-3.827801 0.01342,-0.494032 -0.01413,-0.992667 0.04025,-1.482094 0.260291,-2.342719 1.086397,-4.668033 2.186427,-6.54674 z" />
    <path
       style="fill:currentColor;stroke-width:4.16207"
       id="path21"
       d="m 58.014973,18.395716 c -0.842092,1.044884 -1.59375,2.380485 -1.937869,3.836119 -0.269036,1.138037 -0.229233,1.781793 -0.26296,2.951062 0.03012,2.179621 0.550882,3.452804 1.594715,5.097203 0,0 4.40524,2.371311 4.40524,2.371311 v 0 c -1.101452,-1.466895 -1.6716,-2.588663 -1.751777,-4.689983 0.01546,-2.634512 0.402833,-4.481105 2.048977,-6.217635 z" />
    <path
       style="fill:currentColor;stroke-width:4.16207"
       id="path22"
       d="m 64.800845,20.355061 c -0.908577,2.047958 -1.216746,4.351456 -1.348151,6.666595 -0.169314,2.09361 0.342785,3.663947 1.180234,5.399452 0,0 4.380338,2.445145 4.380338,2.445145 v 0 c -0.906853,-1.589319 -1.464408,-3.006681 -1.315939,-5.039265 0.09924,-2.200736 0.378495,-4.423539 1.300171,-6.332844 z" />
    <path
       style="fill:currentColor;stroke-width:4.16207"
       id="path23"
       d="m 72.426727,22.072916 c -0.965972,2.049404 -1.438813,4.349191 -1.762586,6.681102 -0.305456,2.507931 0.424312,4.272028 1.61901,6.15904 0.160279,0.215518 0.320557,0.431034 0.480836,0.646552 0,0 4.460166,2.353477 4.460166,2.353477 v 0 c -0.169472,-0.199362 -0.338949,-0.398722 -0.508422,-0.598085 -1.216463,-1.784099 -2.048308,-3.18635 -1.819974,-5.691685 0.293669,-2.246843 0.712073,-4.49588 1.727624,-6.411315 z" />
    <path
       style="fill:currentColor;stroke-width:4.16207"
       id="path24"
       d="m 80.00169,26.230838 c -0.824314,2.136493 -1.492034,4.413793 -1.062215,6.825931 0.100518,0.56414 0.29117,1.095784 0.436756,1.643672 0.195322,0.519218 0.390647,1.038431 0.585967,1.557645 0,0 4.32486,2.498628 4.32486,2.498628 v 0 c -0.202043,-0.498602 -0.404086,-0.997203 -0.606131,-1.495806 -0.157932,-0.507318 -0.358711,-0.996191 -0.473801,-1.521962 -0.495371,-2.263036 0.131646,-4.423148 0.98574,-6.394214 z" />
    <path
       style="fill:currentColor;stroke-width:4.16207"
       id="path25"
       d="m 86.326766,27.887882 c -0.808611,2.429783 -1.379315,5.100183 -1.162502,7.767468 0.053,0.652038 0.207284,1.2841 0.310924,1.926148 0.773477,2.260035 0.29976,1.215962 1.403922,3.144843 0,0 4.361451,2.383596 4.361451,2.383596 v 0 C 90.06814,41.349125 90.575119,42.315381 89.733905,40.19904 89.613936,39.594309 89.4384,39.003232 89.374,38.384857 c -0.265461,-2.548923 0.306974,-5.123479 1.161382,-7.39844 z" />
    <path
       style="fill:currentColor;stroke-width:4.16207"
       id="path27"
       d="m 93.022745,30.63501 c -1.208023,1.930842 -1.746416,4.260166 -1.999016,6.666972 -0.0978,2.63403 0.776896,3.950909 2.397276,5.354092 0,0 4.46792,2.210792 4.46792,2.210792 v 0 c -1.60061,-1.160118 -2.64123,-2.175527 -2.62405,-4.720693 0.21032,-2.300939 0.6826,-4.547524 1.92465,-6.317679 z" />
    <path
       style="fill:currentColor;stroke-width:4.16207"
       id="path28"
       d="m 98.842105,32.529654 c -0.87249,2.37377 -1.78529,4.722337 -2.1608,7.315561 -0.0748,2.032181 0.55043,2.974879 1.81785,4.016497 0,0 4.499095,2.21153 4.499095,2.21153 v 0 c -1.21292,-0.837194 -2.03185,-1.405483 -2.07652,-3.357119 0.28876,-2.535663 1.18486,-4.821051 2.11155,-7.072581 z" />
    <path
       style="fill:currentColor;stroke-width:4.16207"
       id="path29"
       d="m 104.23027,33.015532 c -0.79178,2.005753 -1.54575,4.146305 -1.84672,6.379269 -0.0581,0.431241 -0.052,0.87264 -0.0779,1.308961 0.0222,1.274789 0.49744,2.025181 1.13631,2.914995 0,0 4.44343,2.338422 4.44343,2.338422 v 0 c -0.65911,-0.716316 -1.20328,-1.283547 -1.32238,-2.450983 0.006,-0.403443 -0.0262,-0.810789 0.0181,-1.210329 0.23585,-2.128355 1.00892,-4.277402 1.82997,-6.129955 z" />
    <path
       style="fill:currentColor;stroke-width:4.16207"
       id="path30"
       d="m 50.816312,16.075453 c 0.497955,0.445268 0.975291,0.925194 1.449963,1.409488 0,0 4.483786,2.310462 4.483786,2.310462 v 0 C 56.292403,19.287582 55.80431,18.844036 55.345989,18.337861 Z" />
    <path
       style="fill:currentColor;stroke-width:4.16207"
       id="path31"
       d="m 58.416821,18.993731 c 0.12901,0.208757 0.258022,0.417514 0.387032,0.626276 0,0 4.439727,2.445058 4.439727,2.445058 v 0 c -0.117881,-0.215102 -0.235767,-0.430206 -0.353653,-0.645307 z" />
    <path
       style="fill:currentColor;stroke-width:4.16207"
       id="path32"
       d="m 64.733755,21.267677 c 0.654231,0.809083 0.3239,0.373474 0.985008,1.314172 0,0 4.437924,2.391088 4.437924,2.391088 v 0 c -0.637822,-0.955685 -0.332691,-0.494379 -0.916102,-1.383161 z" />
    <path
       style="fill:currentColor;stroke-width:4.16207"
       id="path33"
       d="m 72.379469,23.076843 c 0.778351,1.091822 1.397973,2.324781 1.942725,3.619681 0,0 4.379151,2.523042 4.379151,2.523042 v 0 c -0.508208,-1.332071 -1.11035,-2.585825 -1.854706,-3.72926 z" />
    <path
       style="fill:currentColor;stroke-width:4.16207"
       id="path34"
       d="m 79.45494,26.978985 c 0.403902,0.680813 0.754409,1.404541 1.093781,2.138932 0,0 4.407307,2.509822 4.407307,2.509822 v 0 c -0.318143,-0.743593 -0.640293,-1.484758 -1.044892,-2.159897 z" />
    <path
       style="fill:currentColor;stroke-width:4.16207"
       id="path35"
       d="m 85.817077,28.139106 c 0.653612,0.709649 1.216736,1.543623 1.783152,2.363225 0,0 4.453002,2.405799 4.453002,2.405799 v 0 c -0.550853,-0.843791 -1.136232,-1.651871 -1.729324,-2.44692 z" />
    <path
       style="fill:currentColor;stroke-width:4.16207"
       id="path36"
       d="m 93.004775,30.473139 c 0.62902,0.852724 0.31986,0.403894 0.92437,1.349977 0,0 4.43109,2.424907 4.43109,2.424907 v 0 c -0.57427,-0.983104 -0.28323,-0.51672 -0.86942,-1.402898 z" />
    <path
       style="fill:currentColor;stroke-width:4.16207"
       id="path39"
       d="m 108.17347,43.062728 c 1.90281,4.476859 2.99267,9.414674 4.09101,14.283257 1.16267,5.206971 2.28646,10.425335 3.61005,15.570127 0.78843,2.59844 1.38967,5.261494 1.96814,7.944406 0.22934,1.185196 0.49301,2.358666 0.74155,3.537384 0,0 4.33236,2.63745 4.33236,2.63745 v 0 c -0.24867,-1.184839 -0.53488,-2.355311 -0.75363,-3.550219 -0.27558,-1.259659 -0.50375,-2.542055 -0.80726,-3.791218 -0.36616,-1.507047 -0.32239,-1.131031 -0.76299,-2.641854 -0.15181,-0.520577 -0.28931,-1.047774 -0.43396,-1.571658 -1.41676,-5.141432 -2.59736,-10.372714 -3.74776,-15.620695 -1.07605,-4.832982 -2.13108,-9.704858 -3.79998,-14.271933 z" />
    <path
       style="fill:currentColor;stroke-width:1.38736;stroke-dasharray:none"
       id="path40"
       d="m 118.41969,84.016328 c -2.52873,0.954068 -4.50788,3.265 -6.3175,5.611812 -1.80536,2.432151 -2.75606,5.601158 -3.78491,8.627102 -0.79226,2.031928 -0.39964,1.019819 -1.17795,3.036278 0,0 4.12973,2.99613 4.12973,2.99613 v 0 c 0.77417,-2.0261 0.37777,-1.00571 1.18986,-3.06071 0.99986,-2.958638 1.93997,-6.051591 3.68798,-8.440362 1.76573,-2.288821 3.71357,-4.538029 6.24738,-5.234927 z" />
    <path
       style="fill:currentColor;stroke-width:1;stroke-dasharray:none"
       id="path44"
       d="m 40.903559,41.746085 c 7.689059,3.129121 15.677837,5.458814 23.603391,7.900606 10.597198,3.216751 21.261224,6.212023 31.846967,9.466408 2.996682,0.935067 1.622153,0.479552 4.130423,1.34575 0,0 -2.987171,-2.320742 -2.987171,-2.320742 v 0 C 95.078197,57.361706 96.404228,57.772887 93.514105,56.920727 83.004389,53.853635 72.455624,50.917689 61.990218,47.699657 53.861001,45.150426 45.653055,42.715526 37.832474,39.3052 Z" />
    <path
       style="fill:currentColor;stroke-width:1;stroke-dasharray:none"
       id="path44-4"
       d="m 37.536919,51.953562 c 7.689059,3.129121 15.677837,5.458814 23.603391,7.900606 10.597198,3.216751 21.261224,6.212023 31.846971,9.466408 2.99668,0.935067 1.62215,0.479552 4.13042,1.34575 0,0 -2.98717,-2.320742 -2.98717,-2.320742 v 0 c -2.41897,-0.776401 -1.09294,-0.36522 -3.98307,-1.21738 C 79.637749,64.061112 69.088984,61.125166 58.623578,57.907134 50.494361,55.357903 42.286415,52.923003 34.465834,49.512677 Z" />
    <path
       style="fill:currentColor;stroke-width:1;stroke-dasharray:none"
       id="path44-7"
       d="m 34.084879,62.192819 c 7.689059,3.129121 15.677837,5.458814 23.603391,7.900606 10.597198,3.216751 21.261224,6.212023 31.846967,9.466408 2.996682,0.935067 1.622153,0.479552 4.130423,1.34575 0,0 -2.987171,-2.320742 -2.987171,-2.320742 v 0 C 88.259517,77.80844 89.585548,78.219621 86.695425,77.367461 76.185709,74.300369 65.636944,71.364423 55.171538,68.146391 47.042321,65.59716 38.834375,63.16226 31.013794,59.751934 Z" />
    <path
       style="fill:currentColor;stroke-width:1;stroke-dasharray:none"
       id="path44-9"
       d="m 30.975728,73.486256 c 7.689059,3.129121 15.677837,5.458814 23.603391,7.900606 10.597198,3.216751 21.261224,6.212023 31.846967,9.466408 2.996682,0.935067 1.622153,0.479552 4.130423,1.34575 0,0 -2.987171,-2.320742 -2.987171,-2.320742 v 0 C 85.150366,89.101877 86.476397,89.513058 83.586274,88.660898 73.076558,85.593806 62.527793,82.65786 52.062387,79.439828 43.93317,76.890597 35.725224,74.455697 27.904643,71.045371 Z" />
    <path
       style="fill:currentColor;stroke-width:1;stroke-dasharray:none"
       id="path44-6"
       d="m 27.108422,84.37392 c 7.689059,3.129121 15.677837,5.458814 23.603391,7.900606 10.597198,3.216751 21.261224,6.212023 31.846967,9.466404 2.996682,0.93507 1.622153,0.47955 4.130423,1.34575 0,0 -2.987171,-2.32074 -2.987171,-2.32074 v 0 C 81.28306,99.989541 82.609091,100.40072 79.718968,99.548562 69.209252,96.48147 58.660487,93.545524 48.195081,90.327492 40.065864,87.778261 31.857918,85.343361 24.037337,81.933035 Z" />
    <path
       style="fill:currentColor;stroke-width:1;stroke-dasharray:none"
       id="path45"
       d="m 44.391286,43.294765 c -1.424318,5.973117 -3.367731,11.811013 -5.268458,17.645253 -2.845075,8.974076 -6.432552,17.687163 -10.301512,26.261798 -1.407043,2.958465 -0.725556,1.579779 -2.030039,4.143147 0,0 1.63086,0.928153 1.63086,0.928153 v 0 c 1.261644,-2.594753 0.602181,-1.200409 1.964936,-4.18937 3.759768,-8.633261 7.305077,-17.369443 10.210342,-26.332182 1.941314,-5.807475 3.942678,-11.606967 5.523235,-17.525653 z" />
    <path
       style="fill:currentColor;stroke-width:1;stroke-dasharray:none"
       id="path45-5"
       d="m 53.666989,46.818793 c -1.424318,5.973117 -3.367731,11.811013 -5.268458,17.645253 -2.845075,8.974076 -6.432552,17.687163 -10.301512,26.261798 -1.407043,2.958465 -0.725556,1.579779 -2.030039,4.143147 0,0 1.63086,0.928153 1.63086,0.928153 v 0 c 1.261644,-2.594753 0.602181,-1.200409 1.964936,-4.18937 3.759768,-8.633261 7.305077,-17.369443 10.210342,-26.332182 1.941314,-5.807475 3.942678,-11.606967 5.523235,-17.525653 z" />
    <path
       style="fill:currentColor;stroke-width:1;stroke-dasharray:none"
       id="path45-7"
       d="m 62.9191,49.77726 c -1.424318,5.973117 -3.367731,11.811013 -5.268458,17.645253 -2.845075,8.974076 -6.432552,17.687163 -10.301512,26.261798 -1.407043,2.958465 -0.725556,1.579779 -2.030039,4.143147 0,0 1.63086,0.928153 1.63086,0.928153 v 0 c 1.261644,-2.594753 0.602181,-1.200409 1.964936,-4.18937 3.759768,-8.633261 7.305077,-17.369443 10.210342,-26.332182 1.941314,-5.807475 3.942678,-11.606967 5.523235,-17.525653 z" />
    <path
       style="fill:currentColor;stroke-width:1;stroke-dasharray:none"
       id="path45-6"
       d="m 72.810127,52.771323 c -1.424318,5.973117 -3.367731,11.811013 -5.268458,17.645253 -2.845075,8.974076 -6.432552,17.687163 -10.301512,26.261798 -1.407043,2.958465 -0.725556,1.579779 -2.030039,4.143146 0,0 1.63086,0.92815 1.63086,0.92815 v 0 c 1.261644,-2.594749 0.602181,-1.20041 1.964936,-4.189366 3.759768,-8.633261 7.305077,-17.369443 10.210342,-26.332182 1.941314,-5.807475 3.942678,-11.606967 5.523235,-17.525653 z" />
    <path
       style="fill:currentColor;stroke-width:1;stroke-dasharray:none"
       id="path45-51"
       d="M 82.476318,55.783184 C 81.052,61.756301 79.108587,67.594197 77.20786,73.428437 74.362785,82.402513 70.775308,91.1156 66.906348,99.690235 c -1.407043,2.958465 -0.725556,1.579775 -2.030039,4.143145 0,0 1.63086,0.92816 1.63086,0.92816 v 0 c 1.261644,-2.59476 0.602181,-1.20041 1.964936,-4.18938 3.759768,-8.633256 7.305077,-17.369438 10.210342,-26.332177 1.941314,-5.807475 3.942678,-11.606967 5.523235,-17.525653 z" />
    <path
       style="fill:currentColor;stroke-width:1;stroke-dasharray:none"
       id="path45-54"
       d="m 91.066377,58.349523 c -1.424318,5.973117 -3.367731,11.811013 -5.268458,17.645253 -2.845075,8.974076 -6.432552,17.687163 -10.301512,26.261804 -1.407043,2.95846 -0.725556,1.57978 -2.030039,4.14314 0,0 1.63086,0.92816 1.63086,0.92816 v 0 c 1.261644,-2.59476 0.602181,-1.20041 1.964936,-4.18937 3.759768,-8.633267 7.305077,-17.369449 10.210342,-26.332188 1.941314,-5.807475 3.942678,-11.606967 5.523235,-17.525653 z" />
    <path
       style="fill:currentColor;stroke-width:1;stroke-dasharray:none"
       id="path46"
       d="m 51.46912,41.481163 c 0.801344,-2.364036 3.124838,-3.687069 5.230005,-4.749763 0.662845,-0.20791 1.162135,-0.472422 1.86757,-0.335899 0.212585,0.04114 0.788551,0.354557 0.582988,0.28652 -2.065012,-0.683483 -1.227709,-1.028621 -1.366967,-0.01796 -0.02647,0.192121 -0.1152,0.370374 -0.172799,0.555564 -0.0042,0.179125 -0.07281,0.36867 -0.01246,0.537382 0.06888,0.192592 0.2027,0.377671 0.377647,0.483642 2.280637,1.381416 2.029077,1.149789 3.951301,1.698456 1.530199,0.436769 1.311167,0.381878 2.780123,0.878692 0.314666,0.154037 1.284586,0.544202 0.943996,0.462116 -0.468056,-0.112808 -0.857036,-0.484124 -1.333114,-0.555898 -0.161139,-0.02429 -0.23768,0.235466 -0.388866,0.296283 -0.383172,0.154141 -0.783804,0.274201 -1.191625,0.339503 -1.586571,0.25405 -3.2082,0.229777 -4.806455,0.265684 -1.407999,0.07469 -2.817635,-0.101235 -4.225653,-0.05792 -0.324178,0.01 -0.693245,-0.06094 -0.966276,0.11411 -0.131255,0.08415 -0.06536,0.379171 0.06606,0.463058 2.23904,1.429083 2.864403,1.450713 5.147318,2.075759 2.197539,0.580681 4.418828,1.063167 6.594862,1.723448 0.21968,0.06666 0.828479,0.370136 0.651163,0.224319 -1.39632,-1.14827 -1.354773,-1.058825 -2.560177,-1.403252 -0.286957,-0.106574 -1.075513,-0.537964 -0.860864,-0.319725 0.27959,0.284268 0.673764,0.496284 1.070779,0.533154 0.157805,0.01466 -0.18532,-0.292264 -0.158104,-0.448395 0.03747,-0.214945 0.185382,-0.403309 0.334361,-0.562718 0.33278,-0.356076 1.498156,-1.161672 1.845432,-1.411552 0.426014,-0.264941 1.314805,-0.876073 1.854692,-1.01218 0.217781,-0.0549 0.827268,0.17067 0.673751,0.0067 -0.297685,-0.317881 -0.763537,-0.664437 -1.184238,-0.551862 -0.277119,0.07416 0.309682,0.48951 0.40109,0.761428 0.121393,0.361109 0.154099,0.746191 0.231148,1.119288 0.03887,0.445765 0.09015,0.890619 0.116604,1.337292 0.04186,0.706852 0.05585,1.725747 0.04018,2.456531 -0.0036,0.168371 -0.172018,0.412896 -0.03057,0.504307 2.035649,1.31554 1.747091,0.9726 2.018694,-0.393835 0.604901,-2.148523 2.254361,-6.154468 4.993833,-6.140379 0.434332,0.0021 0.836118,0.235591 1.254178,0.353383 -0.153485,-0.01744 -0.53471,-0.187743 -0.460452,-0.05229 0.263346,0.480374 0.754727,0.795673 1.100791,1.220351 1.09474,1.343437 1.955187,2.867011 2.925736,4.298373 0.255937,0.228809 0.644647,0.969859 1.008597,1.115044 0.04123,0.01646 0.0027,-0.115994 -0.04036,-0.126913 -0.210423,-0.05341 -0.432538,-0.04059 -0.649502,-0.04817 -0.605742,-0.02117 -1.211958,-0.02537 -1.817936,-0.03807 -1.987889,0.105839 -4.302585,-0.226375 -6.268625,0.168156 -0.15154,0.03041 -0.514186,0.170341 -0.386074,0.25681 2.460624,1.660776 2.677924,1.352431 5.378566,1.549905 3.465047,0.117735 6.958332,0.281242 10.419432,-0.0424 0.733213,-0.06856 1.472829,-0.147166 2.182077,-0.345331 0.320804,-0.08963 0.769535,-0.185272 0.862139,-0.505233 0.08585,-0.296619 -0.32534,-0.524941 -0.488011,-0.787413 -2.465691,-1.591463 -5.182213,-2.30142 -7.975994,-3.015511 -0.556852,-0.142333 -1.115928,-0.277154 -1.678924,-0.392819 -0.223941,-0.04601 -0.842518,-0.252241 -0.679693,-0.09175 0.584258,0.575857 1.344744,0.939969 2.017117,1.409954 0.416983,0.147267 0.830821,0.303757 1.250945,0.441804 0.285538,0.09382 3.04443,0.942977 3.346717,1.028776 0.396298,0.112483 0.792607,0.229518 1.197462,0.305665 0.104132,0.01958 0.401706,0.04313 0.31719,-0.02077 -0.72911,-0.551323 -1.537613,-0.988928 -2.306421,-1.483389 -2.210511,-0.535094 -1.048538,-0.269891 -3.48802,-0.786355 0,0 1.496819,1.136859 1.496819,1.136859 v 0 c 2.461803,0.540842 1.288325,0.250391 3.523983,0.85689 -0.2789,-0.293727 -0.522589,-0.625459 -0.8367,-0.881184 -0.06097,-0.04963 -0.15867,0.02381 -0.235707,0.0081 -0.393001,-0.07998 -0.780901,-0.184361 -1.166809,-0.293547 -1.567019,-0.44336 -3.125335,-0.941271 -4.640953,-1.537666 0.365212,0.328769 0.677322,0.728464 1.095637,0.986304 0.175934,0.108442 0.413353,0.02916 0.616182,0.06883 0.550186,0.107598 1.096786,0.234135 1.64007,0.37242 0.777092,0.1978 1.551305,0.407768 2.320129,0.635592 2.409095,0.713891 2.05645,1.510292 2.39204,0.496367 0.217283,0.163171 0.681352,0.219392 0.651851,0.489516 -0.03261,0.29859 -0.470411,0.401394 -0.758455,0.486534 -0.687575,0.203229 -1.406511,0.292344 -2.119878,0.364231 -3.46383,0.349049 -6.965577,0.170455 -10.431987,0.0024 -0.03029,-0.003 -4.101417,-1.164161 -2.233549,0.602433 0.08283,0.07834 0.155713,-0.190659 0.267478,-0.21312 2.044634,-0.41085 4.182306,-0.08794 6.242606,-0.157329 0.62507,0.02682 1.24986,0.06142 1.875216,0.08046 0.324876,0.0099 0.955296,0.08909 0.946134,-0.235805 -0.0038,-0.133762 -1.130107,-0.84905 -1.0639,-1.084296 -1.001766,-1.432298 -1.874549,-2.961535 -2.95706,-4.336561 -0.340659,-0.432707 -0.642768,-0.913754 -1.076095,-1.253622 -0.884044,-0.69337 -1.892596,-1.211308 -2.838892,-1.816963 -0.436211,-0.09035 -0.863812,-0.295063 -1.308632,-0.271044 -2.798032,0.15109 -4.407601,4.084293 -5.119139,6.306867 -0.341104,1.399839 -0.669177,1.376948 1.4371,2.208869 0.163205,0.06446 0.0029,-0.350949 0.0021,-0.526423 -0.0059,-1.276678 -0.01672,-2.555486 -0.144626,-3.827145 -0.047,-0.27817 -0.201742,-1.71492 -0.544364,-2.002237 -2.260992,-1.896022 -2.746323,-1.520367 -4.788938,-0.195876 -0.659188,0.470662 -2.12431,1.28098 -2.333019,2.157936 -0.285988,1.201679 2.270271,1.893565 3.27265,2.270226 0.260268,0.06404 0.909214,0.427389 0.780801,0.192122 C 64.25797,44.844901 62.587322,44.643958 61.346622,44.321384 59.725896,43.9 58.08931,43.540794 56.47713,43.085716 51.657075,41.68861 54.497708,41.998784 54.612286,42.94868 c 0.01288,0.106884 -0.387086,-0.102629 -0.288338,-0.145521 0.280247,-0.121719 0.602975,-0.110474 0.908225,-0.123716 1.395341,-0.06053 2.795053,0.09664 4.189886,0.02463 1.612455,-0.03513 4.692055,0.123187 6.175147,-0.652259 0.224748,-0.11751 0.676873,-0.345549 0.526193,-0.54955 -0.484674,-0.656186 -1.298485,-0.991217 -1.987193,-1.428446 -0.291065,-0.184782 -0.627044,-0.28683 -0.940564,-0.430244 -1.734635,-0.575025 -0.969608,-0.337286 -2.786719,-0.872469 -0.444984,-0.131059 -0.89907,-0.547907 -1.335601,-0.390972 -0.295807,0.106344 0.48958,0.395668 0.715987,0.613727 0.227599,0.219213 -1.117582,-0.738219 -0.459412,-0.829244 0.04996,-0.150029 0.410154,-1.046556 0.230393,-1.241811 -0.549132,-0.596463 -1.269097,-1.0136 -1.94986,-1.453912 -0.780576,-0.50487 -1.762487,-0.06402 -2.515684,0.209267 -2.145787,1.120772 -4.471781,2.478633 -5.365279,4.86215 z" />
    <path
       style="fill:currentColor;stroke-width:1;stroke-dasharray:none"
       id="path47"
       d="m 65.156579,69.255271 c -2.825276,0.994273 -5.291748,3.070617 -5.997387,6.103522 -0.179588,0.77189 -0.151659,1.577743 -0.227486,2.366614 0.161269,0.881689 0.217673,1.78917 0.483804,2.645066 1.598697,5.141486 6.150941,8.360375 10.901894,10.38911 1.012926,0.432536 2.152669,0.467371 3.229002,0.701059 1.040884,-0.117624 2.122611,-0.0411 3.122649,-0.352865 3.041642,-0.948253 5.604597,-4.075445 5.917065,-7.263566 0.332737,-3.394914 -0.887767,-4.854064 -2.296226,-7.786087 -0.933929,-1.073063 -1.748055,-2.2635 -2.801782,-3.219185 -2.18341,-1.980258 -6.219393,-3.990052 -8.814707,-4.764188 -1.743117,-0.519941 -3.502782,0.105756 -5.153419,0.504319 0,0 2.293472,1.5854 2.293472,1.5854 v 0 c 3.722084,-0.881568 0.674544,-0.359566 4.974859,-0.439785 0.325726,-0.0061 0.673087,-0.293278 0.965743,-0.150146 3.156953,1.544005 3.851881,2.832647 6.159124,5.405419 1.39469,2.818212 2.635284,4.279656 2.325161,7.566414 -0.292275,3.097593 -2.815423,6.118166 -5.781172,6.98922 -0.982179,0.288469 -2.038094,0.194228 -3.057139,0.29134 -1.058677,-0.250015 -2.122387,-0.479615 -3.176034,-0.750046 -0.245116,-0.06291 -0.513308,-0.09918 -0.717124,-0.249179 -2.601897,-1.914835 -4.603901,-4.126111 -5.613141,-7.251843 -0.267354,-0.828016 -0.328546,-1.70892 -0.492818,-2.563379 0.06838,-0.763225 0.03369,-1.542817 0.205129,-2.289672 0.684125,-2.98033 3.167313,-4.967626 5.977241,-5.805598 z" />
  </g>
</svg>
