<?xml version="1.0" encoding="UTF-8" standalone="no"?>
<!-- Created with Inkscape (http://www.inkscape.org/) -->

<svg
   width="512"
   height="512"
   viewBox="0 0 135.46667 135.46667"
   version="1.1"
   id="svg1"
   inkscape:version="1.3 (0e150ed6c4, 2023-07-21)"
   sodipodi:docname="selectTreatment.svg"
   xmlns:inkscape="http://www.inkscape.org/namespaces/inkscape"
   xmlns:sodipodi="http://sodipodi.sourceforge.net/DTD/sodipodi-0.dtd"
   xmlns="http://www.w3.org/2000/svg"
   xmlns:svg="http://www.w3.org/2000/svg">
  <sodipodi:namedview
     id="namedview1"
     pagecolor="#ffffff"
     bordercolor="#000000"
     borderopacity="0.25"
     inkscape:showpageshadow="2"
     inkscape:pageopacity="0.0"
     inkscape:pagecheckerboard="false"
     inkscape:deskcolor="#d1d1d1"
     inkscape:document-units="mm"
     inkscape:zoom="0.5"
     inkscape:cx="-285"
     inkscape:cy="85"
     inkscape:window-width="1920"
     inkscape:window-height="1009"
     inkscape:window-x="-8"
     inkscape:window-y="-8"
     inkscape:window-maximized="1"
     inkscape:current-layer="layer1"
     showgrid="false" />
  <defs
     id="defs1" />
  <g
     inkscape:label="Layer 1"
     inkscape:groupmode="layer"
     id="layer1"
     transform="translate(-31.817824,-75.767868)">
    <path
       style="fill:currentColor;fill-opacity:1;stroke-width:1;stroke-dasharray:none"
       id="path59"
       d="m 74.452932,94.941082 c 0.268156,-0.780709 0.858986,-1.350428 1.494409,-1.844924 0.8167,-0.63736 1.80698,-0.88012 2.794029,-1.110715 1.332043,-0.251972 2.693363,-0.312216 4.046152,-0.290629 0.593063,0.04191 1.192249,0.106422 1.768321,0.261577 0.561269,0.151168 1.10282,0.395591 1.652641,0.583167 1.408591,0.485392 2.835584,0.922573 4.291427,1.241317 0.851721,0.149604 1.730333,0.369322 2.599995,0.227569 0.163576,-0.02666 0.323051,-0.07424 0.484576,-0.111359 1.639438,-0.37515 3.187449,-1.047486 4.745503,-1.664495 0.99568,-0.402584 1.974655,-0.84213 2.932005,-1.328392 L 99.0217,88.170131 v 0 c 0,0 -1.876339,0.951714 -2.853733,1.34396 -1.566757,0.614365 -3.13725,1.258516 -4.80032,1.564462 -0.156601,0.02553 -0.312002,0.06001 -0.469802,0.07658 -0.842584,0.08845 -1.685806,-0.119844 -2.508935,-0.263652 -1.45355,-0.33364 -2.880051,-0.774169 -4.283885,-1.277075 -0.386043,-0.137395 -0.767061,-0.289641 -1.157623,-0.413614 -0.745588,-0.236666 -1.52785,-0.326785 -2.307241,-0.345975 -1.376055,0.0051 -2.761879,0.05472 -4.11475,0.326171 -1.023482,0.245688 -2.028012,0.542379 -2.864254,1.214704 -0.67196,0.53255 -1.285436,1.133157 -1.629254,1.935244 z"
       sodipodi:nodetypes="ccccsccsccccscccccsccccc" />
    <path
       style="fill:currentColor;fill-opacity:1;stroke-width:1;stroke-dasharray:none"
       id="path60"
       d="m 85.057591,104.47344 c 0.675823,-0.89192 1.54024,-1.61343 2.473394,-2.2201 0.5221,-0.27819 1.066049,-0.56311 1.652672,-0.68172 0.572643,-0.11579 1.155973,-0.055 1.728632,0.006 1.495054,0.19742 2.937795,0.64723 4.360698,1.13128 1.07116,0.38191 2.120683,0.82001 3.175995,1.24273 1.142632,0.54816 2.338408,0.96225 3.562098,1.2848 1.70989,0.38963 3.46726,0.47887 5.21393,0.54396 0.99335,-0.0436 2.07103,-0.0388 2.96873,-0.53714 0.1419,-0.0788 0.26853,-0.18236 0.40279,-0.27354 0.66245,-0.64798 1.17045,-1.4266 1.69513,-2.18467 l -2.55503,-2.795672 v 0 c -0.4538,0.757042 -0.94906,1.503062 -1.62092,2.086332 -0.12479,0.0774 -0.24358,0.16547 -0.37437,0.23225 -0.86939,0.44393 -1.89005,0.43731 -2.83856,0.47315 -1.73798,-0.066 -3.48753,-0.16232 -5.178848,-0.60067 -1.22814,-0.35992 -2.423819,-0.80479 -3.585617,-1.34319 -1.04552,-0.42067 -2.090359,-0.845075 -3.158257,-1.206619 -1.440755,-0.467483 -2.899321,-0.905833 -4.408874,-1.084444 -0.550498,-0.03977 -0.721784,-0.07874 -1.259846,-0.01957 -0.805619,0.08859 -1.536178,0.451081 -2.224963,0.857811 -0.954926,0.640312 -1.833544,1.383342 -2.604333,2.239142 z"
       sodipodi:nodetypes="ccscccccccccscccccccsccc" />
    <path
       style="fill:currentColor;fill-opacity:1;stroke-width:1;stroke-dasharray:none"
       id="path61"
       d="m 76.589317,116.27593 c 0.580133,-0.89291 1.468027,-1.50694 2.345727,-2.07867 0.966364,-0.6789 2.092637,-0.84691 3.238629,-0.95302 1.172697,-0.069 2.350236,-0.11779 3.518334,0.0253 1.195067,0.22571 2.293027,0.77821 3.371509,1.31876 1.437187,0.75577 2.95012,1.35546 4.458922,1.95071 1.350023,0.51751 2.768817,0.78463 4.202536,0.92178 0.967959,0.0917 1.830856,-0.30708 2.711766,-0.64017 0.15738,-0.0667 0.31476,-0.13338 0.47213,-0.20007 l -2.389168,-3.19964 v 0 c -0.153098,0.0642 -0.306197,0.12848 -0.459295,0.19273 -0.85788,0.30857 -1.704012,0.64081 -2.635756,0.53401 -1.401572,-0.14134 -2.784445,-0.41883 -4.098171,-0.94258 -1.518589,-0.60488 -3.031233,-1.23325 -4.478469,-1.99644 -1.10203,-0.54168 -2.228885,-1.08341 -3.457879,-1.25533 -1.17741,-0.10019 -2.359433,-0.0511 -3.536863,0.0339 -1.18581,0.12915 -2.33652,0.34282 -3.323233,1.06422 -0.907939,0.61094 -1.805818,1.26706 -2.474161,2.14647 z"
       sodipodi:nodetypes="ccccccccccsccccccccc" />
    <path
       style="fill:currentColor;fill-opacity:1;stroke-width:1;stroke-dasharray:none"
       id="path62"
       d="m 139.28121,106.22571 c 1.1027,-0.59138 2.39093,-0.76865 3.60937,-0.99032 0.90757,-0.11609 1.95745,-0.40049 2.83128,0.034 0.1057,0.0525 0.19628,0.13118 0.29442,0.19677 -0.74509,-0.41016 -1.46524,-0.86934 -2.23529,-1.23048 -0.11508,-0.054 0.17225,0.18857 0.24126,0.29531 0.0786,0.12164 0.14537,0.25171 0.19928,0.38615 0.24306,0.60617 0.28289,1.24917 0.33604,1.89142 0.0701,1.68235 -0.28381,3.33535 -0.59414,4.97823 -0.22408,1.22007 -0.41377,2.4469 -0.51883,3.68319 -0.12245,1.54896 -0.0706,3.093 0.12747,4.6319 0.0441,0.24954 0.0882,0.49908 0.13235,0.74862 0,0 2.56378,1.24565 2.56378,1.24565 v 0 c -0.0512,-0.24722 -0.10249,-0.49444 -0.15374,-0.74166 -0.096,-0.6753 -0.15624,-0.98733 -0.18911,-1.67155 -0.0461,-0.96032 0.0311,-1.92342 0.0783,-2.88185 0.10277,-1.23209 0.27851,-2.45585 0.47188,-3.67673 0.29267,-1.66666 0.65044,-3.33684 0.62842,-5.03783 -0.0263,-0.66087 -0.0453,-1.31771 -0.23521,-1.95744 -0.0362,-0.12217 -0.24102,-0.68507 -0.37798,-0.78048 -0.88874,-0.61911 -1.83746,-1.14734 -2.75619,-1.72102 -0.10887,-0.0474 -0.21358,-0.10578 -0.32662,-0.14209 -0.92221,-0.29616 -1.91834,-0.008 -2.83871,0.1272 -1.27872,0.23891 -2.61677,0.41738 -3.78775,1.01249 z" />
    <path
       style="fill:currentColor;fill-opacity:1;stroke-width:1;stroke-dasharray:none"
       id="path64"
       d="m 39.930466,121.19334 c 0.504701,-1.13605 1.431602,-1.96035 2.439846,-2.64437 0.361776,-0.17518 0.585314,-0.33143 0.992437,-0.35668 0.140546,-0.009 0.284564,0.011 0.4192,0.0523 0.134899,0.0413 0.500306,0.26096 0.377321,0.19181 -0.694113,-0.39028 -1.374887,-0.80703 -2.090974,-1.15535 -0.169152,-0.0823 0.293743,0.23504 0.440614,0.35256 0.867817,0.80575 1.43581,1.68821 1.799321,2.80802 0.119839,0.48219 0.216448,0.98966 0.138204,1.48888 -0.127162,0.81133 -0.502417,1.58377 -0.809015,2.33649 -0.430181,1.1267 -1.029309,2.27165 -1.063459,3.50628 -0.0058,0.20975 0.02609,0.41884 0.03913,0.62826 0.192174,1.26628 0.814695,2.40571 1.453761,3.49707 0.369069,0.55879 0.181748,0.29852 0.556937,0.7844 0,0 2.680684,1.1401 2.680684,1.1401 v 0 c -0.409539,-0.46273 -0.206762,-0.21214 -0.602117,-0.75673 -0.648639,-1.05035 -1.273354,-2.15496 -1.511794,-3.37908 -0.02135,-0.19354 -0.06173,-0.38591 -0.06407,-0.58061 -0.01456,-1.21281 0.564004,-2.35384 0.972055,-3.46148 0.323067,-0.76846 0.735633,-1.56615 0.915061,-2.38609 0.114546,-0.52345 0.02887,-1.06522 -0.08258,-1.57854 -0.121212,-0.41299 -0.16208,-0.60846 -0.347321,-1.00433 -0.342285,-0.73148 -0.854813,-1.36679 -1.397258,-1.95771 -1.184715,-1.08526 -0.596986,-0.6005 -3.321773,-2.07902 -0.24969,-0.13549 -0.625906,-0.14092 -0.893542,-0.0871 -0.43368,0.0873 -0.634763,0.24057 -1.021436,0.45476 -1.028264,0.74519 -1.971286,1.61194 -2.595108,2.73492 z" />
    <path
       style="fill:currentColor;fill-opacity:1;stroke-width:1;stroke-dasharray:none"
       id="path66"
       d="m 44.722422,134.44045 c 0.254941,0.58008 0.480876,1.17441 0.702694,1.76822 0,0 2.59346,1.20527 2.59346,1.20527 v 0 c -0.219044,-0.57091 -0.467539,-1.13577 -0.600736,-1.73487 z" />
    <path
       style="fill:currentColor;fill-opacity:1;stroke-width:1;stroke-dasharray:none"
       id="path67"
       d="m 143.59411,123.37194 c 0.0487,0.62703 0.0419,1.25635 0.0977,1.88306 0,0 2.57165,1.27314 2.57165,1.27314 v 0 c -0.0864,-0.59973 -0.0917,-1.20911 -0.0317,-1.81227 z" />
    <path
       style="fill:currentColor;fill-opacity:1;stroke-width:1;stroke-dasharray:none"
       id="path68"
       d="m 70.456269,140.11378 c 4.127259,-0.14569 8.252309,-0.35572 12.378463,-0.53484 5.376494,-0.16625 10.756066,-0.33473 16.135879,-0.26386 2.405699,0.0317 4.998899,0.1248 7.407359,0.20137 5.40743,0.17828 10.80678,0.50171 16.20326,0.8792 3.16112,0.22945 6.32375,0.43855 9.49016,0.57901 0.99503,0.04 1.99043,0.0722 2.98627,0.0808 0.65167,-0.008 1.30337,-0.0101 1.95508,-0.008 0.0964,5.3e-4 0.19283,7.9e-4 0.28924,0.001 l -3.63825,-2.72195 v 0 c -0.095,7.9e-4 -0.18993,10e-4 -0.2849,0.002 -0.65435,0.004 -1.30871,0.005 -1.96307,0.002 -0.95521,0.0114 -1.91056,0.0149 -2.86571,-0.005 -3.09616,-0.0672 -6.1896,-0.22057 -9.27901,-0.43585 -5.32874,-0.36426 -10.66458,-0.58272 -16.00398,-0.72053 -3.7719,-0.0895 -7.545075,-0.19484 -11.318539,-0.16187 -4.070191,0.0356 -8.138977,0.21003 -12.209139,0.25184 -1.25975,0.0204 -2.519559,0.0375 -3.779248,0.0614 -3.047272,0.0578 -6.097524,0.20067 -9.144841,0.0688 z"
       sodipodi:nodetypes="ccscccccccscccccccccc" />
    <path
       style="fill:currentColor;fill-opacity:1;stroke-width:1;stroke-dasharray:none"
       id="path69"
       d="m 69.976683,138.74375 c -7.94e-4,1.80122 -0.09284,3.59981 -0.2105,5.39662 -0.278739,2.91438 -0.354529,5.8412 -0.4566,8.76553 -0.07733,1.17977 -0.0085,2.35873 0.05622,3.53656 0.0053,0.36966 0.05327,0.73567 0.109715,1.10025 l 3.461218,1.81955 v 0 c 0,0 -0.156405,-0.71458 -0.162517,-1.08011 -0.09242,-1.19334 -0.226248,-2.38601 -0.203571,-3.58496 -0.0079,-2.92815 0.07763,-5.85601 0.416867,-8.76731 0.154943,-1.77075 0.272296,-3.54387 0.416613,-5.31503 z"
       sodipodi:nodetypes="ccccccsccccc" />
    <path
       style="fill:currentColor;fill-opacity:1;stroke-width:1;stroke-dasharray:none"
       id="path70"
       d="m 129.57859,139.60531 c 0.32522,1.76874 0.34837,3.58136 0.36955,5.3747 0.0123,2.44616 -0.0704,4.89118 -0.12564,7.33635 -0.004,1.42991 0.0619,2.8587 0.0966,4.28795 0.0105,0.56416 0.0163,1.12822 0.001,1.6923 l 3.48792,1.99577 v 0 c -0.0309,-0.5753 -0.0422,-1.15113 -0.0611,-1.7269 -0.0434,-1.43667 -0.12486,-2.87165 -0.16187,-4.30851 0.006,-2.45622 0.0193,-4.9124 0.0725,-7.36815 0.0117,-1.77811 2.6e-4,-3.56049 -0.16033,-5.33274 z"
       sodipodi:nodetypes="ccccccsccccc" />
    <path
       style="fill:currentColor;fill-opacity:1;stroke-width:1;stroke-dasharray:none"
       id="path71"
       d="m 72.310818,134.43963 c 1.479863,-0.97585 3.344506,-1.08494 5.055585,-1.27305 1.825296,-0.12691 3.670395,-0.0778 5.466019,0.29806 0.597622,0.1251 0.949089,0.25008 1.511019,0.42869 0.163108,0.0672 0.326216,0.13445 0.489323,0.20168 0,0 -2.28106,-1.78722 -2.28106,-1.78722 v 0 c -0.159811,-0.0554 -0.319619,-0.11073 -0.47943,-0.1661 -2.269189,-0.61364 -4.576054,-0.72149 -6.917574,-0.54723 -1.819386,0.17892 -3.758607,0.29285 -5.358259,1.27283 z" />
    <path
       style="fill:currentColor;fill-opacity:1;stroke-width:1;stroke-dasharray:none"
       id="path72"
       d="m 82.224396,132.58841 c -1.116028,1.13472 -2.621629,1.87573 -4.116364,2.38163 -0.445645,0.15083 -0.906708,0.25155 -1.360061,0.37732 -2.013363,0.36366 -3.219426,0.0874 -5.020236,-0.82199 -0.330817,-0.16705 -1.293551,-0.72396 -0.972878,-0.53818 0.555987,0.32211 1.119261,0.63148 1.678889,0.94722 -0.15884,-0.10193 -0.317682,-0.20385 -0.476525,-0.30577 0,0 -2.687079,-1.04549 -2.687079,-1.04549 v 0 c 0.173487,0.11062 0.346975,0.22125 0.520462,0.33188 1.731306,1.00434 4.412088,2.84205 6.579124,3.14034 1.051218,0.1447 1.580038,-0.0141 2.621968,-0.1711 0.458221,-0.13385 0.923456,-0.24567 1.374658,-0.40154 1.213668,-0.41928 2.441488,-0.98495 3.529018,-1.67238 0.269428,-0.1703 0.59681,-0.46099 0.849693,-0.67728 z" />
    <path
       style="fill:currentColor;fill-opacity:1;stroke-width:1;stroke-dasharray:none"
       id="path73"
       d="m 85.580926,132.95286 c 2.270559,-0.0725 4.542751,-0.0811 6.814275,-0.0915 3.232328,-0.0322 6.463374,0.0213 9.694309,0.10852 1.9781,0.058 3.95881,0.057 5.92976,0.25067 1.14472,0.14835 2.29927,0.17891 3.44771,0.2797 1.13591,0.0974 2.27474,0.13033 3.41118,0.22151 1.0124,0.0675 2.02324,0.14245 3.03378,0.23415 0.72669,0.0701 1.44709,0.18712 2.17456,0.25439 0.58756,0.0448 1.17784,0.0435 1.76685,0.0489 0.33314,0.004 0.66429,-0.0206 0.99304,0.0376 l -4.24574,-2.46481 v 0 c 0,0 -0.66715,-0.005 -1.0009,-0.008 -0.58254,-0.003 -1.16566,-0.01 -1.74606,-0.0654 -0.71774,-0.0689 -1.42981,-0.18676 -2.14968,-0.23317 -1.00564,-0.0826 -2.01129,-0.15814 -3.0185,-0.2192 -1.13992,-0.0824 -2.28227,-0.12355 -3.4205,-0.22965 -1.13952,-0.0819 -2.28128,-0.13419 -3.41755,-0.25952 -1.94045,-0.14158 -3.886427,-0.11112 -5.830479,-0.15591 -3.213074,-0.0585 -6.425631,-0.0796 -9.639287,-0.0609 -2.355493,-0.0106 -4.711528,-0.0211 -7.066142,-0.0915 z"
       sodipodi:nodetypes="cccccccccccscccccccccc" />
    <path
       style="fill:currentColor;fill-opacity:1;stroke-width:1;stroke-dasharray:none"
       id="path74"
       d="m 123.72872,135.14719 c 0.1445,0.0659 0.28709,0.13618 0.43349,0.19775 1.9626,0.82543 -0.7137,-0.34428 1.70423,0.69738 1.24014,0.53427 2.45148,1.1229 3.66217,1.72004 1.83667,0.91894 3.70804,1.76859 5.47716,2.81489 l -2.9815,-2.82669 v 0 c 0,0 -3.59565,-1.81435 -5.39307,-2.72386 -1.97592,-0.97153 -3.9826,-1.86992 -5.99683,-2.7576 z"
       sodipodi:nodetypes="ccscccsccc" />
    <path
       style="fill:currentColor;fill-opacity:1;stroke-width:1;stroke-dasharray:none"
       id="path75"
       d="m 119.262,139.7073 c 0.0534,2.00003 -0.004,4.00265 -0.0211,6.00333 -0.0342,1.37335 0.0925,2.73299 0.27413,4.09095 l 3.13725,1.67821 v 0 c -0.0677,-0.40372 -0.15528,-0.8046 -0.20306,-1.21116 -0.12362,-1.05198 -0.1105,-1.79698 -0.13024,-2.85884 0.0455,-1.96528 0.0944,-3.9314 0.25001,-5.89153 z"
       sodipodi:nodetypes="ccccssccc" />
    <path
       style="fill:currentColor;fill-opacity:1;stroke-width:1;stroke-dasharray:none"
       id="path76"
       d="m 82.88187,139.07116 c 0.05569,1.47368 0.06331,2.94895 0.07986,4.42349 0.01923,1.90429 0.01659,3.80869 -0.01024,5.71287 l 3.494527,1.60573 v 0 c 0,0 -0.02975,-3.81553 -0.01024,-5.72331 0.01643,-1.4474 0.02352,-2.89561 0.07986,-4.3421 z"
       sodipodi:nodetypes="ccccsccc" />
    <path
       style="fill:currentColor;fill-opacity:1;stroke-width:1;stroke-dasharray:none"
       id="path77"
       d="m 40.288592,171.95365 c 0.114838,1.10839 0.156124,2.22279 0.258976,3.33183 0.104797,0.85905 0.19343,1.71945 0.241306,2.5836 0.01782,0.64934 0.341842,1.13503 0.776058,1.58746 1.25087,1.06668 2.650352,2.00711 4.286008,1.90404 0.785309,-0.0291 1.48184,-0.35425 2.124033,-0.78253 0.64829,-0.37233 1.214049,-0.848 1.755356,-1.35893 0.571513,-0.56163 1.096607,-1.16474 1.61404,-1.77565 0.519596,-0.62402 1.042649,-1.24752 1.542924,-1.88742 0.530744,-0.57581 0.993244,-1.21084 1.422326,-1.86479 0.36116,-0.63801 0.788523,-1.23817 1.073925,-1.91569 0.243235,-0.50768 0.36589,-1.05711 0.521319,-1.59483 0.15435,-0.64394 0.226967,-1.30585 0.170532,-1.96595 -0.0746,-0.57178 -0.530719,-0.89483 -0.970711,-1.20135 -1.134504,-0.91109 -2.412205,-1.52792 -3.688651,-2.2586 -0.627473,-0.21165 -1.055871,-0.15228 -1.610474,0.20627 -0.507569,0.42923 -0.794902,1.01021 -1.001535,1.62854 -0.207596,0.72453 -0.376538,1.45618 -0.48411,2.20221 -0.106739,0.69455 0.01433,1.38718 0.225705,2.04897 0.21218,0.53001 0.550308,0.96785 0.979287,1.33726 1.617411,1.07817 2.569591,1.9025 4.328895,1.77588 1.021594,-0.13812 1.891524,-0.44167 2.911812,-0.643 0.815975,-0.23017 1.521869,-0.40622 2.362307,-0.65732 0.713798,-0.17179 1.255323,-0.33799 1.865341,-0.49332 0.723075,-0.22399 1.320702,-0.69128 1.991765,-1.01607 0.5715,-0.26208 1.039749,-0.69004 1.570212,-1.02072 0.580038,-0.32949 1.089657,-0.75745 1.638062,-1.13295 0.565825,-0.39115 1.161931,-0.74201 1.72122,-1.14202 0.453702,-0.42569 0.943941,-0.79973 1.429909,-1.18612 0.618175,-0.43545 1.186413,-0.93226 1.777886,-1.40103 0.378958,-0.35938 0.805127,-0.66911 1.170353,-1.04264 0.02875,-0.0484 0.05749,-0.0968 0.08624,-0.14512 l -2.585871,-1.4853 v 0 c -0.01241,0.0267 -0.02482,0.0534 -0.03723,0.0802 -0.354512,0.36443 -0.765945,0.67254 -1.132467,1.02502 -0.582284,0.47999 -1.162521,0.95911 -1.779323,1.39541 -0.486894,0.37849 -0.961448,0.76522 -1.42608,1.1708 -0.56234,0.39311 -1.141304,0.76448 -1.713529,1.14284 -0.544012,0.37822 -1.058243,0.79647 -1.638845,1.12109 -0.512286,0.33943 -0.984917,0.74448 -1.548479,0.99962 -0.6408,0.34291 -1.188586,0.5447 -1.862486,0.85878 -0.755774,0.1948 -1.329862,0.34366 -1.973841,0.50925 -0.85902,0.28402 -1.519697,0.35321 -2.289679,0.58867 -0.954112,0.31787 -1.911173,0.67581 -2.922728,0.75174 -0.359298,-0.005 -0.404324,0.01 -0.739777,-0.0474 -1.055137,-0.18028 -2.794142,-1.54974 1.54852,1.09002 -0.459613,-0.3043 -0.790093,-0.69819 -1.053482,-1.18244 -0.242297,-0.61181 -0.377112,-1.26543 -0.291816,-1.9248 0.09162,-0.73133 0.252865,-1.44525 0.456924,-2.1533 0.184701,-0.54843 0.426857,-1.08166 0.898236,-1.4435 0.482494,-0.24893 0.966916,-0.20934 1.447274,0.0413 -4.517868,-2.63371 -2.264977,-1.44404 -1.387942,-0.6808 0.393934,0.26314 0.901082,0.50852 1.076154,0.96896 0.08617,0.62582 0.03707,1.24882 -0.117945,1.86286 -0.151604,0.52815 -0.268738,1.06841 -0.502936,1.56858 -0.26337,0.66585 -0.674652,1.25829 -1.041,1.87016 -0.419331,0.64921 -0.873574,1.2794 -1.399299,1.84731 -0.504315,0.63334 -1.020309,1.25814 -1.539217,1.87946 -0.504545,0.60815 -1.038806,1.18745 -1.602162,1.74156 -0.532036,0.49578 -1.092248,0.94923 -1.723061,1.31597 -0.623337,0.38548 -1.290727,0.65305 -2.036,0.6447 -0.330472,-0.0105 -0.642579,-0.0332 -0.957705,-0.1439 -0.08342,-0.0293 -0.319045,-0.15112 -0.243427,-0.10532 0.675133,0.40899 3.225637,1.89953 2.042774,1.19782 -0.439608,-0.36304 -0.819413,-0.79469 -0.875518,-1.38475 -0.05229,-0.8728 -0.144996,-1.74226 -0.263132,-2.6086 -0.119288,-1.09231 -0.148491,-2.19283 -0.237587,-3.28796 z"
       sodipodi:nodetypes="cccccccccccccccccccccccccccccccccsccccccccccccccccccccccccccccscccccc" />
    <path
       style="fill:currentColor;fill-opacity:1;stroke-width:1;stroke-dasharray:none"
       id="path78"
       d="m 78.979784,187.1109 c -1.302451,0.12027 -2.613073,0.13749 -3.92026,0.13534 -2.297959,-0.0247 -4.578627,-0.33961 -6.854912,-0.62547 -1.488789,-0.20872 -2.985714,-0.37309 -4.465701,-0.64107 -0.852046,-0.15427 -1.001464,-0.20112 -1.827456,-0.3972 -1.055941,-0.27869 -2.111663,-0.59286 -3.116035,-1.02696 -0.646459,-0.2794 -0.839615,-0.40274 -1.46317,-0.74135 0.548935,0.30847 1.083758,0.64352 1.646804,0.9254 0.248881,0.12461 -0.46964,-0.29887 -0.701849,-0.45232 -0.792108,-0.52342 -1.578773,-1.05315 -2.336885,-1.62482 -0.798874,-0.56551 -1.435727,-1.30086 -1.804021,-2.21385 -0.07625,-0.18903 -0.130294,-0.38627 -0.195441,-0.5794 -0.263853,-0.95849 -0.281429,-1.97256 -0.079,-2.94582 0.03684,-0.17712 0.09192,-0.34995 0.137876,-0.52493 0.270257,-0.80565 0.471655,-1.1897 1.269961,-1.501 0.0754,-0.0124 0.149787,-0.0375 0.226203,-0.0372 0.106548,2.6e-4 0.331861,0.0706 0.423484,0.11527 0.07136,0.0348 0.271125,0.16519 0.201905,0.12632 -2.316008,-1.30064 -2.971682,-1.86046 -2.081881,-1.12781 0.487006,0.55922 0.762594,1.2536 0.992246,1.94864 0.275124,0.88191 0.327345,1.8063 0.366457,2.72274 0.01342,0.66769 0.04535,1.33976 -0.02602,2.00571 -0.03925,0.36624 -0.09684,0.60622 -0.170098,0.9671 -0.164884,0.65766 -0.344866,1.32007 -0.629649,1.93784 -0.189752,0.41162 -0.268742,0.51707 -0.502779,0.9023 -0.668046,0.94559 -1.589267,1.66845 -2.425267,2.45661 -1.399369,1.22947 -2.635302,2.62864 -3.783295,4.09156 -0.678101,0.88366 -1.380047,1.76857 -1.893463,2.76307 -0.309377,0.59927 -0.386676,0.88125 -0.61611,1.51882 -0.578975,2.70443 0.132778,5.39967 0.866735,7.99762 0.117013,0.38685 0.234026,0.77371 0.35104,1.16056 0,0 2.404401,1.13216 2.404401,1.13216 v 0 c -0.133963,-0.39217 -0.267925,-0.78433 -0.401888,-1.1765 -0.655383,-2.17751 -1.299956,-4.46196 -1.012406,-6.76219 0.04264,-0.34114 0.142925,-0.67256 0.214388,-1.00883 0.213354,-0.57795 0.32166,-0.92552 0.600594,-1.47219 0.50226,-0.98436 1.181241,-1.86916 1.844027,-2.74742 1.132703,-1.45886 2.357097,-2.85386 3.789007,-4.02931 0.907485,-0.75958 1.861044,-1.5012 2.530854,-2.49206 0.546169,-0.90771 0.9626,-1.88167 1.184909,-2.92155 0.08015,-0.3753 0.141191,-0.61919 0.186825,-1.001 0.08067,-0.67499 0.05161,-1.35554 0.0413,-2.03311 -0.02818,-0.93358 -0.05931,-1.87739 -0.312796,-2.78266 -0.06188,-0.20516 -0.176933,-0.60075 -0.254619,-0.80255 -0.16909,-0.43922 -0.403637,-0.85187 -0.64558,-1.25392 -0.831161,-1.03981 -0.182116,-0.28363 -2.911948,-1.81828 -0.305469,-0.17173 -0.684609,-0.11661 -0.991722,0.005 -0.835817,0.42825 -1.066064,0.8666 -1.335899,1.76116 -0.317561,1.23685 -0.425486,2.36397 -0.114289,3.62064 0.05977,0.20237 0.108739,0.40825 0.179322,0.6071 0.335849,0.9462 0.924951,1.76616 1.748548,2.34488 0.425296,0.32458 0.615158,0.47829 1.067536,0.78511 0.212614,0.1442 0.432824,0.27693 0.646475,0.41959 1.453086,0.97027 2.862508,1.97441 4.46096,2.72657 0.642202,0.33466 0.835922,0.4542 1.501835,0.7285 1.004893,0.41392 2.057816,0.71143 3.110609,0.97305 2.056532,0.44828 4.143732,0.70325 6.231707,0.95862 2.306706,0.29175 4.616807,0.60776 6.945008,0.65228 1.367433,0.0174 2.734805,0.005 4.101799,-0.0362 z" />
    <path
       style="fill:currentColor;fill-opacity:1;stroke-width:1;stroke-dasharray:none"
       id="path79"
       d="m 124.19408,166.01883 c 2.23923,1.6662 4.43178,3.39133 6.57658,5.17707 1.7254,1.44179 3.3815,2.96262 5.03113,4.48946 0.22747,0.21055 1.72608,1.6353 2.11991,1.88991 1.01656,0.65722 2.08789,1.22558 3.13184,1.83837 0.22557,0.0202 0.45456,0.10448 0.67671,0.0605 0.60409,-0.11961 1.36097,-0.81185 1.76036,-1.13347 0.51294,-0.41306 1.01161,-0.84361 1.52431,-1.25697 3.04776,-2.45726 2.41539,-1.93022 5.83742,-4.45855 4.62026,-3.29579 2.34005,-1.7051 6.83666,-4.77776 l -0.97403,-1.22326 v 0 c 0,0 -2.15469,1.53932 -6.82162,4.79042 -2.0603,1.41958 -4.13508,2.81813 -6.19023,4.24515 -0.55138,0.38285 -1.08351,0.79308 -1.63755,1.17206 -0.42632,0.29161 -1.13491,0.84232 -1.74469,0.88644 -0.19423,0.014 -0.38162,-0.0779 -0.57243,-0.11683 0.5395,0.32292 1.01097,0.80679 1.61851,0.96877 0.41709,0.1112 -0.6841,-0.52719 -1.0126,-0.80723 -0.42841,-0.36522 -0.83953,-0.75026 -1.25719,-1.12773 -1.40166,-1.26677 -1.81788,-1.66792 -3.27187,-2.95395 -0.59148,-0.52316 -1.1902,-1.03808 -1.78531,-1.55713 -0.54888,-0.47233 -1.09062,-0.95311 -1.64666,-1.417 -1.49262,-1.24526 -3.05947,-2.40012 -4.56731,-3.62652 z"
       sodipodi:nodetypes="ccsscssscccscssccsssscscc" />
    <path
       style="fill:currentColor;fill-opacity:1;stroke-width:1;stroke-dasharray:none"
       id="path80"
       d="m 124.66391,172.59781 c 1.15066,1.0551 2.43525,1.95009 3.6686,2.90375 1.81548,1.55427 3.59931,3.14454 5.4128,4.70128 1.53097,1.27087 3.0821,2.51799 4.57142,3.83796 1.26061,1.17944 2.51625,1.92414 4.22136,2.59679 0.2223,0.0877 1.06719,-0.53031 1.12061,-0.56476 2.24737,-1.82112 4.24155,-3.93092 6.28502,-5.97232 1.40519,-1.37604 2.84657,-2.73464 4.48881,-3.82834 0.64006,-0.42627 1.13927,-0.68934 1.80078,-1.05828 0.77009,-0.42191 1.57751,-0.76704 2.34909,-1.18512 l -2.26164,-2.07924 v 0 c 0,0 -1.53768,0.79252 -2.27999,1.23813 -0.60597,0.36744 -1.18432,0.70534 -1.76567,1.1161 -1.61433,1.14059 -3.02761,2.53036 -4.43453,3.91018 -2.04004,2.03327 -4.05719,4.13373 -6.41519,5.80384 -0.20242,0.10097 -0.39278,0.23104 -0.60726,0.30292 -0.1388,0.0465 -0.55059,-0.045 -0.43664,0.0469 0.65081,0.52466 1.42425,0.8757 2.1323,1.32008 0.13286,0.0834 -0.27802,-0.14706 -0.40655,-0.23698 -0.23884,-0.16713 -0.80474,-0.66831 -0.99958,-0.83691 -1.50434,-1.33391 -3.07374,-2.59116 -4.62768,-3.86623 -1.81795,-1.54842 -3.60851,-3.12745 -5.39791,-4.70866 -1.17544,-0.92624 -2.40713,-1.78698 -3.50998,-2.8011 z"
       sodipodi:nodetypes="ccccsccscccscsccscssccccc" />
    <path
       style="fill:currentColor;fill-opacity:1;stroke-width:1;stroke-dasharray:none"
       id="path81"
       d="m 124.70262,178.737 c 1.3385,1.03544 2.6683,2.07713 4.04635,3.06029 1.74253,1.20729 3.46906,2.43199 5.07391,3.81905 1.1303,0.94561 2.14214,2.01389 3.14898,3.086 0.56317,0.64023 1.19102,1.21001 1.88307,1.70572 1.03564,0.69425 0.60139,0.41075 2.94092,1.67627 0.0636,0.0344 0.1415,0.0311 0.20997,0.0542 0.1701,0.0575 0.32373,0.13023 0.49916,0.17576 0.54775,0.11941 0.47623,0.31251 1.04585,-0.0188 2.1654,-1.70027 4.26447,-3.48335 6.3849,-5.23911 2.43145,-2.12386 4.98976,-4.08957 7.54071,-6.06483 0.75872,-0.58475 1.50044,-1.19067 2.25144,-1.78506 l -2.16657,-2.20133 v 0 c 0,0 -1.40821,1.24895 -2.12984,1.85379 -2.47121,2.05128 -4.9975,4.03641 -7.42342,6.1426 -1.40017,1.14718 -2.80739,2.27448 -4.25124,3.36622 -0.72745,0.55006 -1.08094,0.84156 -1.81969,1.31587 -0.17643,0.11327 -0.36267,0.21047 -0.54401,0.31571 -0.0701,0.0178 -0.13806,0.0494 -0.21026,0.0533 -0.24218,0.013 -0.48314,-0.21335 -0.72769,-0.21463 -0.16269,-0.0583 -0.32695,-0.11463 -0.48863,-0.17537 -0.0635,-0.0239 -0.24675,-0.11202 -0.18846,-0.0772 1.97343,1.17817 3.17041,1.78624 2.1155,1.24604 -0.70145,-0.51446 -1.4202,-1.00563 -1.98045,-1.68682 -1.02212,-1.0754 -2.0212,-2.17537 -3.16748,-3.12394 -1.61493,-1.41052 -3.36205,-2.64494 -5.12172,-3.86723 -1.32915,-0.94612 -2.62856,-1.92905 -3.86873,-2.9898 z"
       sodipodi:nodetypes="cccccscccccccsccssccccccccccc" />
    <path
       style="fill:currentColor;fill-opacity:1;stroke-width:1;stroke-dasharray:none"
       id="path82"
       d="m 94.793641,172.67203 c 1.024536,-1.30534 2.411857,-2.28024 3.877122,-3.03603 0.405199,-0.20901 0.827768,-0.38246 1.241653,-0.57369 0.945564,-0.23029 1.448534,-0.47608 2.426784,-0.24973 0.36321,0.084 1.37593,0.57079 1.0212,0.45611 -0.52411,-0.16943 -1.02255,-0.83211 -1.53131,-0.62101 -0.3634,0.15079 0.47703,0.63293 0.64387,0.98925 0.16413,0.35055 0.22619,0.74037 0.33929,1.11055 -2.7e-4,0.38893 0.0494,0.78114 -0.001,1.16679 -0.16041,1.22653 -0.8177,2.32743 -1.37301,3.40328 -0.70793,1.37155 -0.41483,0.75217 -1.00517,2.14672 -0.34764,0.99655 -0.535162,2.03689 -0.544454,3.09293 -0.0088,1.00488 0.139604,2.01137 0.269244,3.00473 0,0 2.51508,1.23964 2.51508,1.23964 v 0 c -0.28373,-2.06917 -0.51118,-3.9508 0.17895,-5.98205 0.53739,-1.31136 0.31369,-0.84302 0.97609,-2.13624 0.57224,-1.11721 1.24671,-2.24619 1.44287,-3.51062 0.0633,-0.40808 0.026,-0.82551 0.039,-1.23826 -0.16312,-0.62106 -0.35847,-1.77536 -0.91101,-2.23807 -0.46493,-0.38934 -2.90135,-2.29846 -4.2937,-2.51183 -1.00499,-0.154 -1.513022,0.10411 -2.468284,0.3721 -0.417275,0.19761 -0.841949,0.38029 -1.251823,0.59283 -1.517777,0.78705 -2.951692,1.76193 -4.125439,3.01279 z" />
    <path
       style="fill:currentColor;fill-opacity:1;stroke-width:1;stroke-dasharray:none"
       id="path83"
       d="m 100.86749,187.35399 c 0.2264,0.80375 0.38006,1.6252 0.53351,2.44523 0,0 2.57665,1.25684 2.57665,1.25684 v 0 c -0.13366,-0.81161 -0.28257,-1.61965 -0.4293,-2.42879 z" />
  </g>
</svg>
