<?xml version="1.0" encoding="UTF-8" standalone="no"?>
<!-- Created with Inkscape (http://www.inkscape.org/) -->

<svg
   width="100"
   height="100"
   viewBox="0 0 26.458333 26.458333"
   version="1.1"
   id="svg1"
   inkscape:version="1.3 (0e150ed6c4, 2023-07-21)"
   sodipodi:docname="arrow.svg"
   xmlns:inkscape="http://www.inkscape.org/namespaces/inkscape"
   xmlns:sodipodi="http://sodipodi.sourceforge.net/DTD/sodipodi-0.dtd"
   xmlns="http://www.w3.org/2000/svg"
   xmlns:svg="http://www.w3.org/2000/svg">
  <sodipodi:namedview
     id="namedview1"
     pagecolor="#ffffff"
     bordercolor="#000000"
     borderopacity="0.25"
     inkscape:showpageshadow="2"
     inkscape:pageopacity="0.0"
     inkscape:pagecheckerboard="0"
     inkscape:deskcolor="#d1d1d1"
     inkscape:document-units="mm"
     inkscape:zoom="4.0970529"
     inkscape:cx="20.624581"
     inkscape:cy="66.999379"
     inkscape:window-width="1920"
     inkscape:window-height="1009"
     inkscape:window-x="-8"
     inkscape:window-y="-8"
     inkscape:window-maximized="1"
     inkscape:current-layer="layer1" />
  <defs
     id="defs1" />
  <g
     inkscape:label="Layer 1"
     inkscape:groupmode="layer"
     id="layer1">
    <path
       style="fill:currentColor;stroke-width:1"
       id="path3"
       d="m 4.1670943,13.980827 c 1.4119034,-0.156002 2.8365074,-0.177084 4.2554014,-0.213781 2.0726063,-0.03274 4.1456243,-0.05067 6.2163613,0.06095 0.917288,0.04945 1.452553,0.101766 2.341658,0.178277 0.986522,0.107523 1.983659,0.168563 2.956333,0.374917 0,0 -2.272518,-1.709821 -2.272518,-1.709821 v 0 c -0.877997,-0.10755 -1.763547,-0.10491 -2.646942,-0.1055 -1.733034,-0.0051 -3.467046,-1.92e-4 -5.1997857,-0.03494 -0.5657318,-0.01134 -1.1311813,-0.03415 -1.6968552,-0.04808 -0.5027038,-0.01238 -1.0055018,-0.02057 -1.5082527,-0.03085 -1.6153633,-0.039 -3.2336153,-0.07119 -4.843888,-0.21378 z" />
    <path
       style="fill:currentColor;stroke-width:1"
       id="path4"
       d="m 16.964918,9.1637407 c 0.0464,0.051526 0.08989,0.1058392 0.139209,0.1545781 0.280313,0.2769989 0.607319,0.503733 0.929933,0.7276272 0.154977,0.107555 0.827704,0.558887 0.966607,0.652265 0.706642,0.464795 1.410353,0.934112 2.124743,1.386981 0.109159,0.0692 0.216574,0.1413 0.328156,0.20652 0.886788,0.518329 1.777833,1.02934 2.666749,1.54401 0.08413,0.04639 0.167557,0.09409 0.252399,0.13917 0.06898,0.03665 0.140122,0.06916 0.209007,0.105995 0.05368,0.02871 0.211369,0.120924 0.158587,0.09059 -0.785211,-0.451306 -1.569446,-0.904318 -2.355878,-1.353496 -0.0394,-0.0225 0.07721,0.04774 0.114641,0.07339 0.03539,0.02426 0.06914,0.05084 0.103711,0.07625 0.0013,8.46e-4 0.139501,0.09551 0.156784,0.101663 0.01458,0.0052 0.03117,0.0016 0.04643,-10e-4 0.0041,-6.88e-4 0.01191,-0.01154 0.0092,-0.0084 -0.189914,0.21445 -0.09734,0.113859 -0.403938,0.373063 -0.154178,0.118187 -0.309109,0.235398 -0.462534,0.354561 -0.233771,0.181566 -0.463686,0.368103 -0.699038,0.547614 -1.030517,0.786008 -2.084223,1.537533 -3.167273,2.24908 -0.170265,0.104074 -0.340531,0.208148 -0.510796,0.312222 0,0 2.254559,1.429515 2.254559,1.429515 v 0 c 0.140771,-0.123824 0.281541,-0.247648 0.422311,-0.371472 0.69626,-0.595026 1.396181,-1.184724 2.155659,-1.699517 0.815804,-0.552973 0.940018,-0.58768 1.77638,-1.032562 0.186882,-0.09941 0.373211,-0.199847 0.559817,-0.299771 0.199852,-0.109957 0.834584,-0.379613 0.744289,-0.728722 -0.01628,-0.06293 -0.114883,-0.12575 -0.158029,-0.159238 -0.03775,-0.02321 -0.0771,-0.044 -0.113237,-0.06965 -0.04031,-0.0286 -0.0731,-0.06767 -0.115675,-0.09278 -1.060052,-0.625206 -2.083262,-1.245578 -3.164372,-1.804983 0.698784,0.406657 1.397088,0.814142 2.096353,1.219971 0.128732,0.07471 -0.256747,-0.150654 -0.384746,-0.226615 -0.738489,-0.438254 -1.464631,-0.897223 -2.167876,-1.390459 -0.41476,-0.287057 -0.834656,-0.567263 -1.240059,-0.867549 -0.06987,-0.05176 -0.373873,-0.280715 -0.460595,-0.360297 -0.03577,-0.03282 -0.0646,-0.07249 -0.09689,-0.108729 z" />
  </g>
</svg>
