<svg
   width="512"
   height="512"
   viewBox="0 0 512 512"
   version="1.1"
   id="svg1"
   xml:space="preserve"
   inkscape:export-filename="bitmap.svg"
   inkscape:export-xdpi="96"
   inkscape:export-ydpi="96"
   xmlns:inkscape="http://www.inkscape.org/namespaces/inkscape"
   xmlns:sodipodi="http://sodipodi.sourceforge.net/DTD/sodipodi-0.dtd"
   xmlns="http://www.w3.org/2000/svg"
   xmlns:svg="http://www.w3.org/2000/svg"><sodipodi:namedview
     id="namedview1"
     pagecolor="#ffffff"
     bordercolor="#000000"
     borderopacity="0.25"
     inkscape:showpageshadow="2"
     inkscape:pageopacity="0.0"
     inkscape:pagecheckerboard="0"
     inkscape:deskcolor="#d1d1d1"
     inkscape:document-units="px" /><defs
     id="defs1" /><g
     inkscape:label="Layer 1"
     inkscape:groupmode="layer"
     id="layer1"><path
       style="fill:currentColor"
       d="m 251.15191,511.85881 c -0.34064,-0.0422 -1.96642,-0.26178 -3.61285,-0.48798 -1.64643,-0.2262 -3.45801,-0.51484 -4.02575,-0.64141 -0.56773,-0.12658 -1.31095,-0.35347 -1.65159,-0.5042 -0.34064,-0.15073 -1.3161,-0.4727 -2.16771,-0.71549 -0.8516,-0.24278 -2.23261,-0.67128 -3.06892,-0.95221 -0.83631,-0.28093 -2.04404,-0.77512 -2.68384,-1.09819 -0.63979,-0.32308 -1.76712,-0.87185 -2.50518,-1.2195 -0.73805,-0.34765 -1.80642,-0.90656 -2.37416,-1.24202 -0.56773,-0.33546 -1.40385,-0.81697 -1.85803,-1.07003 -0.45419,-0.25306 -1.1045,-0.6 -1.44514,-0.77098 -0.34064,-0.17098 -1.03741,-0.59715 -1.54837,-0.94706 -0.51096,-0.3499 -1.68476,-1.0207 -2.60845,-1.49067 -0.92368,-0.46996 -2.22431,-1.2165 -2.89028,-1.65897 -0.66596,-0.44248 -1.7209,-1.07501 -2.3443,-1.40563 -0.6234,-0.33063 -1.43127,-0.80324 -1.79527,-1.05026 -0.364,-0.24701 -1.44356,-0.83104 -2.39902,-1.29783 -0.95546,-0.4668 -1.85442,-0.98996 -1.99769,-1.16259 -0.14327,-0.17263 -0.35793,-0.31388 -0.47702,-0.31388 -0.11909,0 -0.3632,-0.12744 -0.54246,-0.28321 -0.17926,-0.15576 -0.88334,-0.59171 -1.56462,-0.96876 -0.68128,-0.37706 -1.56972,-0.87671 -1.9743,-1.11032 -0.40459,-0.23362 -1.22607,-0.70347 -1.82551,-1.04411 -0.59944,-0.34064 -2.23763,-1.29288 -3.64043,-2.1161 -1.40279,-0.82321 -2.59903,-1.49675 -2.65831,-1.49675 -0.0593,0 -0.73776,-0.40376 -1.50774,-0.89724 -0.76998,-0.49348 -2.32899,-1.38359 -3.46445,-1.97803 -1.13547,-0.59444 -2.3432,-1.28999 -2.68384,-1.54566 -0.34064,-0.25568 -1.1303,-0.74499 -1.75481,-1.08737 -0.62451,-0.34238 -2.11094,-1.16401 -3.30318,-1.82584 -1.19224,-0.66184 -3.00382,-1.71043 -4.02574,-2.3302 -1.02192,-0.61977 -2.69416,-1.59053 -3.71608,-2.15724 -1.02192,-0.56672 -1.90449,-1.08833 -1.96126,-1.15915 -0.0568,-0.0708 -0.42838,-0.28808 -0.82579,-0.48281 -0.39742,-0.19473 -1.32644,-0.69395 -2.06449,-1.10937 -0.73805,-0.41542 -1.48127,-0.86906 -1.65159,-1.00809 -0.17032,-0.13903 -0.44902,-0.31437 -0.61934,-0.38966 -0.17032,-0.0753 -0.58838,-0.31904 -0.92902,-0.54168 -0.34064,-0.22264 -0.99095,-0.61267 -1.44514,-0.86672 -0.45419,-0.25406 -1.26761,-0.69796 -1.80759,-0.98645 -0.53999,-0.28849 -1.56191,-0.83724 -2.27094,-1.21945 -0.70902,-0.3822 -1.56784,-0.90262 -1.90848,-1.15648 -0.34064,-0.25386 -0.9445,-0.62765 -1.34192,-0.83064 -0.39741,-0.20299 -0.76902,-0.42579 -0.82579,-0.49511 -0.0568,-0.0693 -0.75298,-0.45119 -1.54713,-0.8486 -0.79415,-0.39741 -1.86253,-1.00128 -2.37416,-1.34192 -0.51164,-0.34064 -1.31502,-0.82866 -1.7853,-1.08449 -0.47027,-0.25584 -1.07414,-0.58337 -1.34191,-0.72786 -0.26778,-0.14449 -0.85848,-0.50186 -1.31267,-0.79414 -0.45418,-0.29229 -1.4761,-0.88369 -2.27093,-1.31422 -0.79483,-0.43054 -1.58449,-0.8954 -1.75481,-1.03304 -0.17032,-0.13763 -0.58838,-0.39125 -0.92902,-0.5636 -0.34064,-0.17235 -1.08386,-0.56615 -1.65159,-0.87512 -0.56774,-0.30897 -1.58966,-0.89305 -2.27094,-1.29796 -0.68128,-0.40491 -1.37804,-0.85165 -1.54836,-0.99276 -0.17032,-0.1411 -1.12734,-0.68247 -2.12672,-1.20304 -0.99937,-0.52057 -2.46637,-1.34264 -3.26,-1.82681 -0.79362,-0.48418 -1.69463,-1.01069 -2.00225,-1.17003 -0.30761,-0.15935 -1.07026,-0.61864 -1.69477,-1.02065 -0.6245,-0.40201 -1.45704,-0.89873 -1.85007,-1.10381 -0.39304,-0.20509 -0.78632,-0.37288 -0.87397,-0.37288 -0.0876,0 -1.1791,-0.62709 -2.42546,-1.39353 -1.24636,-0.76644 -3.2953,-1.99739 -4.55322,-2.73545 -1.25791,-0.73805 -2.91064,-1.67237 -3.67273,-2.07626 -0.76209,-0.4039 -2.11329,-1.17034 -3.00266,-1.7032 -0.88936,-0.53287 -1.65676,-0.96885 -1.70531,-0.96885 -0.0486,0 -0.53323,-0.30193 -1.07704,-0.67096 -0.54381,-0.36903 -1.16995,-0.7795 -1.39141,-0.91216 -0.22146,-0.13267 -1.35234,-0.72638 -2.51306,-1.31937 -1.16072,-0.59299 -2.26672,-1.25088 -2.45777,-1.46199 -0.19105,-0.21111 -0.42178,-0.38384 -0.51273,-0.38384 -0.0909,0 -0.62243,-0.26949 -1.18106,-0.59887 -0.55863,-0.32938 -1.56141,-0.90154 -2.22841,-1.27147 -0.66699,-0.36992 -1.39851,-0.7719 -1.62561,-0.89328 -0.22709,-0.12138 -0.877405,-0.49382 -1.445138,-0.82764 -0.567734,-0.33382 -1.512496,-0.91652 -2.099472,-1.2949 -0.586976,-0.37837 -1.118486,-0.68795 -1.181134,-0.68795 -0.06265,0 -0.82102,-0.41806 -1.685273,-0.92902 -0.864252,-0.51096 -1.627381,-0.92902 -1.69584,-0.92902 -0.06846,0 -0.316264,-0.17386 -0.550675,-0.38635 -0.234412,-0.21249 -1.355222,-0.87561 -2.490689,-1.4736 -1.135467,-0.59799 -2.29674,-1.21901 -2.580607,-1.38004 -0.283867,-0.16103 -0.770386,-0.45015 -1.081154,-0.64249 -0.310768,-0.19234 -1.59469,-0.9768 -2.853161,-1.74324 -1.258471,-0.76644 -2.370421,-1.39353 -2.470999,-1.39353 -0.100579,0 -0.628243,-0.26378 -1.172586,-0.58617 -0.544344,-0.32239 -1.519439,-0.92625 -2.166878,-1.34191 -0.647439,-0.41566 -1.219343,-0.75575 -1.270898,-0.75575 -0.05155,0 -0.907717,-0.48774 -1.902583,-1.08386 -0.994866,-0.59612 -2.513253,-1.46058 -3.374195,-1.92104 -0.860941,-0.46045 -1.983406,-1.10809 -2.494366,-1.4392 -0.510961,-0.33111 -1.516999,-0.9075 -2.23564,-1.28085 -0.718642,-0.37336 -1.601209,-0.90172 -1.961262,-1.17413 -0.360052,-0.27242 -1.67656,-1.02207 -2.925574,-1.6659 -1.249014,-0.64383 -2.54964,-1.37916 -2.89028,-1.63406 -0.34064,-0.2549 -0.758699,-0.52433 -0.929019,-0.59873 -0.17032,-0.0744 -0.68128,-0.36885 -1.135467,-0.65435 -0.454187,-0.2855 -0.965147,-0.58215 -1.135467,-0.65922 -0.17032,-0.0771 -0.838761,-0.49576 -1.485425,-0.93042 -0.646663,-0.43466 -1.26168,-0.7903 -1.366704,-0.7903 -0.105023,0 -1.294619,-0.84433 -2.643547,-1.8763 -1.348927,-1.03197 -3.234279,-2.58807 -4.189672,-3.45801 -0.955393,-0.86994 -2.620318,-2.55718 -3.699834,-3.74942 -1.079515,-1.19224 -2.782955,-3.27422 -3.785421,-4.62661 -1.002466,-1.35239 -1.822666,-2.53874 -1.822666,-2.63632 0,-0.0976 -0.253099,-0.57041 -0.562442,-1.05073 -0.309344,-0.48032 -0.666427,-1.05911 -0.793519,-1.2862 -0.127092,-0.2271 -0.533074,-0.97031 -0.902182,-1.65159 -0.369108,-0.68128 -0.747979,-1.31969 -0.841937,-1.41869 -0.09396,-0.099 -0.128364,-0.29066 -0.07646,-0.42592 0.05191,-0.13526 -0.09471,-0.41704 -0.325806,-0.62618 -0.231098,-0.20915 -0.420178,-0.53309 -0.420178,-0.71987 0,-0.18679 -0.08564,-0.42787 -0.190319,-0.53574 -0.104676,-0.10787 -0.438175,-0.89289 -0.741109,-1.74449 -0.302935,-0.8516 -0.723913,-2.10577 -0.935508,-2.78705 -0.211594,-0.68128 -0.581989,-1.93546 -0.823099,-2.78706 -0.24111,-0.8516 -0.492905,-1.68772 -0.559544,-1.85804 -0.06664,-0.17032 -0.140798,-0.37935 -0.164798,-0.46451 -0.024,-0.0852 -0.06596,-0.22451 -0.09326,-0.30967 -0.02729,-0.0852 -0.06675,-0.24774 -0.08768,-0.36128 -0.02093,-0.11355 -0.100076,-0.53161 -0.175872,-0.92902 -0.0758,-0.39742 -0.279618,-1.79094 -0.452938,-3.09673 -0.17332,-1.30579 -0.371957,-3.25673 -0.441415,-4.33542 -0.06946,-1.07869 -0.169999,-39.07555 -0.223425,-84.43747 -0.07414,-62.94989 -0.03904,-82.95275 0.148243,-84.48908 0.134959,-1.10708 0.317265,-2.01287 0.405124,-2.01287 0.08786,0 0.223247,-0.42347 0.300862,-0.94104 0.07762,-0.51758 0.273434,-0.99182 0.435152,-1.05388 0.161719,-0.0621 0.239016,-0.20185 0.171772,-0.31066 -0.06724,-0.1088 0.01703,-0.35454 0.18727,-0.5461 0.170243,-0.19155 0.426304,-0.74311 0.569024,-1.22568 0.14272,-0.48257 0.337687,-0.87741 0.433261,-0.87741 0.09557,0 0.17377,-0.14422 0.17377,-0.3205 0,-0.17627 0.511885,-1.09779 1.137521,-2.04781 0.625636,-0.95002 1.912439,-2.50572 2.859562,-3.45712 0.947123,-0.95139 2.126941,-2.0505 2.621817,-2.44244 0.494875,-0.39195 0.996433,-0.71686 1.114572,-0.72202 0.118139,-0.005 0.191573,-0.12129 0.163186,-0.25806 -0.02839,-0.13678 0.08111,-0.24868 0.243315,-0.24868 0.162209,0 0.422022,-0.1271 0.577362,-0.28244 0.15534,-0.15534 0.487132,-0.3474 0.737316,-0.4268 0.250185,-0.0794 0.454881,-0.23102 0.454881,-0.33691 0,-0.1059 0.108786,-0.19254 0.241746,-0.19254 0.13296,0 0.806499,-0.2692 1.496752,-0.59822 0.690253,-0.32902 1.626614,-0.75261 2.080801,-0.94132 0.454186,-0.18871 1.169356,-0.52337 1.589265,-0.7437 0.419909,-0.22033 0.954095,-0.40059 1.187079,-0.40059 0.232985,0 0.423609,-0.0797 0.423609,-0.17704 0,-0.0974 0.575437,-0.23719 1.278751,-0.3107 0.703313,-0.0735 1.3304,-0.21375 1.393527,-0.31166 0.06313,-0.0979 0.757677,-0.24588 1.543444,-0.32884 0.785767,-0.083 1.575432,-0.22774 1.754813,-0.32172 0.17938,-0.094 1.348066,-0.27083 2.59708,-0.393 1.249014,-0.12217 5.708303,-0.22259 9.909532,-0.22316 4.201228,-5.6e-4 9.235433,0.1106 11.187121,0.24704 1.951688,0.13643 3.509628,0.31099 3.46209,0.38791 -0.04754,0.0769 0.747848,0.20512 1.767527,0.28489 1.019678,0.0798 1.853961,0.22224 1.853961,0.31661 0,0.0944 0.484027,0.23815 1.075617,0.31951 0.591589,0.0814 1.218676,0.22641 1.393527,0.32233 0.174851,0.0959 0.968224,0.48968 1.763051,0.87504 0.794827,0.38536 1.766058,0.87612 2.158291,1.09058 0.392233,0.21445 0.822133,0.48282 0.955335,0.59637 0.133201,0.11354 0.453805,0.3458 0.712453,0.51612 0.258649,0.17032 1.129374,0.96595 1.934946,1.76807 0.805571,0.80212 1.72689,1.77759 2.047375,2.16771 0.320484,0.39012 0.914325,1.2435 1.319647,1.89639 0.405322,0.65289 0.816645,1.18708 0.914053,1.18708 0.09741,0 0.177677,0.11613 0.178377,0.25806 6.99e-4,0.14193 0.131296,0.50728 0.290215,0.81189 0.158918,0.3046 0.351531,0.83879 0.428028,1.18708 0.0765,0.34829 0.212733,0.63325 0.302745,0.63325 0.09001,0 0.223082,0.37161 0.295709,0.82579 0.07263,0.45419 0.215688,0.8258 0.317913,0.8258 0.102224,0 0.248645,0.3716 0.325379,0.82579 0.07673,0.45419 0.218568,0.8258 0.315178,0.8258 0.0966,0 0.23851,0.4192 0.31534,0.93155 0.0768,0.51236 0.22188,0.98235 0.32233,1.04443 0.10044,0.0621 0.18262,0.32827 0.18262,0.59153 0,0.26326 0.13383,0.58973 0.2974,0.72548 0.16358,0.13575 0.24608,0.38056 0.18336,0.54403 -0.0627,0.16346 2.1e-4,0.43488 0.13986,0.60315 0.13965,0.16827 0.20371,0.49793 0.14234,0.73257 -0.0655,0.25064 4.6e-4,0.46961 0.16,0.53083 0.15344,0.0589 0.33472,0.61464 0.41677,1.27768 0.0799,0.6454 0.21679,1.26637 0.30429,1.37991 0.0875,0.11355 0.22217,0.70229 0.29928,1.30832 0.0771,0.60603 0.2243,1.25634 0.32711,1.44514 0.1028,0.1888 0.28818,0.99358 0.41195,1.78841 0.12377,0.79483 0.31538,2.18836 0.4258,3.09673 0.11042,0.90837 0.28574,1.85044 0.38961,2.09349 0.10387,0.24304 0.25414,1.10444 0.33393,1.91423 0.0798,0.80978 0.22577,1.5222 0.3244,1.58316 0.0986,0.061 0.17932,0.47147 0.17932,0.91225 0,0.44078 0.0989,0.86257 0.21986,0.93731 0.12093,0.0747 0.19403,0.3822 0.16245,0.68326 -0.0316,0.30107 0.0289,0.68669 0.13446,0.85694 0.10553,0.17025 0.31619,1.14566 0.46814,2.16758 0.15194,1.02192 0.32763,2.2761 0.3904,2.78706 0.0628,0.51096 0.18611,1.02192 0.27407,1.13547 0.088,0.11354 0.22602,1.11236 0.30681,2.21958 0.0813,1.11402 0.23046,1.96148 0.33403,1.89747 0.10294,-0.0636 0.18797,0.37754 0.18896,0.98036 9.9e-4,0.60283 0.0601,1.58143 0.13136,2.17469 0.0713,0.59326 0.19622,1.03746 0.27768,0.98712 0.0815,-0.0504 0.20469,0.71034 0.27385,1.6904 0.0692,0.98007 0.22211,1.8783 0.33988,1.99607 0.11777,0.11777 0.21413,0.57258 0.21413,1.0107 0,0.43811 0.10258,1.46468 0.22796,2.28125 0.12537,0.81658 0.3187,1.59617 0.4296,1.73242 0.11091,0.13626 0.18126,0.55432 0.15635,0.92902 -0.0249,0.37471 0.006,0.82064 0.0695,0.99096 0.0632,0.17032 0.17518,0.72773 0.24896,1.23869 0.0738,0.51096 0.26893,1.76514 0.43368,2.78706 0.16474,1.02192 0.39265,2.60125 0.50646,3.50962 0.11381,0.90838 0.29306,1.8374 0.39834,2.06449 0.10527,0.22709 0.24104,0.83095 0.30172,1.34192 0.0607,0.51096 0.23182,1.95093 0.38031,3.19995 0.1485,1.24901 0.3209,2.13158 0.3831,1.96126 0.0622,-0.17032 0.18049,0.7587 0.26286,2.06449 0.0824,1.30578 0.23678,2.40512 0.34316,2.44297 0.10637,0.0378 0.1934,0.5201 0.1934,1.07167 0,0.55157 0.10183,1.06579 0.22629,1.14271 0.12446,0.0769 0.18674,0.40933 0.1384,0.73867 -0.0507,0.34555 0.0282,0.69517 0.18661,0.82663 0.15097,0.12529 0.28003,0.61127 0.2868,1.07994 0.007,0.46867 0.104,1.31663 0.21607,1.88437 0.11207,0.56773 0.34256,1.91481 0.5122,2.9935 0.16964,1.07869 0.42079,2.84383 0.55811,3.92252 0.13732,1.0787 0.30814,2.05417 0.37959,2.16771 0.0714,0.11355 0.19726,1.04257 0.27958,2.06449 0.0823,1.02192 0.20966,1.95094 0.28298,2.06449 0.0733,0.11354 0.25369,0.99611 0.4008,1.96126 0.14711,0.96514 0.31926,2.17287 0.38255,2.68383 0.0633,0.51096 0.23649,1.06837 0.38488,1.23869 0.16467,0.189 0.32763,1.21468 0.41819,2.63222 0.0816,1.2774 0.21931,2.32255 0.306,2.32255 0.0867,0 0.22412,0.92901 0.30539,2.06448 0.0813,1.13547 0.21965,2.06449 0.30752,2.06449 0.0879,0 0.22554,0.78966 0.30594,1.75481 0.0804,0.96515 0.21796,1.75481 0.3057,1.75481 0.0877,0 0.22535,0.81133 0.30581,1.80296 0.0805,0.99162 0.22012,1.89742 0.31035,2.01287 0.0902,0.11546 0.22753,0.8562 0.30512,1.6461 0.0776,0.7899 0.21825,1.53311 0.31261,1.65159 0.0944,0.11847 0.23659,0.93019 0.31608,1.80382 0.0906,0.99535 0.25785,1.68246 0.44802,1.84029 0.16691,0.13852 0.28501,0.44566 0.26244,0.68251 -0.0226,0.23686 0.0279,0.61646 0.11224,0.84355 0.0843,0.2271 0.22876,0.64515 0.32102,0.92902 0.0923,0.28387 0.2381,0.70193 0.3241,0.92902 0.086,0.22709 0.17463,0.45935 0.19696,0.51612 0.0223,0.0568 0.11164,0.40516 0.19847,0.77418 0.0868,0.36903 0.24464,0.67096 0.3507,0.67096 0.10605,0 0.14488,0.0776 0.0863,0.17239 -0.0586,0.0948 -0.002,0.51287 0.12568,0.92901 0.12771,0.41615 0.33363,0.75664 0.45759,0.75664 0.12395,0 0.36053,-0.20903 0.52572,-0.46451 0.16519,-0.25548 0.31527,-0.53419 0.33352,-0.61935 0.0183,-0.0852 0.0558,-0.22451 0.0834,-0.30967 0.0276,-0.0852 0.0384,-0.2271 0.0239,-0.31542 -0.0145,-0.0883 0.10939,-0.21267 0.27532,-0.27634 0.16737,-0.0642 0.36248,-0.52124 0.43825,-1.0265 0.0751,-0.5009 0.21153,-0.91073 0.30315,-0.91073 0.0916,0 0.23124,-0.60387 0.31028,-1.34192 0.079,-0.73805 0.21839,-1.34192 0.30968,-1.34192 0.0913,0 0.23063,-0.60386 0.30967,-1.34191 0.079,-0.73806 0.21682,-1.34192 0.30618,-1.34192 0.0894,0 0.20446,-0.44128 0.25578,-0.98063 0.0513,-0.53934 0.20237,-1.77029 0.33566,-2.73544 0.1333,-0.96515 0.33443,-2.15807 0.44696,-2.65095 0.11253,-0.49287 0.26187,-1.60769 0.33187,-2.47738 0.07,-0.86969 0.23004,-1.71088 0.35565,-1.86933 0.1256,-0.15844 0.35027,-1.22681 0.49926,-2.37416 0.14899,-1.14734 0.37393,-2.96864 0.49986,-4.04734 0.12593,-1.07869 0.29466,-2.00771 0.37496,-2.06448 0.0803,-0.0568 0.21305,-1.00902 0.29501,-2.1161 0.082,-1.10708 0.22323,-2.01288 0.31393,-2.01288 0.0907,0 0.23136,-0.92833 0.31257,-2.06297 0.0812,-1.13463 0.22061,-2.01788 0.30978,-1.96277 0.0892,0.0551 0.22863,-0.82889 0.3099,-1.96443 0.0813,-1.13554 0.22069,-2.10969 0.30981,-2.16477 0.0891,-0.0551 0.2289,-0.96012 0.31063,-2.01122 0.0817,-1.05109 0.20636,-2.00398 0.27693,-2.11753 0.0706,-0.11354 0.13777,-0.2529 0.14932,-0.30967 0.0115,-0.0568 0.0781,-0.24258 0.14788,-0.4129 0.0698,-0.17032 0.16905,-0.86708 0.22057,-1.54836 0.0515,-0.68128 0.20425,-2.07481 0.3394,-3.09673 0.13516,-1.02192 0.32172,-2.00641 0.41459,-2.18775 0.0929,-0.18134 0.23539,-1.18003 0.31669,-2.21932 0.0813,-1.03929 0.2198,-1.88961 0.30777,-1.88961 0.088,0 0.22644,-0.97547 0.30771,-2.16771 0.0813,-1.19224 0.21953,-2.16771 0.30727,-2.16771 0.0877,0 0.22606,-0.92976 0.3074,-2.06614 0.0813,-1.13637 0.22063,-2.1111 0.30955,-2.16606 0.0889,-0.0549 0.22822,-1.02968 0.30956,-2.16605 0.0948,-1.32489 0.23247,-2.06614 0.38367,-2.06614 0.13749,0 0.25414,-0.40884 0.2798,-0.98063 0.0242,-0.53935 0.0707,-1.39869 0.10322,-1.90965 0.0326,-0.51096 0.16539,-1.02192 0.29516,-1.13547 0.12977,-0.11355 0.292,-0.71741 0.36052,-1.34191 0.0685,-0.62451 0.15873,-1.41418 0.20048,-1.75482 0.0417,-0.34064 0.23496,-1.73417 0.42936,-3.09673 0.1944,-1.36256 0.43761,-3.12769 0.54047,-3.92252 0.10285,-0.79483 0.30482,-2.32771 0.44881,-3.4064 0.14399,-1.07869 0.3227,-2.05431 0.39713,-2.16804 0.0744,-0.11373 0.2027,-1.06799 0.28504,-2.12059 0.0823,-1.05259 0.22181,-1.95837 0.30994,-2.01283 0.0881,-0.0545 0.22592,-1.00469 0.30623,-2.11161 0.0844,-1.16336 0.26012,-2.14325 0.41644,-2.32226 0.15823,-0.18118 0.33084,-1.16625 0.41602,-2.37416 0.0801,-1.13546 0.21988,-2.15894 0.31069,-2.2744 0.0908,-0.11545 0.23095,-1.02125 0.31141,-2.01287 0.0805,-0.99163 0.21442,-1.80296 0.29768,-1.80296 0.0833,0 0.22461,-0.58063 0.31411,-1.2903 0.0895,-0.70967 0.14387,-1.40643 0.12084,-1.54837 -0.023,-0.14193 0.0551,-0.25806 0.17362,-0.25806 0.11853,0 0.21772,-0.34838 0.22043,-0.77418 0.003,-0.4258 0.0994,-1.14579 0.21492,-1.59998 0.11549,-0.45418 0.29307,-1.3832 0.39461,-2.06448 0.10155,-0.68128 0.29391,-1.7961 0.42748,-2.47738 0.13356,-0.68128 0.32538,-1.40001 0.42625,-1.59718 0.10087,-0.19717 0.1834,-0.54006 0.1834,-0.762 0,-0.22193 0.10165,-0.46634 0.22589,-0.54312 0.12424,-0.0768 0.18217,-0.36829 0.12874,-0.6478 -0.0567,-0.29657 0.0107,-0.54956 0.16175,-0.60754 0.143,-0.0549 0.32099,-0.64829 0.39763,-1.32564 0.0763,-0.67447 0.21506,-1.2263 0.30834,-1.2263 0.0933,0 0.23029,-0.45753 0.30447,-1.01673 0.0742,-0.55919 0.22459,-1.04693 0.33425,-1.08385 0.10965,-0.0369 0.2597,-0.64524 0.33344,-1.35181 0.0737,-0.70657 0.20409,-1.2414 0.28967,-1.1885 0.0856,0.0529 0.21561,-0.14291 0.28895,-0.43511 0.0733,-0.2922 0.41225,-1.10445 0.75314,-1.805 0.34089,-0.70055 0.70311,-1.41307 0.80494,-1.58339 0.10182,-0.17032 0.39315,-0.75096 0.64739,-1.29031 0.25424,-0.53934 0.53869,-0.98063 0.63211,-0.98063 0.0934,0 0.16985,-0.17917 0.16985,-0.39815 0,-0.21898 0.13935,-0.5375 0.30967,-0.70782 0.17032,-0.17032 0.30968,-0.36276 0.30968,-0.42765 0,-0.0649 0.16257,-0.30666 0.36128,-0.53727 0.19871,-0.23062 0.96515,-1.09105 1.7032,-1.91206 0.73806,-0.82102 1.7305,-1.79184 2.20544,-2.15738 0.47494,-0.36554 1.26461,-0.8704 1.75481,-1.1219 0.49021,-0.2515 0.93774,-0.50883 0.99452,-0.57185 0.0568,-0.063 0.53146,-0.32351 1.05485,-0.57889 0.5234,-0.25537 1.04621,-0.46432 1.1618,-0.46432 0.1156,0 0.32583,-0.13935 0.46718,-0.30967 0.14135,-0.17032 0.47788,-0.30967 0.74785,-0.30967 0.26996,0 0.49084,-0.0862 0.49084,-0.1916 0,-0.10537 0.51096,-0.25543 1.13547,-0.33346 0.62451,-0.078 1.13547,-0.2142 1.13547,-0.30261 0,-0.0884 0.83611,-0.22692 1.85803,-0.3078 1.02192,-0.0809 1.85804,-0.21281 1.85804,-0.29317 0,-0.0804 1.69546,-0.25797 3.76769,-0.39469 2.07222,-0.13671 8.08762,-0.24816 13.36754,-0.24766 5.27992,5e-4 11.15597,0.10999 13.05787,0.24332 1.90191,0.13333 3.45802,0.30841 3.45802,0.38907 0,0.0807 0.83611,0.21206 1.85803,0.292 1.02192,0.0799 1.85804,0.22667 1.85804,0.32605 0,0.0994 0.55741,0.24376 1.23869,0.32084 0.68128,0.0771 1.23869,0.22104 1.23869,0.31992 0,0.0989 0.14793,0.17979 0.32873,0.17979 0.18079,0 0.56493,0.1858 0.85363,0.41289 0.2887,0.2271 0.64421,0.4129 0.79002,0.4129 0.1458,0 0.57032,0.16258 0.94337,0.36129 0.37304,0.1987 0.80527,0.47741 0.96049,0.61934 0.15523,0.14194 0.37513,0.25806 0.48868,0.25806 0.11354,0 0.32778,0.11613 0.47608,0.25806 0.14829,0.14194 0.49004,0.39742 0.75943,0.56774 0.26939,0.17032 1.25625,1.09108 2.19301,2.04614 0.93676,0.95506 1.7032,1.79625 1.7032,1.86931 0,0.0731 0.32665,0.48945 0.72588,0.92531 0.39924,0.43587 0.93288,1.24369 1.18588,1.79516 0.25299,0.55147 0.52282,1.00267 0.59962,1.00267 0.0768,0 0.20086,0.27871 0.27567,0.61935 0.0748,0.34064 0.21417,0.61935 0.30968,0.61935 0.0955,0 0.23462,0.27764 0.30915,0.61697 0.0745,0.33934 0.22127,0.66998 0.32608,0.73476 0.10481,0.0648 0.19056,0.29809 0.19056,0.51849 0,0.22039 0.0726,0.40071 0.16142,0.40071 0.0888,0 0.18179,0.24609 0.20668,0.54686 0.0249,0.30077 0.13725,0.6577 0.24969,0.79318 0.11243,0.13547 0.13633,0.31441 0.0531,0.39764 -0.0832,0.0832 0.005,0.23882 0.19611,0.34576 0.20252,0.11334 0.40533,0.58049 0.48623,1.11998 0.0763,0.50906 0.20918,0.92555 0.2952,0.92555 0.086,0 0.22081,0.48541 0.29951,1.0787 0.0787,0.59328 0.21734,1.17391 0.30808,1.2903 0.0908,0.11638 0.22588,0.6105 0.30029,1.09803 0.0744,0.48753 0.22173,1.04495 0.32739,1.23869 0.10566,0.19375 0.29885,0.95613 0.42931,1.69419 0.13047,0.73805 0.31226,1.8244 0.40397,2.41411 0.0917,0.58971 0.2294,1.17354 0.30596,1.29741 0.0765,0.12387 0.22651,0.84186 0.33325,1.59553 0.10673,0.75367 0.29645,1.49369 0.4216,1.64448 0.12514,0.15079 0.15833,0.27417 0.0737,0.27417 -0.0846,0 -0.042,0.13467 0.0946,0.29927 0.13661,0.16461 0.22061,0.60589 0.18668,0.98063 -0.0379,0.4183 0.0272,0.66418 0.16844,0.63686 0.14716,-0.0284 0.28369,0.63199 0.37863,1.83155 0.0817,1.03182 0.2169,1.76533 0.30052,1.63003 0.0836,-0.1353 0.21788,0.71005 0.29836,1.87856 0.0805,1.1685 0.22428,2.22014 0.31956,2.33698 0.0953,0.11683 0.24011,0.95564 0.32186,1.86401 0.0817,0.90838 0.22007,1.74449 0.30741,1.85804 0.0873,0.11355 0.22583,0.99611 0.30777,1.96126 0.0819,0.96515 0.2193,1.84772 0.30523,1.96126 0.0859,0.11355 0.22033,0.94251 0.29864,1.84213 0.0783,0.89963 0.24575,1.82864 0.37208,2.06449 0.12633,0.23584 0.20877,0.89331 0.18321,1.46105 -0.0265,0.58846 0.0851,1.29851 0.25948,1.65158 0.16827,0.34065 0.40672,1.50192 0.52989,2.58061 0.12316,1.0787 0.33899,2.65803 0.47962,3.50963 0.14063,0.8516 0.31568,1.64126 0.389,1.75481 0.0733,0.11355 0.20045,1.01934 0.28248,2.01287 0.082,0.99354 0.21909,1.80643 0.30457,1.80643 0.0855,0 0.22071,0.83488 0.30053,1.8553 0.0798,1.02041 0.22109,1.90224 0.31392,1.95961 0.0928,0.0574 0.23532,1.03407 0.31666,2.17045 0.0813,1.13637 0.22209,2.06613 0.31279,2.06613 0.0907,0 0.23064,0.8767 0.31098,1.94822 0.0946,1.26148 0.23782,1.98344 0.40638,2.04812 0.16414,0.063 0.3148,0.75397 0.40779,1.87031 0.0811,0.97372 0.23207,1.82269 0.33546,1.88659 0.10339,0.0639 0.19202,0.55198 0.19697,1.08462 0.005,0.53265 0.10217,1.38651 0.21607,1.89747 0.11389,0.51096 0.29536,1.95094 0.40326,3.19995 0.1079,1.24902 0.28938,2.48434 0.40328,2.74516 0.1139,0.26082 0.20709,0.88243 0.20709,1.38134 0,0.49892 0.0992,0.96844 0.22047,1.04338 0.12126,0.0749 0.19369,0.44705 0.16096,0.82691 -0.0327,0.37985 0.007,0.75756 0.0892,0.83935 0.0818,0.0818 0.1487,0.55128 0.1487,1.04332 0,0.49203 0.0809,0.89461 0.17979,0.89461 0.0989,0 0.24646,0.76644 0.32794,1.7032 0.0815,0.93676 0.25102,1.82753 0.37675,1.9795 0.12573,0.15196 0.20398,0.67669 0.17388,1.16606 -0.0301,0.48936 0.0446,0.95115 0.16603,1.02618 0.12142,0.075 0.22075,0.49708 0.22075,0.93786 0,0.44078 0.0808,0.85134 0.17947,0.91234 0.0987,0.061 0.24684,0.97214 0.32919,2.02473 0.0823,1.0526 0.21061,2.00686 0.28504,2.12059 0.0744,0.11373 0.24636,1.0429 0.38208,2.06482 0.13572,1.02192 0.34565,2.60125 0.46652,3.50962 0.12087,0.90837 0.30642,1.97675 0.41233,2.37416 0.10591,0.39741 0.34114,1.93029 0.52274,3.4064 0.1816,1.47611 0.42687,3.12157 0.54505,3.65658 0.11818,0.53501 0.15923,1.06277 0.0912,1.17281 -0.068,0.11004 -0.0292,0.25842 0.0862,0.32974 0.1154,0.0713 0.20982,0.57733 0.20982,1.12446 0,0.59621 0.11469,1.08996 0.28625,1.23234 0.15743,0.13066 0.35232,0.85461 0.43309,1.60878 0.0808,0.75417 0.22626,1.51799 0.32332,1.69737 0.0971,0.17938 0.23472,0.95323 0.30591,1.71967 0.0712,0.76644 0.20294,1.39353 0.29278,1.39353 0.0898,0 0.2261,0.55458 0.30278,1.2324 0.0767,0.67783 0.22804,1.28717 0.33634,1.3541 0.1083,0.0669 0.19748,0.3717 0.19818,0.67725 7e-4,0.30555 0.14006,0.82165 0.30968,1.14688 0.16962,0.32523 0.3084,0.72516 0.3084,0.88873 0,0.16357 0.19079,0.71622 0.42398,1.2281 0.29479,0.6471 0.53069,0.91077 0.77418,0.86531 0.20167,-0.0376 0.48906,-0.45907 0.6776,-0.99363 0.18007,-0.51054 0.43555,-1.18978 0.56773,-1.50943 0.13219,-0.31964 0.24174,-0.69125 0.24345,-0.82579 0.002,-0.13454 0.13698,-0.61623 0.30061,-1.07042 0.16363,-0.45418 0.30158,-1.12772 0.30656,-1.49675 0.005,-0.36902 0.0946,-0.67096 0.19908,-0.67096 0.10451,0 0.25404,-0.59782 0.33229,-1.3285 0.0957,-0.89315 0.24407,-1.36757 0.4529,-1.44771 0.20417,-0.0783 0.27667,-0.29692 0.21152,-0.63768 -0.0545,-0.28517 -0.0187,-0.5682 0.0796,-0.62896 0.0983,-0.0608 0.17876,-0.43016 0.17876,-0.82087 0,-0.39071 0.0836,-0.71039 0.18567,-0.71039 0.10211,0 0.25272,-1.16275 0.33469,-2.58388 0.082,-1.42114 0.22173,-2.62882 0.31059,-2.68374 0.0889,-0.0549 0.2288,-1.09858 0.31099,-2.31926 0.0822,-1.22069 0.21371,-2.26588 0.29226,-2.32265 0.0786,-0.0568 0.26011,-0.98579 0.40346,-2.06448 0.14335,-1.0787 0.30903,-2.42578 0.36818,-2.99351 0.0592,-0.56773 0.18429,-1.12671 0.2781,-1.24216 0.0938,-0.11546 0.23574,-1.04447 0.31541,-2.06449 0.0797,-1.02001 0.21718,-1.94746 0.30555,-2.06101 0.0884,-0.11355 0.22719,-1.08902 0.30848,-2.16771 0.0813,-1.0787 0.24047,-2.07739 0.35375,-2.21932 0.11327,-0.14194 0.13675,-0.25806 0.0522,-0.25806 -0.0846,0 -0.0552,-0.11873 0.0652,-0.26384 0.12043,-0.14511 0.28345,-1.00445 0.36227,-1.90965 0.0788,-0.9052 0.21464,-1.73872 0.30182,-1.85226 0.0872,-0.11355 0.22538,-0.94967 0.30712,-1.85804 0.0817,-0.90837 0.2201,-1.74449 0.30745,-1.85804 0.0873,-0.11354 0.22664,-1.08901 0.30953,-2.16771 0.0829,-1.07869 0.22564,-2.00894 0.31722,-2.06721 0.0916,-0.0583 0.23302,-1.24278 0.31429,-2.63222 0.0813,-1.38945 0.21884,-2.52627 0.3057,-2.52627 0.0869,0 0.22421,-0.88397 0.30521,-1.96439 0.081,-1.08042 0.22903,-2.01492 0.32894,-2.07667 0.0999,-0.0618 0.18166,-0.55063 0.18166,-1.0864 0,-0.55974 0.14084,-1.17519 0.33108,-1.44679 0.19553,-0.27917 0.29414,-0.72429 0.24087,-1.08727 -0.0496,-0.33803 -0.0128,-0.66244 0.0818,-0.72092 0.0946,-0.0585 0.17203,-0.55986 0.17203,-1.11419 0,-0.55433 0.0808,-1.05779 0.17947,-1.11879 0.0987,-0.061 0.24652,-0.97228 0.32847,-2.02506 0.0819,-1.05278 0.22131,-2.00704 0.30968,-2.12059 0.0884,-0.11355 0.22455,-1.02467 0.30261,-2.02473 0.0781,-1.00005 0.27587,-2.57938 0.43958,-3.50962 0.16372,-0.93024 0.29779,-2.03425 0.29794,-2.45335 1.6e-4,-0.4191 0.0849,-0.81428 0.18827,-0.87817 0.10339,-0.0639 0.25378,-0.92873 0.33422,-1.92184 0.0804,-0.99311 0.22959,-1.90987 0.33146,-2.03725 0.10187,-0.12739 0.2439,-1.25725 0.31563,-2.51082 0.0948,-1.65741 0.19858,-2.25304 0.38031,-2.1833 0.18239,0.07 0.22353,-0.1787 0.15226,-0.92038 -0.0602,-0.62625 -0.009,-1.07087 0.13248,-1.15851 0.12744,-0.0788 0.23014,-0.6896 0.23014,-1.36874 0,-0.68004 0.092,-1.22651 0.20645,-1.22651 0.11355,0 0.20645,-0.44903 0.20645,-0.99784 0,-0.5488 0.0587,-1.05648 0.13033,-1.12816 0.0717,-0.0717 0.16036,-0.43555 0.19706,-0.80859 0.0367,-0.37304 0.16915,-1.28212 0.29434,-2.02018 0.12518,-0.73805 0.33844,-2.17803 0.4739,-3.19995 0.13546,-1.02192 0.30628,-1.95094 0.3796,-2.06449 0.0733,-0.11354 0.20056,-1.02071 0.28274,-2.01593 0.0822,-0.99522 0.22255,-1.8547 0.31194,-1.90994 0.0894,-0.0553 0.22861,-1.00611 0.30937,-2.11304 0.0808,-1.10692 0.22422,-2.10951 0.3188,-2.22799 0.0946,-0.11847 0.23647,-0.86169 0.31532,-1.65159 0.0788,-0.7899 0.2665,-1.61555 0.41699,-1.83479 0.1505,-0.21924 0.33503,-0.94131 0.41007,-1.6046 0.075,-0.66329 0.21169,-1.25249 0.30367,-1.30933 0.092,-0.0568 0.23109,-0.75153 0.30916,-1.54375 0.0781,-0.79221 0.2137,-1.44039 0.30143,-1.44039 0.0877,0 0.2242,-0.55741 0.30327,-1.23869 0.0791,-0.68128 0.22754,-1.23869 0.32994,-1.23869 0.1024,0 0.18618,-0.27322 0.18618,-0.60716 0,-0.33394 0.0822,-0.65796 0.18263,-0.72003 0.10044,-0.0621 0.24549,-0.53207 0.32232,-1.04443 0.0768,-0.51236 0.21636,-0.93156 0.31005,-0.93156 0.0937,0 0.23386,-0.42347 0.31148,-0.94104 0.0776,-0.51758 0.2681,-0.98977 0.4233,-1.04933 0.1552,-0.0596 0.23527,-0.23055 0.17792,-0.37999 -0.0573,-0.14944 -0.005,-0.33304 0.11626,-0.408 0.12129,-0.075 0.22053,-0.31661 0.22053,-0.537 0,-0.22039 0.081,-0.40071 0.18006,-0.40071 0.099,0 0.23752,-0.35932 0.30774,-0.79848 0.0702,-0.43917 0.26733,-1.06625 0.43801,-1.39353 0.17069,-0.32728 0.31091,-0.71118 0.31161,-0.85311 7e-4,-0.14193 0.0792,-0.25806 0.1745,-0.25806 0.0953,0 0.35076,-0.37054 0.56774,-0.82343 0.21697,-0.45288 0.4541,-0.82449 0.52695,-0.82579 0.0728,-0.001 0.18803,-0.22378 0.25595,-0.49439 0.0679,-0.27062 0.40534,-0.79376 0.74984,-1.16254 0.34449,-0.36878 0.69382,-0.78872 0.77629,-0.93321 0.0825,-0.14449 0.70181,-0.8523 1.37631,-1.57291 0.67449,-0.72061 1.47871,-1.49601 1.78715,-1.7231 0.30843,-0.2271 0.76665,-0.55225 1.01826,-0.72257 0.25161,-0.17032 0.5788,-0.4258 0.7271,-0.56774 0.14829,-0.14193 0.36253,-0.25806 0.47608,-0.25806 0.11354,0 0.33,-0.11612 0.48102,-0.25806 0.15102,-0.14193 0.97055,-0.60882 1.82117,-1.03754 0.85063,-0.42871 1.71466,-0.77709 1.92007,-0.77418 0.2054,0.003 0.32266,-0.0769 0.26057,-0.17737 -0.0621,-0.10047 0.48984,-0.24721 1.22651,-0.3261 0.73667,-0.0789 1.3394,-0.22198 1.3394,-0.31796 0,-0.096 0.83612,-0.23993 1.85804,-0.31987 1.02192,-0.0799 1.85804,-0.20995 1.85804,-0.2889 0,-0.0789 1.60255,-0.25359 3.56123,-0.38809 2.63704,-0.18109 21.91466,-0.24408 74.28256,-0.24272 70.72132,0.002 70.72132,0.002 71.17315,0.42276 l 0.45182,0.42094 v 16.0802 c 0,14.68828 -0.0296,16.10978 -0.34171,16.42191 -0.18794,0.18794 -0.56559,0.42683 -0.83923,0.53087 -0.29011,0.1103 -9.70128,0.18916 -22.57408,0.18916 -14.58008,0 -22.07656,0.0701 -22.07656,0.20644 0,0.11355 -0.22899,0.20645 -0.50886,0.20645 -0.2918,0 -0.60002,0.17034 -0.72257,0.39933 -0.14619,0.27316 -0.21371,24.04329 -0.21371,75.23377 0,70.89146 -0.019,74.8679 -0.36129,75.46922 l -0.36128,0.63477 -18.31995,10e-4 c -17.03783,10e-4 -18.34901,-0.0236 -18.73521,-0.35425 -0.41462,-0.35501 -0.41526,-0.4694 -0.41526,-75.122 0,-66.20721 -0.0354,-74.79587 -0.30967,-75.02346 -0.17032,-0.14135 -0.30967,-0.43375 -0.30967,-0.64978 0,-0.27126 -0.19161,-0.4311 -0.61935,-0.51665 -0.34064,-0.0681 -0.61934,-0.20516 -0.61934,-0.30451 0,-0.0994 -1.83482,-0.18064 -4.07736,-0.18064 h -4.07736 v 75.61179 75.61179 l -0.46451,0.46451 -0.46451,0.4645 H 324.99204 306.653 l -0.22261,-0.4645 c -0.12244,-0.25548 -0.27801,-0.63606 -0.34573,-0.84573 -0.0677,-0.20966 -0.12538,-32.67886 -0.12815,-72.15377 -0.004,-62.81989 -0.0429,-71.82255 -0.30851,-72.17331 -0.1669,-0.22041 -0.30346,-0.64729 -0.30346,-0.94863 0,-0.30134 -0.17918,-0.71005 -0.39818,-0.90825 -0.3497,-0.31647 -0.48793,-0.3279 -1.13514,-0.0939 -0.52134,0.18851 -0.97867,0.6187 -1.56308,1.4703 -0.45437,0.6621 -0.82612,1.38671 -0.82612,1.61023 0,0.22353 -0.0821,0.40642 -0.1824,0.40642 -0.10032,0 -0.24881,0.62709 -0.32998,1.39353 -0.0812,0.76644 -0.23307,1.49803 -0.33756,1.62575 -0.10448,0.12772 -0.24871,1.12641 -0.3205,2.21932 -0.0718,1.09291 -0.20303,1.9871 -0.29165,1.9871 -0.0886,0 -0.22613,0.74526 -0.30559,1.65613 -0.0795,0.91086 -0.22519,1.70601 -0.32386,1.76699 -0.0987,0.061 -0.1794,0.37861 -0.1794,0.70585 0,0.32724 -0.0929,0.6524 -0.20644,0.72257 -0.11355,0.0702 -0.20645,0.34888 -0.20645,0.61935 0,0.27046 -0.0984,0.55256 -0.21864,0.62688 -0.12025,0.0743 -0.19464,0.33528 -0.1653,0.57992 0.0293,0.24463 -0.0485,0.63059 -0.17301,0.85768 -0.12449,0.2271 -0.29332,1.04128 -0.37518,1.8093 -0.0819,0.76802 -0.22163,1.44139 -0.31061,1.49638 -0.089,0.055 -0.22651,0.65773 -0.30563,1.33942 -0.0791,0.68168 -0.21814,1.28535 -0.30895,1.34147 -0.0908,0.0561 -0.23044,0.75271 -0.31031,1.54799 -0.0799,0.79528 -0.22076,1.44596 -0.31309,1.44596 -0.0923,0 -0.2333,0.6981 -0.31326,1.55134 -0.0799,0.85324 -0.21994,1.59743 -0.31109,1.65376 -0.0911,0.0563 -0.23041,0.70659 -0.30949,1.44503 -0.0791,0.73844 -0.22573,1.39326 -0.32588,1.45515 -0.10015,0.0619 -0.18209,0.46318 -0.18209,0.89174 0,0.42857 -0.0659,0.8451 -0.14642,0.92563 -0.0805,0.0805 -0.11935,0.52154 -0.0862,0.98002 0.037,0.51284 -0.0558,0.96622 -0.24133,1.17828 -0.16583,0.18959 -0.35542,0.6472 -0.42132,1.01691 -0.0659,0.36972 -0.16105,0.83423 -0.21146,1.03225 -0.0504,0.19801 -0.15802,0.84899 -0.23914,1.44661 -0.0811,0.59762 -0.22224,1.13278 -0.3136,1.18925 -0.0914,0.0565 -0.23069,0.70555 -0.3096,1.44241 -0.0789,0.73686 -0.21464,1.33975 -0.30162,1.33975 -0.087,0 -0.22337,0.69614 -0.3031,1.54698 -0.0797,0.85084 -0.22271,1.59504 -0.31773,1.65376 -0.095,0.0587 -0.23779,0.73289 -0.31726,1.49813 -0.0795,0.76525 -0.21717,1.48426 -0.30598,1.59781 -0.0888,0.11354 -0.22724,0.73785 -0.30761,1.38735 -0.0804,0.64949 -0.2665,1.28079 -0.41361,1.40288 -0.14711,0.12209 -0.33291,0.79841 -0.41288,1.50293 -0.08,0.70452 -0.22799,1.3834 -0.32892,1.50863 -0.10094,0.12522 -0.24407,0.94396 -0.31807,1.81943 -0.074,0.87546 -0.19981,1.48616 -0.27956,1.35712 -0.0797,-0.12905 -0.21065,0.35284 -0.29089,1.07085 -0.0802,0.71801 -0.14456,1.487 -0.14293,1.70886 0.002,0.22186 -0.0731,0.50057 -0.16596,0.61935 -0.0929,0.11878 -0.22683,0.58757 -0.29762,1.04175 -0.0708,0.45419 -0.27487,1.52256 -0.45353,2.37416 -0.17865,0.8516 -0.43521,2.16818 -0.57013,2.92574 -0.13492,0.75756 -0.31498,1.44658 -0.40014,1.53116 -0.0852,0.0846 -0.15484,0.41153 -0.15484,0.72654 0,0.31502 -0.0804,0.62247 -0.17876,0.68324 -0.0983,0.0608 -0.13401,0.34458 -0.0793,0.63071 0.0547,0.28613 -0.0488,0.83263 -0.22998,1.21446 -0.18119,0.38182 -0.39109,1.35766 -0.46645,2.16852 -0.0754,0.81087 -0.21096,1.4743 -0.30133,1.4743 -0.0904,0 -0.22858,0.65238 -0.30715,1.44973 -0.0786,0.79734 -0.21813,1.49624 -0.31014,1.55311 -0.092,0.0569 -0.23098,0.74974 -0.30882,1.53972 -0.0779,0.78999 -0.20995,1.39406 -0.29357,1.34238 -0.0836,-0.0517 -0.21034,0.39143 -0.2816,0.98469 -0.0713,0.59325 -0.13038,1.42703 -0.13137,1.85283 -9.8e-4,0.4258 -0.0825,0.77418 -0.18106,0.77418 -0.0986,0 -0.23687,0.34838 -0.30727,0.77418 -0.0704,0.4258 -0.25388,1.44388 -0.40772,2.26241 -0.15385,0.81852 -0.39815,1.63092 -0.54289,1.80532 -0.14474,0.17441 -0.21448,0.50331 -0.15496,0.73089 0.0595,0.22759 0.024,0.46582 -0.0789,0.52941 -0.10289,0.0636 -0.18707,0.38335 -0.18707,0.71059 0,0.32724 -0.0807,0.64485 -0.17932,0.70581 -0.0986,0.0609 -0.2436,0.7632 -0.32217,1.56054 -0.0786,0.79735 -0.21687,1.44973 -0.30733,1.44973 -0.0905,0 -0.26741,0.81289 -0.39323,1.80642 -0.12582,0.99353 -0.34273,2.50319 -0.48201,3.35479 -0.13929,0.8516 -0.31865,1.59482 -0.39859,1.65159 -0.0799,0.0568 -0.21242,0.7316 -0.2944,1.49962 -0.082,0.76802 -0.2237,1.44254 -0.31494,1.49893 -0.0912,0.0564 -0.23255,0.72496 -0.31402,1.48572 -0.0815,0.76075 -0.26268,1.49774 -0.40269,1.63776 -0.14001,0.14001 -0.21125,0.48118 -0.15831,0.75814 0.053,0.27697 -0.005,0.5664 -0.12962,0.64319 -0.12424,0.0768 -0.22589,0.45928 -0.22589,0.84999 0,0.39071 -0.0831,0.71039 -0.18476,0.71039 -0.10163,0 -0.23607,0.34838 -0.29877,0.77418 -0.0627,0.4258 -0.26565,1.47094 -0.451,2.32254 -0.18536,0.8516 -0.44125,2.10578 -0.56866,2.78706 -0.1274,0.68128 -0.29615,1.28514 -0.375,1.34192 -0.0788,0.0568 -0.21181,0.75353 -0.29547,1.54836 -0.0837,0.79483 -0.23024,1.49557 -0.32573,1.5572 -0.0955,0.0616 -0.22975,0.80485 -0.29836,1.65159 -0.0686,0.84674 -0.20198,1.72533 -0.29637,1.95242 -0.0944,0.2271 -0.24077,0.59871 -0.32529,0.8258 -0.0845,0.22709 -0.13345,0.57611 -0.10873,0.77559 0.0247,0.19948 -0.0894,0.41424 -0.2536,0.47725 -0.16419,0.063 -0.35704,0.48044 -0.42855,0.92761 -0.0715,0.44718 -0.22181,0.81305 -0.33402,0.81305 -0.1122,0 -0.20401,0.18581 -0.20401,0.4129 0,0.22709 -0.0855,0.4129 -0.19004,0.4129 -0.10453,0 -0.2549,0.29524 -0.33415,0.6561 -0.0793,0.36086 -0.4798,1.29876 -0.89009,2.08423 -0.4103,0.78547 -0.94517,1.62827 -1.1886,1.87289 -0.24344,0.24462 -0.79242,0.90928 -1.21997,1.47701 -0.42755,0.56773 -1.26962,1.50278 -1.87127,2.07788 -0.60165,0.5751 -1.34203,1.22541 -1.64529,1.44514 -0.30326,0.21973 -0.65722,0.49568 -0.78657,0.61324 -0.12935,0.11755 -0.72432,0.51239 -1.32214,0.87741 -0.59783,0.36501 -1.17094,0.66367 -1.27357,0.66367 -0.10264,0 -0.44963,0.13021 -0.77109,0.28936 -0.32145,0.15915 -0.93599,0.43785 -1.36565,0.61934 -0.42965,0.1815 -0.90744,0.32999 -1.06176,0.32999 -0.15432,0 -0.33051,0.13009 -0.39152,0.2891 -0.061,0.159 -0.48901,0.35297 -0.95111,0.43104 -0.46209,0.0781 -0.84017,0.21756 -0.84017,0.30998 0,0.0924 -0.55741,0.23272 -1.23869,0.31179 -0.68128,0.0791 -1.23869,0.22755 -1.23869,0.32995 0,0.10793 -4.03439,0.18617 -9.59986,0.18617 -5.44252,0 -9.59986,-0.0793 -9.59986,-0.183 0,-0.10066 -0.41855,-0.24578 -0.93012,-0.32249 -0.51156,-0.0767 -1.1851,-0.27249 -1.49675,-0.43507 -0.31165,-0.16257 -0.77566,-0.29616 -1.03114,-0.29685 -0.2747,-7.6e-4 -0.46451,-0.12782 -0.46451,-0.31095 0,-0.17204 -0.18351,-0.30967 -0.4129,-0.30967 -0.22709,0 -0.41289,-0.0984 -0.41289,-0.21863 0,-0.12025 -0.0821,-0.16793 -0.18233,-0.10595 -0.10028,0.062 -0.82027,-0.21897 -1.59998,-0.62432 -0.7797,-0.40535 -1.7428,-0.93483 -2.14022,-1.17663 -0.39741,-0.24179 -0.84533,-0.55923 -0.99537,-0.70541 -0.15005,-0.14619 -0.33727,-0.26579 -0.41605,-0.26579 -0.0788,0 -0.69924,-0.53707 -1.37879,-1.1935 -0.67954,-0.65642 -1.64668,-1.68078 -2.14919,-2.27635 -0.50251,-0.59558 -1.1296,-1.40065 -1.39353,-1.78906 -0.26393,-0.38841 -0.47987,-0.80402 -0.47987,-0.9236 0,-0.11957 -0.0887,-0.2174 -0.19709,-0.2174 -0.10841,0 -0.2581,-0.32515 -0.33265,-0.72257 -0.0746,-0.39741 -0.21702,-0.72257 -0.31659,-0.72257 -0.0996,0 -0.24046,-0.3716 -0.31308,-0.82579 -0.0726,-0.45419 -0.21198,-0.8258 -0.30968,-0.8258 -0.0977,0 -0.23704,-0.3716 -0.30967,-0.82579 -0.0726,-0.45419 -0.20738,-0.82579 -0.29946,-0.82579 -0.0921,0 -0.23121,-0.42545 -0.30919,-0.94544 -0.078,-0.51999 -0.26948,-0.99444 -0.42555,-1.05433 -0.16798,-0.0645 -0.28501,-0.41577 -0.28682,-0.86099 -0.002,-0.41365 -0.13091,-1.30951 -0.28719,-1.99079 -0.15627,-0.68128 -0.34721,-1.77141 -0.42429,-2.42251 -0.0771,-0.65111 -0.22656,-1.23723 -0.33216,-1.30249 -0.1056,-0.0653 -0.192,-0.4793 -0.192,-0.92009 0,-0.44078 -0.0856,-0.85434 -0.19025,-0.91901 -0.10464,-0.0647 -0.25481,-0.72046 -0.33372,-1.45732 -0.0789,-0.73686 -0.21763,-1.33974 -0.30826,-1.33974 -0.0906,0 -0.23008,-0.69677 -0.30988,-1.54837 -0.0798,-0.8516 -0.21616,-1.54836 -0.30303,-1.54836 -0.0869,0 -0.22323,-0.69677 -0.30303,-1.54837 -0.0798,-0.8516 -0.23007,-1.54836 -0.33393,-1.54836 -0.10386,0 -0.18883,-0.36612 -0.18883,-0.81361 0,-0.44749 -0.0929,-0.87103 -0.20645,-0.9412 -0.11355,-0.0702 -0.20645,-0.39533 -0.20645,-0.72257 0,-0.32724 -0.0798,-0.6443 -0.17734,-0.70458 -0.0975,-0.0603 -0.23989,-0.64641 -0.31633,-1.30249 -0.0764,-0.65609 -0.22132,-1.47159 -0.32194,-1.81223 -0.10063,-0.34064 -0.29462,-1.17676 -0.4311,-1.85804 -0.13647,-0.68128 -0.31451,-1.74965 -0.39564,-2.37416 -0.0811,-0.6245 -0.2672,-1.73933 -0.41349,-2.47738 -0.1463,-0.73805 -0.34662,-1.52772 -0.44516,-1.75481 -0.0985,-0.2271 -0.1772,-0.5987 -0.1748,-0.8258 0.002,-0.22709 -0.0565,-0.73805 -0.13099,-1.13546 -0.0744,-0.39742 -0.20625,-0.81548 -0.29288,-0.92902 -0.0866,-0.11355 -0.22422,-0.7938 -0.30574,-1.51168 -0.0853,-0.75088 -0.26062,-1.34836 -0.41288,-1.40678 -0.16267,-0.0624 -0.32009,-0.6931 -0.40851,-1.63667 -0.0791,-0.84431 -0.2194,-1.53511 -0.31173,-1.53511 -0.0923,0 -0.23408,-0.67353 -0.31498,-1.49675 -0.0809,-0.82321 -0.21759,-1.58965 -0.30373,-1.7032 -0.0861,-0.11355 -0.22099,-0.79764 -0.29965,-1.52022 -0.0787,-0.72257 -0.22108,-1.46579 -0.31648,-1.65159 -0.0954,-0.1858 -0.26753,-0.89523 -0.38254,-1.57651 -0.11501,-0.68128 -0.35806,-1.9819 -0.54011,-2.89028 -0.18206,-0.90837 -0.38848,-2.11609 -0.45872,-2.68383 -0.0702,-0.56773 -0.22994,-1.16128 -0.35488,-1.319 -0.12495,-0.15772 -0.1996,-0.49723 -0.16589,-0.75447 0.0337,-0.25723 -0.0371,-0.52851 -0.15735,-0.60282 -0.12025,-0.0743 -0.21864,-0.49577 -0.21864,-0.93656 0,-0.44078 -0.0819,-0.85207 -0.18209,-0.91396 -0.10015,-0.0619 -0.24689,-0.71769 -0.3261,-1.45733 -0.0792,-0.73963 -0.21861,-1.34478 -0.30978,-1.34478 -0.0912,0 -0.23105,-0.69677 -0.31085,-1.54837 -0.0798,-0.8516 -0.21684,-1.54836 -0.30452,-1.54836 -0.0877,0 -0.21969,-0.57657 -0.29334,-1.28127 -0.0737,-0.70469 -0.22625,-1.37359 -0.33909,-1.48643 -0.11284,-0.11284 -0.20568,-0.62786 -0.20631,-1.1445 -6.3e-4,-0.51664 -0.0991,-1.29186 -0.21869,-1.72272 -0.11965,-0.43085 -0.35652,-1.49922 -0.52637,-2.37415 -0.16986,-0.87494 -0.35705,-1.86949 -0.41598,-2.21013 -0.0589,-0.34064 -0.15271,-0.7587 -0.20838,-0.92902 -0.0557,-0.17032 -0.072,-0.31862 -0.0363,-0.32956 0.0357,-0.0109 -0.0493,-0.15753 -0.18894,-0.32578 -0.13963,-0.16824 -0.3509,-0.90251 -0.4695,-1.6317 -0.1186,-0.7292 -0.32957,-1.92968 -0.46881,-2.66773 -0.13925,-0.73805 -0.31137,-1.43482 -0.38249,-1.54836 -0.0711,-0.11355 -0.19449,-0.83256 -0.27415,-1.59781 -0.0797,-0.76524 -0.21949,-1.43749 -0.31073,-1.49388 -0.0912,-0.0564 -0.23059,-0.7067 -0.30967,-1.44514 -0.0791,-0.73844 -0.21843,-1.38875 -0.30967,-1.44514 -0.0912,-0.0564 -0.23245,-0.73091 -0.31379,-1.49892 -0.0813,-0.76802 -0.22037,-1.4893 -0.30895,-1.60285 -0.0886,-0.11355 -0.22794,-0.85676 -0.30968,-1.65159 -0.0817,-0.79483 -0.24374,-1.56127 -0.36002,-1.7032 -0.11628,-0.14193 -0.14222,-0.25806 -0.0576,-0.25806 0.0846,0 0.0599,-0.11613 -0.055,-0.25806 -0.1148,-0.14193 -0.2761,-0.86192 -0.35844,-1.59998 -0.0823,-0.73805 -0.20882,-1.43482 -0.28106,-1.54836 -0.0722,-0.11355 -0.24021,-0.81031 -0.37327,-1.54837 -0.13306,-0.73805 -0.38952,-1.99223 -0.5699,-2.78705 -0.18038,-0.79483 -0.38599,-1.81675 -0.45691,-2.27094 -0.0709,-0.45418 -0.20016,-0.91869 -0.2872,-1.03224 -0.087,-0.11355 -0.22481,-0.83483 -0.30615,-1.60285 -0.0813,-0.76801 -0.22036,-1.44119 -0.30894,-1.49593 -0.0886,-0.0547 -0.22709,-0.75702 -0.30779,-1.5606 -0.0814,-0.81082 -0.25579,-1.50291 -0.39179,-1.55509 -0.14586,-0.056 -0.21234,-0.37425 -0.16423,-0.78631 0.0445,-0.38075 -0.021,-0.75518 -0.14537,-0.83207 -0.12441,-0.0769 -0.22619,-0.40753 -0.22619,-0.73477 0,-0.32723 -0.0834,-0.64654 -0.18542,-0.70956 -0.10197,-0.063 -0.25076,-0.76528 -0.33062,-1.56055 -0.0799,-0.79528 -0.22869,-1.44596 -0.33071,-1.44596 -0.10202,0 -0.18687,-0.39483 -0.18855,-0.87741 -0.002,-0.48257 -0.13178,-1.43481 -0.28911,-2.11609 -0.15734,-0.68128 -0.35047,-1.72633 -0.42919,-2.32232 -0.0787,-0.59599 -0.2166,-1.12904 -0.30641,-1.18454 -0.0898,-0.0555 -0.22615,-0.52012 -0.30298,-1.03247 -0.0768,-0.51236 -0.21503,-0.93156 -0.30711,-0.93156 -0.0921,0 -0.22678,-0.34838 -0.29935,-0.77418 -0.0726,-0.4258 -0.4096,-1.13912 -0.74896,-1.58514 -0.33935,-0.44603 -0.61701,-0.88625 -0.61701,-0.97827 0,-0.092 -0.16,-0.35418 -0.35556,-0.58257 -0.19555,-0.2284 -0.46652,-0.41526 -0.60214,-0.41526 -0.13562,0 -0.28537,-0.11613 -0.33277,-0.25806 -0.062,-0.18562 -0.7246,-0.25806 -2.36032,-0.25806 -1.59934,0 -2.45181,0.0906 -2.87291,0.30528 -0.32933,0.16791 -0.81233,0.50814 -1.07333,0.75607 -0.26497,0.25171 -0.5244,0.80069 -0.58743,1.24308 -0.0621,0.43576 -0.24337,1.08504 -0.40286,1.44284 -0.15948,0.3578 -0.28997,0.79909 -0.28997,0.98063 0,0.18155 -0.0929,0.33009 -0.20645,0.33009 -0.11355,0 -0.20785,0.16258 -0.20956,0.36128 -0.002,0.19871 -0.13698,0.7329 -0.30061,1.18708 -0.16362,0.45419 -0.30158,1.1687 -0.30656,1.58779 -0.005,0.4191 -0.0925,0.81357 -0.19448,0.87659 -0.10198,0.063 -0.25037,0.7614 -0.32976,1.55195 -0.0794,0.79054 -0.26885,1.54067 -0.42101,1.66696 -0.16169,0.13418 -0.33602,0.90996 -0.41947,1.86664 -0.0785,0.90037 -0.21673,1.63703 -0.30709,1.63703 -0.0904,0 -0.22986,0.83814 -0.31,1.86253 -0.0801,1.02439 -0.21996,1.90842 -0.31072,1.96452 -0.0908,0.0561 -0.22944,0.63471 -0.30817,1.28581 -0.0787,0.6511 -0.21544,1.27673 -0.30381,1.39027 -0.0884,0.11355 -0.22696,0.83241 -0.30798,1.59747 -0.081,0.76505 -0.22154,1.34514 -0.31225,1.28907 -0.0907,-0.0561 -0.23028,0.59538 -0.31015,1.44766 -0.0799,0.85227 -0.21519,1.54959 -0.30073,1.54959 -0.0855,0 -0.21887,0.64301 -0.29631,1.42891 -0.0831,0.84341 -0.26323,1.53051 -0.43958,1.67686 -0.16432,0.13638 -0.29877,0.55006 -0.29877,0.9193 0,0.36923 -0.13935,1.0663 -0.30967,1.54904 -0.17032,0.48274 -0.30967,1.23215 -0.30967,1.66536 0,0.43321 -0.0864,0.84105 -0.192,0.90632 -0.1056,0.0653 -0.25642,0.65138 -0.33515,1.30248 -0.0787,0.65111 -0.2133,1.27673 -0.29905,1.39028 -0.0857,0.11354 -0.22277,0.85676 -0.30451,1.65159 -0.0817,0.79482 -0.22665,1.54067 -0.32203,1.65742 -0.0954,0.11676 -0.2667,0.95288 -0.3807,1.85804 -0.114,0.90516 -0.30979,2.20316 -0.43509,2.88444 -0.1253,0.68128 -0.31645,1.40001 -0.42479,1.59718 -0.10833,0.19716 -0.19696,0.63296 -0.19696,0.96844 0,0.33548 -0.10165,0.67279 -0.22589,0.74957 -0.12424,0.0768 -0.18369,0.36039 -0.13211,0.63022 0.0516,0.26984 -0.0326,0.59548 -0.18701,0.72365 -0.15443,0.12817 -0.28079,0.48489 -0.28079,0.7927 0,0.30781 -0.0697,0.6293 -0.15484,0.71442 -0.0852,0.0851 -0.17523,0.35609 -0.20016,0.60214 -0.0249,0.24606 -0.13719,1.0977 -0.24948,1.89252 -0.11229,0.79483 -0.29391,1.7703 -0.4036,2.16771 -0.1097,0.39742 -0.35148,1.51224 -0.53731,2.47739 -0.18582,0.96514 -0.4343,2.06559 -0.55218,2.44544 -0.11787,0.37985 -0.29074,1.16951 -0.38415,1.75481 -0.0934,0.5853 -0.26779,1.43579 -0.3875,1.88998 -0.11971,0.45419 -0.21987,1.20925 -0.22258,1.67792 -0.003,0.4738 -0.1335,0.95883 -0.29451,1.09246 -0.16553,0.13738 -0.35142,0.85607 -0.43393,1.67769 -0.0794,0.79054 -0.2205,1.48441 -0.31357,1.54193 -0.0931,0.0575 -0.23377,0.70746 -0.31268,1.44432 -0.0789,0.73686 -0.22556,1.33974 -0.32588,1.33974 -0.10032,0 -0.18239,0.36613 -0.18239,0.81361 0,0.44749 -0.0774,0.86146 -0.17203,0.91993 -0.0946,0.0585 -0.13052,0.38912 -0.0798,0.73476 0.0557,0.37925 10e-4,0.62843 -0.13765,0.62843 -0.12854,0 -0.22988,0.34583 -0.22988,0.78451 0,0.43147 -0.0832,0.87276 -0.18495,0.98063 -0.10173,0.10787 -0.28894,0.93934 -0.41604,1.84771 -0.1271,0.90837 -0.3461,2.3948 -0.48667,3.30318 -0.14057,0.90837 -0.34587,1.79094 -0.45622,1.96126 -0.11034,0.17032 -0.17528,0.46402 -0.14429,0.65267 0.031,0.18865 -0.041,0.40316 -0.15999,0.47669 -0.11898,0.0735 -0.21633,0.49982 -0.21633,0.94731 0,0.44749 -0.085,0.81361 -0.18883,0.81361 -0.10386,0 -0.25413,0.69676 -0.33393,1.54836 -0.0798,0.8516 -0.21915,1.54837 -0.30967,1.54837 -0.0905,0 -0.23,0.6981 -0.30995,1.55134 -0.08,0.85324 -0.21995,1.59743 -0.31109,1.65376 -0.0911,0.0563 -0.23042,0.7066 -0.3095,1.44503 -0.0791,0.73844 -0.21625,1.38741 -0.30484,1.44216 -0.0886,0.0547 -0.22643,0.75058 -0.30634,1.54631 -0.0799,0.79572 -0.22873,1.49833 -0.33071,1.56136 -0.10198,0.063 -0.18542,0.38233 -0.18542,0.70957 0,0.32724 -0.0838,0.64674 -0.18613,0.71002 -0.10238,0.0633 -0.25169,0.69584 -0.3318,1.40571 -0.0801,0.70987 -0.26308,1.43002 -0.40658,1.60034 -0.1435,0.17032 -0.36576,1.05289 -0.4939,1.96127 -0.12815,0.90837 -0.33045,2.3019 -0.44956,3.09672 -0.11911,0.79483 -0.30171,1.60126 -0.40577,1.79207 -0.10406,0.1908 -0.25173,0.95724 -0.32815,1.7032 -0.0764,0.74595 -0.21163,1.35628 -0.30046,1.35628 -0.0888,0 -0.22618,0.60386 -0.30522,1.34191 -0.079,0.73806 -0.21487,1.34192 -0.30185,1.34192 -0.087,0 -0.22337,0.69614 -0.3031,1.54698 -0.0797,0.85085 -0.22271,1.59504 -0.31773,1.65376 -0.095,0.0587 -0.23705,0.70704 -0.31562,1.44069 -0.0786,0.73364 -0.27166,1.44081 -0.42909,1.57147 -0.15744,0.13066 -0.29033,0.52812 -0.29531,0.88324 -0.005,0.35512 -0.14294,1.01729 -0.30657,1.47147 -0.16362,0.45419 -0.2989,1.12773 -0.30061,1.49676 -0.002,0.36902 -0.0903,0.67095 -0.19691,0.67095 -0.10658,0 -0.25231,0.44129 -0.32382,0.98063 -0.0715,0.53935 -0.20837,1.16644 -0.30411,1.39353 -0.0958,0.2271 -0.38503,1.08644 -0.64285,1.90965 -0.25781,0.82321 -0.53464,1.49675 -0.61517,1.49675 -0.0805,0 -0.20912,0.24982 -0.28575,0.55514 -0.0766,0.30533 -0.31896,0.80741 -0.5385,1.11573 -0.21955,0.30832 -0.39917,0.71173 -0.39917,0.89648 0,0.18474 -0.13936,0.38937 -0.30968,0.45472 -0.17032,0.0654 -0.30967,0.24825 -0.30967,0.40642 0,0.15817 -0.0929,0.28759 -0.20645,0.28759 -0.11354,0 -0.20645,0.12162 -0.20645,0.27027 0,0.14865 -0.39483,0.72523 -0.8774,1.28128 -0.48258,0.55606 -1.15925,1.29378 -1.50373,1.63938 -0.34447,0.3456 -1.13414,1.07115 -1.75481,1.61233 -0.62067,0.54118 -1.24859,1.08274 -1.39538,1.20346 -0.14678,0.12072 -0.9829,0.57429 -1.85804,1.00793 -0.87513,0.43364 -2.02734,0.98368 -2.56045,1.22231 -0.53312,0.23863 -1.11376,0.43388 -1.29031,0.43388 -0.17655,0 -0.321,0.1288 -0.321,0.28623 0,0.18097 -0.34166,0.33747 -0.92901,0.42555 -0.51097,0.0766 -0.92902,0.2157 -0.92902,0.30906 0,0.0934 -0.60387,0.23442 -1.34192,0.31345 -0.73805,0.079 -1.34191,0.22922 -1.34191,0.33373 0,0.11294 -3.81032,0.19001 -9.39342,0.19001 -5.44282,0 -9.39341,-0.0783 -9.39341,-0.18617 0,-0.1024 -0.55741,-0.25088 -1.23869,-0.32995 -0.68128,-0.0791 -1.23869,-0.21938 -1.23869,-0.31179 0,-0.0924 -0.37161,-0.23082 -0.82579,-0.30755 -0.45419,-0.0767 -0.8258,-0.22501 -0.8258,-0.32949 0,-0.10449 -0.39104,-0.34644 -0.86898,-0.53768 -0.47794,-0.19123 -1.73324,-0.79173 -2.78955,-1.33443 -1.05632,-0.54271 -2.03557,-1.08075 -2.17614,-1.19566 -0.14056,-0.11491 -0.75801,-0.65171 -1.37211,-1.19289 -0.61411,-0.54118 -1.35732,-1.2253 -1.65159,-1.52026 -0.29427,-0.29497 -0.790521,-0.84706 -1.102774,-1.22688 -0.312254,-0.37982 -0.567734,-0.84853 -0.567734,-1.04159 0,-0.19306 -0.139353,-0.40449 -0.309673,-0.46984 -0.17032,-0.0654 -0.309673,-0.25336 -0.309673,-0.41778 0,-0.16443 -0.06968,-0.32992 -0.154842,-0.36777 -0.08516,-0.0378 -0.475103,-0.71913 -0.866534,-1.51396 -0.391431,-0.79482 -0.716585,-1.5182 -0.722564,-1.6075 -0.006,-0.0893 -0.118473,-0.22887 -0.249985,-0.31015 -0.131511,-0.0813 -0.304429,-0.49595 -0.38426,-0.92149 -0.07983,-0.42554 -0.238547,-0.77371 -0.3527,-0.77371 -0.114153,0 -0.158987,-0.18571 -0.09963,-0.41269 0.05936,-0.22698 0.02374,-0.46471 -0.07915,-0.5283 -0.102887,-0.0636 -0.187067,-0.38884 -0.187067,-0.72278 0,-0.33394 -0.0822,-0.60716 -0.182661,-0.60716 -0.100464,0 -0.24877,-0.53419 -0.329569,-1.18708 -0.0808,-0.65289 -0.218101,-1.27998 -0.305115,-1.39353 -0.08701,-0.11354 -0.217423,-0.8008 -0.289798,-1.52723 -0.07238,-0.72644 -0.211951,-1.4232 -0.310169,-1.54837 -0.09822,-0.12516 -0.241624,-1.01666 -0.318679,-1.98109 -0.07706,-0.96444 -0.22894,-1.84236 -0.337522,-1.95094 -0.108582,-0.10858 -0.197421,-0.49852 -0.197421,-0.86652 0,-0.368 -0.08418,-0.72112 -0.187068,-0.78471 -0.102887,-0.0636 -0.140982,-0.29184 -0.08466,-0.50723 0.05633,-0.21539 -0.03781,-0.61013 -0.209192,-0.8772 -0.17138,-0.26707 -0.377003,-1.043 -0.456938,-1.72428 -0.07994,-0.68128 -0.216428,-1.33159 -0.303316,-1.44514 -0.08689,-0.11354 -0.223919,-0.78725 -0.304512,-1.49712 -0.08059,-0.70987 -0.230295,-1.34244 -0.332669,-1.40571 -0.102374,-0.0633 -0.186135,-0.48116 -0.186135,-0.92865 0,-0.44748 -0.08347,-0.81361 -0.185496,-0.81361 -0.102023,0 -0.250804,-0.65031 -0.330626,-1.44514 -0.07982,-0.79483 -0.214971,-1.44514 -0.300332,-1.44514 -0.08536,0 -0.215617,-0.71471 -0.289458,-1.58825 -0.07384,-0.87353 -0.212761,-1.63997 -0.308711,-1.7032 -0.09595,-0.0632 -0.238052,-0.66845 -0.315782,-1.34495 -0.07773,-0.6765 -0.285351,-1.38915 -0.461377,-1.58366 -0.181429,-0.20047 -0.300207,-0.65132 -0.274238,-1.04093 0.0252,-0.378 -0.0052,-0.82663 -0.06764,-0.99695 -0.0624,-0.17032 -0.176232,-0.54193 -0.252959,-0.8258 -0.07673,-0.28386 -0.265747,-1.30578 -0.420047,-2.27093 -0.154299,-0.96515 -0.391037,-2.40513 -0.526084,-3.19995 -0.135047,-0.79483 -0.312068,-1.49159 -0.39338,-1.54837 -0.08131,-0.0568 -0.21282,-0.75096 -0.292239,-1.54264 -0.07942,-0.79167 -0.2213,-1.48844 -0.315292,-1.54836 -0.09399,-0.0599 -0.222238,-0.48056 -0.284991,-0.93474 -0.06275,-0.45419 -0.175649,-1.1045 -0.250881,-1.44514 -0.07523,-0.34064 -0.184295,-0.96773 -0.242364,-1.39353 -0.05807,-0.4258 -0.188723,-0.77418 -0.290344,-0.77418 -0.10162,0 -0.184764,-0.44903 -0.184764,-0.99784 0,-0.54881 -0.06692,-1.06475 -0.148705,-1.14654 -0.08179,-0.0818 -0.121122,-0.46888 -0.08741,-0.8602 0.03371,-0.39133 -0.03098,-0.7115 -0.143763,-0.7115 -0.112784,0 -0.243709,0.11594 -0.290944,0.25764 -0.04723,0.14171 -0.146261,-0.52535 -0.220059,-1.48234 -0.0738,-0.957 -0.214518,-1.79293 -0.312711,-1.85762 -0.09819,-0.0647 -0.239741,-0.71743 -0.314551,-1.45051 -0.07481,-0.73308 -0.228341,-1.4252 -0.341182,-1.53804 -0.11284,-0.11284 -0.205164,-0.49488 -0.205164,-0.84898 0,-0.35409 -0.130865,-1.10195 -0.290812,-1.66191 -0.159947,-0.55995 -0.353146,-1.64518 -0.42933,-2.41163 -0.07618,-0.76644 -0.210683,-1.39352 -0.298887,-1.39352 -0.0882,0 -0.221634,-0.65917 -0.296511,-1.46483 -0.07488,-0.80565 -0.227571,-1.63566 -0.339319,-1.84446 -0.111748,-0.2088 -0.203178,-0.61252 -0.203178,-0.89715 0,-0.28463 -0.08044,-0.56723 -0.178762,-0.62799 -0.09832,-0.0608 -0.137299,-0.32738 -0.08662,-0.59248 0.05417,-0.28335 -0.04233,-0.59359 -0.234135,-0.75277 -0.179552,-0.14902 -0.326274,-0.58435 -0.326274,-0.96808 0,-0.38351 -0.08456,-0.69729 -0.187916,-0.69729 -0.103354,0 -0.254497,-0.7993 -0.335874,-1.77621 -0.08138,-0.97692 -0.214763,-1.66813 -0.296414,-1.53601 -0.08165,0.13211 -0.209471,-0.61937 -0.284044,-1.66997 -0.07457,-1.0506 -0.21706,-1.96195 -0.316636,-2.02523 -0.09958,-0.0633 -0.24902,-0.71892 -0.332097,-1.45697 -0.08308,-0.73805 -0.223254,-1.43482 -0.311505,-1.54836 -0.08825,-0.11355 -0.226377,-0.78709 -0.306947,-1.49676 -0.08057,-0.70966 -0.216837,-1.2903 -0.302816,-1.2903 -0.08598,0 -0.213713,-0.61456 -0.283854,-1.36569 -0.07014,-0.75113 -0.242929,-1.50474 -0.383972,-1.67468 -0.141043,-0.16995 -0.230132,-0.61438 -0.197975,-0.98762 0.03216,-0.37325 -0.04075,-0.73994 -0.162003,-0.81489 -0.121258,-0.0749 -0.22047,-0.40399 -0.22047,-0.73123 0,-0.32724 -0.07919,-0.64392 -0.175974,-0.70374 -0.09679,-0.0598 -0.234197,-0.73225 -0.305358,-1.4943 -0.07116,-0.76204 -0.224227,-1.48038 -0.340147,-1.5963 -0.11592,-0.11592 -0.210764,-0.56379 -0.210764,-0.99527 0,-0.43148 -0.08199,-0.7845 -0.182193,-0.7845 -0.100207,0 -0.247537,-0.69732 -0.327402,-1.54959 -0.07986,-0.85228 -0.223071,-1.50147 -0.318235,-1.44266 -0.09516,0.0588 -0.238522,-0.7303 -0.318572,-1.75359 -0.08005,-1.02328 -0.216796,-1.86052 -0.303879,-1.86052 -0.08708,0 -0.224168,-0.74373 -0.304634,-1.65275 -0.08047,-0.90901 -0.218527,-1.69738 -0.306802,-1.75194 -0.08828,-0.0546 -0.224692,-0.6986 -0.303147,-1.4312 -0.07846,-0.73261 -0.266587,-1.43487 -0.418071,-1.56059 -0.151483,-0.12572 -0.339649,-0.78195 -0.418147,-1.45829 -0.0785,-0.67634 -0.215522,-1.2747 -0.304499,-1.32969 -0.08898,-0.055 -0.228277,-0.72095 -0.309554,-1.47991 -0.08128,-0.75896 -0.220884,-1.52669 -0.310235,-1.70607 -0.08935,-0.17938 -0.317719,-1.20871 -0.507483,-2.28741 -0.189765,-1.07869 -0.402641,-2.19351 -0.47306,-2.47738 -0.07042,-0.28387 -0.157696,-0.70192 -0.193951,-0.92902 -0.03625,-0.22709 -0.122551,-0.80773 -0.191767,-1.2903 -0.06922,-0.48258 -0.208993,-0.87741 -0.310613,-0.87741 -0.101621,0 -0.185787,-0.25548 -0.187037,-0.56773 -0.0012,-0.31226 -0.05986,-0.91612 -0.130236,-1.34192 -0.07038,-0.4258 -0.239072,-0.77418 -0.37487,-0.77418 -0.154652,0 -0.214282,-0.22228 -0.159592,-0.5949 0.04802,-0.32719 -0.01452,-0.65783 -0.13898,-0.73475 -0.124461,-0.0769 -0.226292,-0.41308 -0.226292,-0.74702 0,-0.33394 -0.0929,-0.60716 -0.206449,-0.60716 -0.113547,0 -0.206448,-0.24144 -0.206448,-0.53653 0,-0.2951 -0.149939,-0.85251 -0.333196,-1.2387 -0.315251,-0.66434 -0.390368,-0.70215 -1.394744,-0.70215 -0.963954,0 -1.085058,0.0531 -1.317279,0.57773 -0.201773,0.45584 -0.256211,16.12668 -0.258003,74.26988 -0.0019,62.02744 0.04303,73.90777 0.283896,75.05441 0.157392,0.74925 0.403837,1.72472 0.547656,2.16771 0.14382,0.44299 0.72298,2.05961 1.287024,3.59249 0.564044,1.53288 1.293589,3.22974 1.621211,3.77079 0.327623,0.54105 0.595677,1.02715 0.595677,1.08022 0,0.0531 0.378165,0.71433 0.840367,1.46948 0.462202,0.75515 1.495261,2.24813 2.295688,3.31773 0.800427,1.06961 2.339595,2.82471 3.420373,3.90024 1.080778,1.07552 2.718646,2.54361 3.639708,3.26243 0.921062,0.71882 2.185618,1.63256 2.810125,2.03053 0.624507,0.39797 2.064485,1.26478 3.199952,1.92625 1.135468,0.66148 4.015425,2.32768 6.399906,3.70268 2.384481,1.375 4.939282,2.85327 5.677336,3.28504 0.738054,0.43177 2.531515,1.47268 3.985469,2.31314 1.45395,0.84045 2.6831,1.5281 2.73143,1.5281 0.0483,0 0.57742,0.31123 1.17575,0.69162 0.59832,0.38039 1.59882,0.97621 2.22333,1.32403 0.62451,0.34782 2.52899,1.43923 4.23219,2.42534 1.70321,0.98612 3.58483,2.06161 4.18139,2.38997 0.59656,0.32836 1.47913,0.84607 1.96126,1.15047 0.48213,0.30439 1.38757,0.83026 2.01207,1.16859 0.62451,0.33834 1.78578,1.00482 2.58061,1.48108 0.79483,0.47627 2.88512,1.68546 4.64509,2.68711 1.75998,1.00164 3.78223,2.17734 4.4939,2.61265 0.71166,0.43531 1.3406,0.79148 1.39763,0.79148 0.057,0 0.45022,0.21812 0.87377,0.48472 0.42354,0.26659 2.02425,1.21158 3.55713,2.09997 1.53288,0.88838 3.39092,1.93894 4.12897,2.33457 0.73806,0.39563 1.80643,1.01332 2.37416,1.37265 0.56774,0.35932 2.23997,1.3352 3.71608,2.16861 1.4761,0.83342 3.79865,2.1614 5.16121,2.95108 1.36256,0.78967 3.15342,1.84313 3.9797,2.34101 0.82627,0.49788 1.54462,0.90524 1.59634,0.90524 0.0517,0 0.68961,0.36453 1.41755,0.81008 0.72793,0.44555 1.95914,1.15936 2.736,1.58626 0.77687,0.42689 2.12823,1.2004 3.00302,1.71891 0.87479,0.5185 2.40255,1.40724 3.39501,1.97498 0.99247,0.56773 2.14502,1.22194 2.56123,1.45379 0.41621,0.23186 1.39819,0.79851 2.18217,1.25924 0.78399,0.46073 2.6796,1.5643 4.21248,2.45237 1.53288,0.88806 3.6464,2.10977 4.69671,2.71489 1.0503,0.60512 2.76899,1.59953 3.8193,2.20979 1.0503,0.61026 2.37415,1.36339 2.94189,1.67362 0.56773,0.31024 1.5432,0.8684 2.16771,1.24036 0.62451,0.37196 2.01803,1.1835 3.09673,1.80341 1.07869,0.61991 3.16898,1.82939 4.64509,2.68773 1.47611,0.85833 4.07736,2.37274 5.78056,3.36534 1.7032,0.9926 4.11865,2.38188 5.36766,3.0873 1.24902,0.70541 4.08252,2.33297 6.29668,3.61679 2.21417,1.28383 5.55863,3.21605 7.43215,4.29382 1.87352,1.07777 3.96382,2.28403 4.6451,2.68058 0.68128,0.39654 1.93545,1.11204 2.78705,1.58999 0.8516,0.47795 2.17067,1.25007 2.93127,1.71581 0.7606,0.46575 2.29348,1.30945 3.4064,1.87489 1.11292,0.56545 2.87333,1.35237 3.91202,1.74872 1.03869,0.39636 2.52353,0.91678 3.29964,1.1565 0.77612,0.23972 2.06303,0.56713 2.8598,0.72758 0.79677,0.16045 2.3508,0.38905 3.45341,0.50799 1.10261,0.11894 3.23935,0.21555 4.74832,0.21469 1.50897,-8.6e-4 3.53324,-0.0903 4.49839,-0.19885 0.96515,-0.10851 2.35868,-0.30433 3.09673,-0.43516 0.73805,-0.13083 2.13158,-0.47265 3.09673,-0.7596 0.96514,-0.28696 2.77673,-0.92127 4.02574,-1.40959 1.24902,-0.48832 3.33931,-1.48002 4.6451,-2.20378 1.30579,-0.72375 3.62833,-2.04287 5.16121,-2.93136 1.53288,-0.8885 4.22704,-2.44952 5.98701,-3.46893 1.75997,-1.01942 4.03607,-2.34069 5.05799,-2.93617 1.02192,-0.59547 2.87996,-1.66935 4.12897,-2.38638 1.24902,-0.71703 3.1535,-1.81448 4.2322,-2.43877 1.07869,-0.62429 2.87137,-1.676 3.98374,-2.33713 1.11236,-0.66113 2.06133,-1.20205 2.10883,-1.20205 0.0475,0 0.92902,-0.51096 1.95892,-1.13547 1.02991,-0.62451 1.91248,-1.13547 1.96126,-1.13547 0.0488,0 0.90487,-0.49368 1.90239,-1.09706 0.99753,-0.60338 2.32465,-1.36807 2.94916,-1.6993 0.6245,-0.33123 1.36772,-0.75435 1.65158,-0.94027 0.28387,-0.18591 1.72385,-1.03342 3.19996,-1.88334 1.4761,-0.84993 3.14834,-1.80066 3.71607,-2.11274 0.56773,-0.31208 1.77546,-1.00722 2.68383,-1.54475 0.90838,-0.53754 3.55608,-2.07515 5.88379,-3.41693 2.3277,-1.34178 5.85798,-3.38805 7.84504,-4.54726 1.98707,-1.15922 4.26317,-2.47661 5.05799,-2.92753 0.79483,-0.45093 3.30318,-1.89356 5.57411,-3.20586 2.27094,-1.3123 5.47605,-3.16907 7.12248,-4.12615 1.64643,-0.95709 4.43348,-2.5624 6.19346,-3.56736 1.75997,-1.00496 3.52511,-2.03059 3.92252,-2.27919 0.39741,-0.24859 1.04773,-0.63932 1.44514,-0.86828 0.39741,-0.22897 1.14063,-0.64527 1.65159,-0.92511 0.51096,-0.27985 2.18319,-1.23563 3.71607,-2.12395 1.53288,-0.88832 3.57672,-2.07405 4.54187,-2.63495 0.96515,-0.56089 3.5664,-2.06882 5.78056,-3.35094 2.21416,-1.28213 4.84289,-2.80533 5.84161,-3.38489 0.99873,-0.57957 1.86695,-1.05376 1.92939,-1.05376 0.0624,0 0.36013,-0.17365 0.66152,-0.38588 0.3014,-0.21224 1.47701,-0.92447 2.61248,-1.58273 1.13547,-0.65826 2.9935,-1.72684 4.12897,-2.37462 1.13547,-0.64778 3.22576,-1.85412 4.64509,-2.68075 1.41934,-0.82663 3.18728,-1.8422 3.92876,-2.25682 0.74148,-0.41462 1.90276,-1.08817 2.58061,-1.49677 0.67785,-0.4086 2.99759,-1.75973 5.15498,-3.0025 2.15739,-1.24278 4.38703,-2.51523 4.95477,-2.82768 0.56773,-0.31244 1.77545,-1.00877 2.68383,-1.5474 0.90837,-0.53863 2.79317,-1.65617 4.18844,-2.48341 1.39527,-0.82724 3.34621,-2.13066 4.33542,-2.89649 0.98921,-0.76582 2.71737,-2.31008 3.84035,-3.43169 1.12298,-1.12161 2.69822,-2.92185 3.50053,-4.00055 0.80232,-1.07869 2.05122,-2.98318 2.77533,-4.23219 0.72412,-1.24901 1.54742,-2.82835 1.82956,-3.50963 0.28214,-0.68128 0.7852,-2.0748 1.11792,-3.09673 0.33272,-1.02192 0.70641,-2.13674 0.83042,-2.47738 0.12402,-0.34064 0.39861,-1.45546 0.6102,-2.47738 0.2116,-1.02192 0.48714,-2.97286 0.61232,-4.33542 0.16299,-1.77417 0.20821,-28.32061 0.15931,-93.5212 -0.0639,-85.23476 -0.091,-91.15579 -0.42447,-92.79864 -0.19589,-0.96515 -0.43999,-2.12642 -0.54245,-2.58061 -0.10245,-0.45418 -0.28727,-1.1045 -0.4107,-1.44514 -0.12344,-0.34064 -0.51684,-1.50191 -0.87423,-2.5806 -0.35738,-1.0787 -1.00416,-2.70448 -1.43727,-3.61285 -0.43312,-0.90838 -1.04752,-2.1161 -1.36535,-2.68383 -0.31782,-0.56774 -0.80816,-1.40385 -1.08965,-1.85804 -0.28148,-0.45419 -0.95141,-1.4149 -1.48873,-2.13492 -0.53733,-0.72002 -1.51475,-1.91604 -2.17205,-2.65783 -0.6573,-0.74178 -1.7681,-1.90355 -2.46844,-2.5817 -0.70034,-0.67816 -2.04741,-1.82908 -2.9935,-2.5576 -0.94609,-0.72853 -2.83498,-1.98842 -4.19754,-2.79975 -1.36256,-0.81134 -3.2206,-1.91709 -4.12897,-2.45721 -0.90838,-0.54013 -3.23093,-1.88806 -5.16122,-2.99542 -1.93029,-1.10735 -4.8567,-2.79259 -6.50313,-3.74498 -1.64643,-0.95239 -3.13286,-1.81917 -3.30318,-1.9262 -0.17032,-0.10702 -1.7961,-1.04538 -3.61285,-2.08525 -1.81674,-1.03987 -4.5109,-2.58655 -5.98701,-3.43707 -1.4761,-0.85052 -3.05543,-1.75622 -3.50962,-2.01266 -0.45419,-0.25644 -1.68237,-0.96287 -2.72929,-1.56984 -1.04692,-0.60697 -2.62625,-1.51707 -3.50962,-2.02244 -0.88338,-0.50537 -2.4887,-1.44035 -3.5674,-2.07773 -1.07869,-0.63738 -2.92512,-1.71032 -4.10316,-2.38432 -1.17805,-0.674 -2.52513,-1.44428 -2.99351,-1.71174 -0.46838,-0.26745 -1.82707,-1.04907 -3.01931,-1.73692 -1.19224,-0.68785 -2.72512,-1.58952 -3.4064,-2.0037 -0.68128,-0.41418 -1.6103,-0.94387 -2.06449,-1.17709 -0.45418,-0.23321 -1.1974,-0.63228 -1.65158,-0.8868 -0.45419,-0.25453 -0.9187,-0.53644 -1.03225,-0.62647 -0.11354,-0.09 -1.73933,-1.04159 -3.61285,-2.11458 -1.87352,-1.073 -4.33542,-2.48917 -5.47088,-3.147059 -1.13547,-0.657888 -2.85416,-1.661271 -3.8193,-2.229739 -0.96515,-0.568468 -2.03884,-1.193828 -2.38597,-1.38969 -0.34714,-0.195862 -1.41551,-0.801555 -2.37416,-1.345983 -0.95865,-0.544429 -2.55698,-1.485094 -3.55183,-2.090367 -0.99486,-0.605273 -1.8452,-1.100497 -1.88964,-1.100497 -0.0445,0 -1.55302,-0.846806 -3.35239,-1.881791 -1.79936,-1.034985 -3.50383,-2.037451 -3.78769,-2.227701 -0.28387,-0.19025 -1.02708,-0.614494 -1.65159,-0.942765 -0.62451,-0.328271 -1.69288,-0.935995 -2.37416,-1.350498 -0.68128,-0.414503 -1.65675,-0.986719 -2.16771,-1.27159 -0.51096,-0.284871 -1.71868,-0.968307 -2.68383,-1.518747 -0.96515,-0.55044 -2.55055,-1.484234 -3.52313,-2.075099 -0.97257,-0.590865 -2.31964,-1.3652 -2.9935,-1.720744 -0.67386,-0.355545 -2.34002,-1.306331 -3.70258,-2.112859 -1.36256,-0.806528 -2.98834,-1.746161 -3.61285,-2.088073 -0.6245,-0.341913 -1.87868,-1.063696 -2.78705,-1.603963 -0.90838,-0.540266 -1.97675,-1.16624 -2.37416,-1.391051 -0.39741,-0.224812 -1.88384,-1.084761 -3.30318,-1.910998 -1.41933,-0.826237 -3.18447,-1.844009 -3.92252,-2.261715 -0.73805,-0.417706 -3.52511,-2.018364 -6.19346,-3.557017 -2.66835,-1.538654 -6.01281,-3.474288 -7.43215,-4.30141 -1.41933,-0.827121 -3.08524,-1.777049 -3.70202,-2.11095 -0.61678,-0.333901 -1.84672,-1.061645 -2.73319,-1.617208 -0.88647,-0.555564 -1.67466,-1.010116 -1.75153,-1.010116 -0.0769,0 -0.79788,-0.402781 -1.60224,-0.895068 -0.80435,-0.492288 -1.88052,-1.130525 -2.39148,-1.418304 -0.51096,-0.287779 -1.53288,-0.851991 -2.27094,-1.253804 -0.73805,-0.401812 -2.13158,-1.055123 -3.09673,-1.451801 -0.96514,-0.396679 -2.45157,-0.954604 -3.30317,-1.239833 -0.8516,-0.28523 -2.05933,-0.655112 -2.68383,-0.821958 -0.62451,-0.166847 -1.87869,-0.430291 -2.78706,-0.58543 -1.09433,-0.186899 -3.39301,-0.282072 -6.8128,-0.282072 -3.50468,0 -5.65818,0.0915 -6.70958,0.285078 -0.8516,0.156793 -2.19868,0.450545 -2.99351,0.652781 -0.79482,0.202237 -2.51319,0.752929 -3.81858,1.223761 -1.30539,0.470831 -3.20988,1.28003 -4.2322,1.798219 -1.02231,0.518189 -2.92712,1.572217 -4.23291,2.342283 -1.30578,0.770067 -2.76147,1.618056 -3.23485,1.88442 -0.47339,0.266364 -1.82046,1.03078 -2.99351,1.698701 -1.17304,0.667922 -2.38452,1.387911 -2.69218,1.599977 -0.30765,0.212065 -0.59625,0.385573 -0.64133,0.385573 -0.0451,0 -0.90818,0.479936 -1.91801,1.066525 -1.00983,0.586589 -2.67217,1.545907 -3.69409,2.131819 -1.02192,0.585912 -3.11221,1.79655 -4.64509,2.690306 -1.53288,0.893757 -3.45464,2.001505 -4.27058,2.461662 -0.81594,0.460157 -2.44172,1.384408 -3.61285,2.053889 -1.17113,0.669482 -2.68674,1.542897 -3.36802,1.940921 -0.68128,0.398025 -1.7032,1.003411 -2.27093,1.345303 -0.56773,0.341891 -1.96126,1.146266 -3.09673,1.787499 -1.13547,0.641233 -3.96897,2.264839 -6.29668,3.608013 -2.32771,1.343174 -5.43992,3.143869 -6.91603,4.001545 -1.4761,0.857676 -3.47349,2.021196 -4.43864,2.5856 -0.96515,0.564404 -2.68383,1.555386 -3.8193,2.202182 -1.13547,0.646797 -3.13286,1.803913 -4.43864,2.571369 -1.30579,0.767456 -3.16383,1.834874 -4.12898,2.372041 -0.96514,0.537167 -3.79865,2.159469 -6.29668,3.605115 -2.49803,1.445647 -4.98455,2.899626 -5.5256,3.231066 -0.54105,0.331439 -1.02551,0.602617 -1.07658,0.602617 -0.0511,0 -1.00192,0.542668 -2.113,1.205928 -1.11108,0.66326 -3.22787,1.885317 -4.70397,2.715667 -1.47611,0.83036 -3.14835,1.80461 -3.71608,2.16501 -0.56773,0.36039 -1.68255,1.0103 -2.47738,1.44423 -0.79483,0.43394 -2.1171,1.19312 -2.93838,1.68706 -0.82128,0.49395 -1.54312,0.89809 -1.60408,0.89809 -0.061,0 -0.45738,0.21812 -0.88092,0.48472 -0.42354,0.26659 -2.02425,1.21164 -3.55713,2.1001 -1.53289,0.88846 -3.99478,2.30461 -5.47089,3.147 -1.47611,0.84239 -3.42705,1.97483 -4.33542,2.51652 -0.90838,0.54169 -2.209,1.28601 -2.89028,1.65404 -0.68128,0.36804 -2.12126,1.18828 -3.19996,1.82277 -1.07869,0.63448 -2.63321,1.5539 -3.45449,2.04315 -0.82129,0.48925 -1.53964,0.88954 -1.59634,0.88954 -0.0567,0 -0.68538,0.35617 -1.39705,0.79148 -0.71166,0.43531 -2.68746,1.58655 -4.39067,2.5583 -1.7032,0.97175 -4.05654,2.33427 -5.22964,3.02782 -1.173107,0.69355 -2.175488,1.261 -2.227515,1.261 -0.05203,0 -1.089603,0.59179 -2.305725,1.31508 -1.216122,0.72329 -2.861443,1.69186 -3.65627,2.15238 -0.794827,0.46051 -1.915842,1.09967 -2.491145,1.42036 -0.575302,0.32069 -1.765211,1.00113 -2.644242,1.51209 -0.87903,0.51096 -2.730875,1.62919 -4.11521,2.48495 -1.384335,0.85576 -3.320096,2.1789 -4.301692,2.9403 -0.981595,0.7614 -2.64344,2.29087 -3.692988,3.39883 -1.049548,1.10796 -2.474881,2.75768 -3.167406,3.66606 -0.692526,0.90837 -1.910638,2.77087 -2.706917,4.13888 -0.79628,1.36801 -1.772937,3.34208 -2.170351,4.38681 l -0.72257,1.89951 -19.693194,2.2e-4 -19.693195,2.3e-4 0.131243,-4.34419 c 0.07709,-2.55174 0.30825,-5.597 0.56024,-7.38053 0.235948,-1.67 0.483832,-3.17571 0.550853,-3.34603 0.06702,-0.17032 0.141492,-0.37935 0.165492,-0.46451 0.024,-0.0852 0.0694,-0.22451 0.100887,-0.30967 0.03149,-0.0852 0.07531,-0.24774 0.09737,-0.36128 0.02207,-0.11355 0.09109,-0.34581 0.153394,-0.51613 0.0623,-0.17032 0.271616,-0.86708 0.465145,-1.54836 0.19353,-0.68128 0.450306,-1.56385 0.570614,-1.96126 0.120309,-0.39742 0.491686,-1.51224 0.825283,-2.47738 0.333598,-0.96515 0.797621,-2.17288 1.031163,-2.68384 0.233542,-0.51096 0.564578,-1.09216 0.735634,-1.29157 0.171057,-0.1994 0.252392,-0.42117 0.180745,-0.49281 -0.07165,-0.0717 0.03767,-0.37301 0.242936,-0.6697 0.205262,-0.29668 0.428257,-0.69262 0.495545,-0.87986 0.06729,-0.18725 0.578669,-1.06981 1.136403,-1.96126 0.557734,-0.89145 1.170065,-1.94598 1.360735,-2.34339 0.19067,-0.39742 0.988704,-1.59001 1.773408,-2.65022 0.784705,-1.0602 2.006816,-2.59309 2.715802,-3.4064 0.708986,-0.81332 2.028293,-2.20145 2.931792,-3.08474 0.903499,-0.88329 2.303912,-2.18861 3.112029,-2.90071 0.808116,-0.7121 2.119616,-1.79791 2.914443,-2.41291 0.794827,-0.615 2.025829,-1.44642 2.735559,-1.8476 0.709731,-0.40119 2.979822,-1.75135 5.044647,-3.00036 2.064825,-1.24902 3.966996,-2.33198 4.227047,-2.40658 0.26005,-0.0746 1.102171,-0.55014 1.87138,-1.05676 0.769209,-0.50663 1.955972,-1.2275 2.637253,-1.60195 0.68128,-0.37445 1.816197,-1.03404 2.522038,-1.465745 0.705841,-0.43171 1.820663,-1.069132 2.477383,-1.416494 0.65672,-0.347361 1.615362,-0.884465 2.130317,-1.193562 0.514955,-0.309098 1.583326,-0.923015 2.374159,-1.364258 0.790832,-0.441244 2.134641,-1.244219 2.986241,-1.784389 0.851601,-0.540169 1.919972,-1.149215 2.374159,-1.353434 0.454187,-0.20422 1.197402,-0.605909 1.651588,-0.892643 0.454187,-0.286735 1.150951,-0.695767 1.548365,-0.90896 0.397413,-0.213193 0.954824,-0.540282 1.238691,-0.726865 0.283867,-0.186583 0.701925,-0.452507 0.929019,-0.590942 0.227093,-0.138435 0.598701,-0.349971 0.825794,-0.470079 0.227093,-0.120108 0.691603,-0.40178 1.032243,-0.625937 0.34064,-0.224157 0.758698,-0.464723 0.929018,-0.53459 0.170321,-0.06987 0.864848,-0.412682 1.543395,-0.76181 0.678547,-0.349128 1.637907,-0.9433 2.131911,-1.320382 0.494004,-0.377082 0.980703,-0.685604 1.081552,-0.685604 0.100849,0 1.138879,-0.570922 2.306733,-1.268716 1.167854,-0.697794 2.369967,-1.441008 2.671362,-1.651588 0.301395,-0.21058 0.688486,-0.382873 0.860202,-0.382873 0.171717,0 0.343179,-0.06968 0.381028,-0.154836 0.03785,-0.08516 0.44042,-0.34064 0.89461,-0.567734 0.45419,-0.227093 1.1974,-0.658969 1.65159,-0.959725 0.45419,-0.300755 1.48272,-0.904617 2.28564,-1.341915 0.80291,-0.437299 1.87128,-1.066621 2.37416,-1.398494 0.50287,-0.331874 1.47172,-0.877854 2.153,-1.213291 0.68128,-0.335436 1.63818,-0.876795 2.12645,-1.203019 0.48827,-0.326224 0.92144,-0.593134 0.96261,-0.593134 0.0412,0 0.56858,-0.325157 1.17202,-0.72257 0.60344,-0.397414 1.16733,-0.72257 1.25308,-0.72257 0.0857,0 0.76304,-0.371608 1.50509,-0.825795 0.74206,-0.454187 1.41935,-0.825794 1.5051,-0.825794 0.0858,0 0.64963,-0.325157 1.25307,-0.72257 0.60345,-0.397414 1.1487,-0.72257 1.21168,-0.72257 0.063,0 0.68196,-0.356004 1.37551,-0.791121 0.69355,-0.435116 1.91131,-1.144397 2.70614,-1.576179 0.79482,-0.431782 1.90965,-1.088886 2.47738,-1.460231 0.56773,-0.371345 1.82191,-1.087481 2.78706,-1.591413 0.96514,-0.503933 2.09259,-1.139832 2.50543,-1.41311 0.41284,-0.273279 1.06315,-0.678702 1.44514,-0.900941 0.38198,-0.222239 1.11258,-0.624866 1.62354,-0.894728 0.51096,-0.269861 1.06837,-0.606833 1.23869,-0.748827 0.17032,-0.141995 0.91353,-0.564007 1.65159,-0.937807 0.73805,-0.373799 1.7414,-0.946592 2.22967,-1.272872 0.48827,-0.32628 0.93843,-0.593237 1.00037,-0.593237 0.0619,0 0.38714,-0.195474 0.72266,-0.434386 0.33552,-0.238913 1.18598,-0.747186 1.88991,-1.129496 0.70392,-0.38231 1.69792,-0.898641 2.20888,-1.147403 0.51096,-0.248761 1.11482,-0.610177 1.34192,-0.803146 0.22709,-0.192968 1.01676,-0.662232 1.75481,-1.042807 0.73805,-0.380576 1.62062,-0.893804 1.96126,-1.140507 0.34064,-0.246703 1.03741,-0.657857 1.54837,-0.913675 0.51096,-0.255819 1.53288,-0.856505 2.27093,-1.334858 0.73805,-0.478353 1.71352,-1.041526 2.16771,-1.251496 0.45419,-0.20997 1.61546,-0.840379 2.58061,-1.40091 0.96515,-0.56053 1.89416,-1.13383 2.06448,-1.274 0.17032,-0.140169 0.86709,-0.557377 1.54837,-0.927127 0.68128,-0.369751 1.38536,-0.799718 1.56462,-0.955483 0.17926,-0.155765 0.42141,-0.283209 0.53811,-0.283209 0.1167,0 0.99228,-0.448892 1.94574,-0.997538 0.95346,-0.548646 2.12771,-1.246348 2.60943,-1.550448 0.48173,-0.304101 1.41042,-0.843202 2.06375,-1.198003 0.65333,-0.3548 1.55949,-0.83607 2.01367,-1.069488 0.45419,-0.233418 1.11057,-0.636894 1.45863,-0.896614 0.34806,-0.259721 1.24392,-0.790734 1.99079,-1.180031 0.74687,-0.389297 2.16033,-1.204246 3.14101,-1.810999 0.98068,-0.606752 2.03577,-1.242943 2.34463,-1.413758 0.30887,-0.170814 0.97964,-0.555188 1.4906,-0.854163 0.51096,-0.298976 1.76513,-0.985749 2.78705,-1.526164 1.02192,-0.540414 2.04384,-1.143599 2.27094,-1.34041 0.22709,-0.196811 1.17611,-0.787034 2.10893,-1.311606 0.93283,-0.524571 1.7856,-0.953767 1.89505,-0.953767 0.10946,0 0.75206,-0.367342 1.428,-0.816316 0.67595,-0.448974 1.68121,-1.069604 2.23392,-1.379179 0.55272,-0.309575 1.19074,-0.664603 1.41783,-0.788952 0.2271,-0.124348 0.82877,-0.493635 1.33706,-0.820636 0.50829,-0.327002 1.57667,-0.922583 2.37416,-1.323514 0.7975,-0.400932 1.7287,-0.931105 2.06934,-1.178164 0.34064,-0.247059 1.25803,-0.795138 2.03865,-1.217953 0.78061,-0.422815 1.89543,-1.054984 2.47738,-1.404819 0.58195,-0.349835 1.19744,-0.749664 1.36776,-0.888508 0.17032,-0.138845 1.09934,-0.666622 2.06448,-1.172839 0.96515,-0.506217 2.63738,-1.434971 3.71608,-2.063898 1.07869,-0.628927 2.81809,-1.664965 3.86534,-2.302306 1.04724,-0.637341 2.02271,-1.165343 2.16771,-1.173339 0.145,-0.008 0.82104,-0.374493 1.50232,-0.814439 0.68128,-0.4399463 2.21416,-1.3603811 3.4064,-2.0454109 1.19224,-0.6850299 2.49287,-1.432043 2.89028,-1.6600291 0.39742,-0.2279862 1.88385,-0.9565382 3.30318,-1.6190044 1.41933,-0.6624663 3.18447,-1.4033632 3.92252,-1.6464377 0.73806,-0.2430745 1.89933,-0.5946274 2.58061,-0.7812288 0.68128,-0.1866014 1.65675,-0.507301 2.16771,-0.7126658 0.51096,-0.2053648 1.99739,-0.5674271 3.30318,-0.804583 1.30578,-0.23715583 3.39608,-0.56127212 4.64509,-0.72025839 1.26331,-0.16080639 4.05717,-0.28855991 6.29668,-0.28792547 2.23995,6.3456e-4 5.07891,0.13215225 6.39991,0.29648175 1.30578,0.1624377 2.88512,0.39062429 3.50962,0.50708132 0.62451,0.11645703 1.64643,0.30773729 2.27094,0.42506729 0.6245,0.11733 1.37532,0.3400336 1.66847,0.4948968 0.29315,0.1548632 0.89701,0.3742842 1.34192,0.4876021 0.4449,0.1133179 1.31987,0.3401896 1.94437,0.5041593 0.62451,0.1639697 1.7599,0.5379436 2.52308,0.831053 0.76319,0.2931095 2.54846,1.0947801 3.96726,1.7814902 1.41881,0.6867102 3.51933,1.8033326 4.66783,2.4813833 1.1485,0.6780506 2.13023,1.2328193 2.18161,1.2328193 0.0514,0 0.77506,0.4645093 1.60815,1.0322432 0.8331,0.567733 1.64538,1.032243 1.80508,1.032243 0.15969,0 0.4736,0.125842 0.69757,0.279649 0.22398,0.153807 0.96464,0.583442 1.64592,0.954744 0.68128,0.371302 1.42449,0.830798 1.65159,1.021101 0.22709,0.190304 0.92385,0.611985 1.54836,0.93707 0.62451,0.325084 1.52381,0.854568 1.99846,1.176631 0.47464,0.322064 0.97533,0.58557 1.11263,0.58557 0.13731,0 0.7026,0.278706 1.25621,0.619346 0.55361,0.34064 1.05782,0.619346 1.12046,0.619346 0.0627,0 0.40963,0.22444 0.77108,0.498755 0.36145,0.274315 1.57489,1.01753 2.69653,1.651588 1.12163,0.634059 2.10895,1.152834 2.19404,1.152834 0.0851,0 0.27036,0.139353 0.41171,0.309673 0.14135,0.17032 0.41704,0.309673 0.61263,0.309673 0.19559,0 0.52377,0.185803 0.72929,0.412897 0.20551,0.227093 0.45108,0.412897 0.5457,0.412897 0.0946,0 1.11078,0.557411 2.25814,1.238691 1.14736,0.681281 2.17037,1.238692 2.27335,1.238692 0.10299,0 0.18724,0.08664 0.18724,0.192536 0,0.105895 0.20327,0.257052 0.45171,0.335903 0.24844,0.07885 1.06133,0.532965 1.80643,1.009141 0.74509,0.476177 2.27796,1.352136 3.40637,1.946577 1.1284,0.594441 2.4552,1.353158 2.94844,1.686038 0.49323,0.332881 1.38158,0.874312 1.97409,1.203181 0.59252,0.328868 1.63472,0.903176 2.316,1.276238 0.68128,0.373063 1.57735,0.871582 1.99126,1.107821 0.41392,0.23624 1.51685,0.894036 2.45096,1.461769 0.93412,0.567734 2.26165,1.338866 2.95007,1.713627 0.68843,0.374761 2.09384,1.176613 3.12315,1.781893 1.02931,0.60528 2.42889,1.401123 3.11017,1.76854 0.68128,0.367417 1.51609,0.866191 1.85513,1.108387 0.33904,0.242196 0.80355,0.542088 1.03224,0.666427 0.22869,0.124338 0.84312,0.467906 1.36539,0.763484 0.52227,0.295577 1.40484,0.789144 1.96126,1.096815 0.55642,0.30767 1.66199,0.920411 2.45682,1.361646 0.79482,0.441235 2.00255,1.166497 2.68383,1.611694 0.68128,0.445197 1.93545,1.152756 2.78705,1.572353 0.8516,0.419597 1.96643,1.049854 2.47739,1.400572 0.51096,0.350718 1.11482,0.739826 1.34191,0.864686 0.22709,0.12486 0.83096,0.443238 1.34192,0.707507 0.51096,0.264269 1.20641,0.673192 1.54546,0.908718 0.33904,0.235526 0.80355,0.529053 1.03224,0.652284 0.22869,0.12323 0.92676,0.489933 1.55127,0.814895 0.62451,0.324962 1.20976,0.711872 1.30056,0.8598 0.0908,0.147928 0.3277,0.26896 0.52644,0.26896 0.19875,0 0.46502,0.103661 0.59171,0.230358 0.1267,0.126697 0.44721,0.356473 0.71225,0.510612 0.26504,0.154139 0.89995,0.495037 1.41091,0.757551 0.51096,0.262514 1.322,0.729502 1.80232,1.037752 0.48032,0.308251 0.95668,0.560455 1.05858,0.560455 0.1019,0 0.29537,0.13266 0.42993,0.2948 0.13456,0.162139 0.72658,0.549647 1.31558,0.861128 0.58901,0.31148 1.34963,0.707053 1.69027,0.879051 0.34064,0.171998 1.08385,0.601339 1.65159,0.954091 0.56773,0.352753 1.26449,0.755459 1.54836,0.894904 0.28387,0.139444 0.84128,0.451949 1.23869,0.694454 0.39742,0.242506 1.18708,0.736204 1.75482,1.097108 0.56773,0.360905 1.49675,0.87334 2.06448,1.138746 0.56774,0.265406 1.63821,0.861383 2.37884,1.324394 0.74062,0.46301 1.53029,0.958556 1.75481,1.101212 0.22452,0.142656 0.54757,0.321024 0.71789,0.396373 0.17032,0.07535 1.21235,0.67862 2.31562,1.340602 1.10327,0.661981 2.05086,1.203603 2.10575,1.203603 0.0549,0 0.51277,0.278706 1.0175,0.619346 0.50473,0.34064 0.98536,0.619345 1.06806,0.619345 0.0827,0 0.81244,0.400461 1.62165,0.889913 0.8092,0.489453 1.63502,0.951491 1.83514,1.026752 0.20012,0.07526 1.03002,0.571694 1.84421,1.103184 0.81419,0.531491 2.23211,1.356342 3.15093,1.833004 0.91882,0.476661 2.43368,1.344902 3.36636,1.929425 0.93268,0.584522 1.74161,1.062768 1.79763,1.062768 0.056,0 0.7236,0.380558 1.48353,0.845685 0.75992,0.465126 2.03896,1.192929 2.8423,1.617339 0.80334,0.42441 2.34319,1.300138 3.42188,1.946063 1.07869,0.645925 2.10061,1.260626 2.27094,1.366002 0.17032,0.105376 0.71091,0.39336 1.20131,0.639963 0.49041,0.246603 1.14072,0.653164 1.44514,0.903468 0.30443,0.250304 1.01801,0.672867 1.58574,0.93903 0.56773,0.266163 1.98765,1.048675 3.15536,1.738915 1.16772,0.69024 2.5148,1.476546 2.99351,1.747345 0.47871,0.270799 1.26987,0.758534 1.75814,1.083855 0.48826,0.325321 0.96313,0.591492 1.05526,0.591492 0.0921,0 0.85392,0.377274 1.69285,0.838386 0.83894,0.461112 1.71115,1.008275 1.93824,1.215918 0.2271,0.207643 0.90373,0.623167 1.50363,0.923387 0.5999,0.30022 1.59413,0.867879 2.2094,1.261465 0.61528,0.393585 1.21605,0.71561 1.33505,0.71561 0.119,0 0.40217,0.185804 0.62926,0.412897 0.22709,0.227094 0.58733,0.412898 0.80052,0.412898 0.21319,0 0.50327,0.139352 0.64462,0.309672 0.14135,0.17032 0.33387,0.309673 0.42783,0.309673 0.094,0 0.57031,0.25548 1.05857,0.567734 0.48827,0.312253 1.07356,0.678874 1.30066,0.814714 0.22709,0.13584 0.8774,0.49542 1.44514,0.79907 0.56773,0.30364 1.4503,0.83581 1.96126,1.18258 0.51096,0.34678 1.85803,1.11314 2.9935,1.70303 1.13547,0.58988 2.64061,1.45623 3.34476,1.92522 0.70415,0.46898 1.32797,0.8527 1.38627,0.8527 0.0583,0 0.94864,0.51096 1.97855,1.13547 1.0299,0.6245 1.90763,1.13546 1.9505,1.13546 0.0429,0 0.52983,0.30193 1.08214,0.67096 0.55231,0.36903 1.95264,1.39335 3.11185,2.27628 1.15921,0.88293 3.29944,2.78742 4.75606,4.2322 1.45662,1.44478 3.09622,3.1625 3.64356,3.81716 0.54735,0.65465 1.77142,2.23399 2.72016,3.50962 0.94875,1.27564 1.7259,2.44992 1.727,2.60953 10e-4,0.1596 0.21545,0.57766 0.47633,0.92902 0.26089,0.35135 0.95765,1.49744 1.54837,2.54685 0.59071,1.04941 1.07403,1.98782 1.07403,2.08535 0,0.0975 0.24384,0.63245 0.54186,1.18871 0.29803,0.55625 0.61623,1.24363 0.70711,1.5275 0.0909,0.28386 0.36697,1.02708 0.61354,1.65159 0.24657,0.6245 0.52748,1.46062 0.62423,1.85803 0.0967,0.39742 0.3137,1.20616 0.48211,1.7972 0.16841,0.59105 0.46211,1.40319 0.65266,1.80476 0.19056,0.40156 0.29385,0.86725 0.22953,1.03485 -0.0643,0.16761 -0.0406,0.35191 0.0527,0.40956 0.0933,0.0576 0.23115,0.45546 0.30638,0.88402 0.0752,0.42855 0.34016,1.98692 0.58875,3.46302 l 0.45198,2.68383 0.0681,104.25653 c 0.0477,73.11396 0.002,105.02739 -0.15373,106.83714 -0.12198,1.41933 -0.31163,3.23092 -0.42144,4.02575 -0.10981,0.79482 -0.2857,1.98417 -0.39086,2.64298 -0.10516,0.65881 -0.29065,1.31767 -0.4122,1.46413 -0.12155,0.14647 -0.16345,0.32385 -0.0931,0.3942 0.0703,0.0703 -0.0698,0.54852 -0.31146,1.06261 -0.24165,0.51409 -0.4389,1.0983 -0.43834,1.29824 5.6e-4,0.19995 -0.15109,0.82805 -0.337,1.39578 -0.18591,0.56773 -0.60442,1.73691 -0.93004,2.59818 -0.32561,0.86126 -0.59202,1.62416 -0.59202,1.69532 0,0.0712 -0.34289,0.85292 -0.76197,1.73724 -0.41908,0.88432 -1.30165,2.55952 -1.96126,3.72265 -0.65961,1.16314 -1.19929,2.16054 -1.19929,2.21645 0,0.0559 -0.30194,0.55852 -0.67096,1.11693 -0.36903,0.55841 -1.22341,1.7442 -1.89862,2.6351 -0.67522,0.8909 -1.89635,2.4137 -2.71363,3.38401 -0.81729,0.97031 -2.49448,2.72276 -3.72711,3.89434 -1.23262,1.17158 -3.17015,2.84393 -4.30562,3.71634 -1.13546,0.8724 -2.51042,1.88378 -3.05546,2.2475 -0.54504,0.36372 -1.06864,0.66131 -1.16356,0.66131 -0.0949,0 -0.71734,0.35952 -1.38318,0.79894 -0.66583,0.43942 -1.66656,1.04963 -2.22385,1.35604 -0.55729,0.3064 -1.62566,0.95305 -2.37416,1.437 -0.7485,0.48395 -1.97805,1.17725 -2.73234,1.54067 -0.75428,0.36343 -1.73814,0.92642 -2.18635,1.2511 -0.44821,0.32468 -1.45685,0.93025 -2.24143,1.34569 -0.78457,0.41545 -1.61076,0.8669 -1.83598,1.00322 -0.22522,0.13632 -0.78263,0.49061 -1.23869,0.7873 -0.45606,0.2967 -1.02984,0.60223 -1.27507,0.67896 -0.24522,0.0767 -0.55853,0.27525 -0.69623,0.44118 -0.13771,0.16592 -0.42772,0.30168 -0.64447,0.30168 -0.21676,0 -0.44757,0.13935 -0.51293,0.30967 -0.0654,0.17032 -0.21287,0.30967 -0.3278,0.30967 -0.11493,0 -0.77581,0.34434 -1.46861,0.76519 -0.6928,0.42086 -1.73431,1.00795 -2.31447,1.30465 -0.58016,0.29671 -1.37255,0.77746 -1.76087,1.06834 -0.38832,0.29089 -1.4028,0.88325 -2.2544,1.31636 -0.8516,0.43311 -2.15223,1.14355 -2.89028,1.57875 -0.73806,0.4352 -1.48127,0.87392 -1.65159,0.97493 -0.17032,0.10101 -1.41259,0.84158 -2.7606,1.64571 -1.348,0.80413 -2.53435,1.46205 -2.63632,1.46205 -0.10197,0 -0.56844,0.25548 -1.03661,0.56773 -0.46817,0.31226 -1.00051,0.66187 -1.18298,0.77692 -0.18247,0.11505 -0.98208,0.57082 -1.7769,1.01283 -0.79483,0.442 -2.58171,1.48592 -3.97085,2.31981 -1.38913,0.83389 -2.59686,1.51635 -2.68383,1.51656 -0.087,2.2e-4 -0.93016,0.46473 -1.87376,1.03225 -0.94359,0.56751 -1.76396,1.03184 -1.82305,1.03184 -0.0591,0 -0.58767,0.31528 -1.17465,0.70062 -0.58697,0.38534 -1.67647,1.07018 -2.42109,1.52187 -0.74463,0.45168 -1.58075,0.89251 -1.85804,0.97962 -0.27729,0.0871 -1.11252,0.55453 -1.85605,1.03873 -0.74354,0.48419 -1.90481,1.17711 -2.58061,1.53981 -0.6758,0.3627 -1.70898,0.97557 -2.29595,1.36193 -0.58698,0.38636 -1.17737,0.70247 -1.31198,0.70247 -0.13461,0 -0.62983,0.25987 -1.10048,0.57749 -0.47065,0.31761 -1.02016,0.64056 -1.22113,0.71766 -0.20096,0.0771 -0.89773,0.50136 -1.54836,0.9428 -0.65064,0.44145 -1.60103,1.00693 -2.11199,1.25665 -0.51096,0.24971 -1.11482,0.56739 -1.34192,0.70595 -0.22709,0.13857 -1.07947,0.69011 -1.89418,1.22565 -0.81471,0.53554 -1.56151,0.97371 -1.65955,0.97371 -0.0981,0 -0.49984,0.1668 -0.89287,0.37067 -0.39304,0.20388 -1.08622,0.60734 -1.54041,0.89658 -0.45418,0.28925 -1.21377,0.74953 -1.68797,1.02285 -0.4742,0.27332 -1.54257,0.9104 -2.37416,1.41573 -0.83159,0.50532 -2.06107,1.18537 -2.73219,1.5112 -0.67112,0.32584 -1.83239,0.99162 -2.58061,1.47951 -0.74821,0.48789 -2.19651,1.35292 -3.21843,1.92229 -1.02192,0.56938 -2.18312,1.20884 -2.58045,1.42102 -0.39733,0.21219 -0.76893,0.44204 -0.82579,0.51078 -0.0569,0.0687 -0.70725,0.45211 -1.4453,0.85194 -0.73805,0.39983 -2.36384,1.32245 -3.61285,2.05027 -1.24901,0.72782 -2.64254,1.55771 -3.09673,1.84419 -0.45419,0.28649 -1.42965,0.82813 -2.16771,1.20365 -0.73805,0.37552 -1.89933,1.01574 -2.58061,1.4227 -0.68128,0.40696 -1.60101,0.99997 -2.04384,1.3178 -0.44284,0.31784 -0.88597,0.57788 -0.98474,0.57788 -0.0988,0 -0.55834,0.2391 -1.02127,0.53134 -0.46293,0.29223 -1.64558,0.95516 -2.62811,1.47317 -0.98254,0.518 -2.32718,1.30082 -2.98811,1.73959 -0.66092,0.43877 -1.23388,0.79777 -1.27324,0.79777 -0.0394,0 -0.79923,0.42026 -1.6886,0.93391 -0.88937,0.51365 -1.75639,1.02648 -1.92671,1.13962 -0.17032,0.11314 -0.6116,0.34443 -0.98063,0.514 -0.36903,0.16956 -0.67096,0.39994 -0.67096,0.51197 0,0.11202 -0.12285,0.20367 -0.27301,0.20367 -0.15016,0 -0.82369,0.29531 -1.49675,0.65624 -0.67306,0.36093 -1.50245,0.86457 -1.84309,1.11919 -0.34064,0.25462 -1.11663,0.72575 -1.72443,1.04696 -0.6078,0.32121 -1.27143,0.68054 -1.47473,0.79852 -0.20331,0.11798 -0.49569,0.31634 -0.64973,0.44079 -0.15404,0.12445 -1.06975,0.64555 -2.03489,1.15801 -0.96515,0.51245 -2.1338,1.15021 -2.59701,1.41725 -0.46321,0.26704 -1.25021,0.75515 -1.7489,1.08469 -0.49868,0.32954 -1.77446,1.04903 -2.83507,1.59887 -1.0606,0.54983 -2.33417,1.2789 -2.83017,1.62015 -0.49599,0.34125 -0.95052,0.62045 -1.01008,0.62045 -0.0596,0 -1.16048,0.62709 -2.44651,1.39353 -1.28602,0.76644 -2.70698,1.57642 -3.15769,1.79996 -0.45071,0.22354 -1.08209,0.61837 -1.40305,0.87741 -0.32097,0.25903 -0.67119,0.47097 -0.77829,0.47097 -0.10709,0 -0.54124,0.21762 -0.96479,0.48359 -0.42354,0.26597 -1.32749,0.79013 -2.00877,1.16482 -0.68128,0.37468 -1.7032,0.98493 -2.27093,1.35611 -0.56774,0.37119 -1.72901,1.04052 -2.58061,1.48741 -0.8516,0.44689 -2.43093,1.32524 -3.50962,1.95189 -1.0787,0.62665 -2.89852,1.70924 -4.04406,2.40576 -1.14554,0.69652 -2.19957,1.2664 -2.34229,1.2664 -0.14272,0 -0.55061,0.20903 -0.90643,0.46451 -0.35581,0.25548 -0.8055,0.55741 -0.9993,0.67096 -0.1938,0.11355 -0.89249,0.52274 -1.55264,0.90931 -0.66016,0.38657 -1.61346,0.93398 -2.11846,1.21647 -0.50499,0.28249 -1.36842,0.77909 -1.91873,1.10357 -0.55031,0.32447 -1.04148,0.58995 -1.0915,0.58995 -0.05,0 -1.04462,0.4541 -2.21024,1.00911 -1.16561,0.55502 -2.76961,1.24845 -3.56444,1.54097 -0.79482,0.29253 -1.81674,0.62247 -2.27093,0.73322 -0.45419,0.11074 -1.24385,0.31348 -1.75481,0.45051 -0.51096,0.13704 -1.02192,0.31725 -1.13547,0.40046 -0.11355,0.0832 -0.71741,0.2966 -1.34192,0.47419 -0.6245,0.17759 -1.53093,0.36952 -2.01428,0.42651 -0.48335,0.057 -0.94904,0.14702 -1.03487,0.20006 -0.0858,0.053 -0.75873,0.1546 -1.49534,0.22566 -0.73661,0.0711 -2.08007,0.21856 -2.98546,0.32777 -0.9054,0.1092 -3.41375,0.18463 -5.57411,0.16762 -2.16037,-0.017 -4.20665,-0.0655 -4.54729,-0.10765 z"
       id="path10" /></g></svg>
