<?xml version="1.0" encoding="UTF-8" standalone="no"?>
<!-- Created with Inkscape (http://www.inkscape.org/) -->

<svg
   width="128"
   height="128"
   viewBox="0 0 33.866666 33.866666"
   version="1.1"
   id="svg1"
   inkscape:version="1.3 (0e150ed6c4, 2023-07-21)"
   sodipodi:docname="speechmark.svg"
   xmlns:inkscape="http://www.inkscape.org/namespaces/inkscape"
   xmlns:sodipodi="http://sodipodi.sourceforge.net/DTD/sodipodi-0.dtd"
   xmlns="http://www.w3.org/2000/svg"
   xmlns:svg="http://www.w3.org/2000/svg">
  <sodipodi:namedview
     id="namedview1"
     pagecolor="#ffffff"
     bordercolor="#000000"
     borderopacity="0.25"
     inkscape:showpageshadow="2"
     inkscape:pageopacity="0.0"
     inkscape:pagecheckerboard="0"
     inkscape:deskcolor="#d1d1d1"
     inkscape:document-units="mm"
     inkscape:zoom="2.8970539"
     inkscape:cx="28.477206"
     inkscape:cy="58.162536"
     inkscape:window-width="1920"
     inkscape:window-height="1009"
     inkscape:window-x="-8"
     inkscape:window-y="-8"
     inkscape:window-maximized="1"
     inkscape:current-layer="layer1" />
  <defs
     id="defs1" />
  <g
     inkscape:label="Layer 1"
     inkscape:groupmode="layer"
     id="layer1">
    <path
       style="fill:currentColor;stroke-width:1.49348"
       id="path11"
       d="M 9.8765632,3.6356221 C 9.8277414,3.690727 9.7789047,3.7458198 9.730083,3.800925 9.6270778,3.9269879 9.5277452,4.0561499 9.4210497,4.1791072 9.2674022,4.3561674 9.0997952,4.5209654 8.9492975,4.7007113 8.7259644,4.9674475 8.515523,5.2447247 8.3000994,5.5178936 7.348532,6.7245501 7.6257751,6.3716947 6.6607379,7.6579442 5.1314181,9.7744225 3.7693748,12.037982 2.9250543,14.521834 c -0.1787598,0.525882 -0.3114058,1.066328 -0.4671085,1.599491 -0.1139657,0.547852 -0.2677099,1.08891 -0.3418984,1.64355 -0.082701,0.618288 -0.1041596,1.243674 -0.1276789,1.867023 -0.066031,1.75019 -0.019215,3.527033 0.3438826,5.246587 0.096767,0.458272 0.2476152,0.903432 0.3714227,1.355149 0.3587417,0.815163 0.4925437,1.313199 1.0917835,1.973413 0.4982261,0.548919 1.0097815,0.830884 1.708571,1.062741 4.7405117,1.572899 3.1176989,1.548355 5.7889127,1.370089 0.364129,-0.08743 0.737357,-0.14321 1.092388,-0.262316 0.605022,-0.20301 1.413698,-0.594425 1.860653,-1.074875 0.518468,-0.557325 0.873072,-1.421435 1.083201,-2.132535 0.118388,-0.400634 0.175143,-0.816958 0.262708,-1.225435 0.21563,-1.606169 0.007,-3.139509 -0.567957,-4.649272 -0.314069,-0.824618 -0.46312,-1.0271 -0.887061,-1.782881 -0.833761,-1.352272 -1.99992,-2.423858 -3.185987,-3.457839 C 10.508319,15.652497 10.043883,15.260813 9.6821125,14.780145 9.5100639,14.551537 9.4896331,14.493717 9.3577158,14.250719 9.1177229,13.64667 9.285073,12.992636 9.4185899,12.383173 c 0.1445537,-0.525877 0.2492793,-1.061848 0.3559867,-1.596394 0,0 -4.0272828,-1.3858841 -4.0272828,-1.3858841 v 0 C 5.6680488,9.933663 5.557696,10.459634 5.4047233,10.976691 c -0.1414951,0.574268 -0.3384395,1.22126 -0.2684591,1.820096 0.012754,0.109338 0.048047,0.214866 0.072086,0.322294 0.1267514,0.253811 0.1798535,0.381233 0.3447949,0.620034 0.3760466,0.544447 0.892643,0.962969 1.3892899,1.391014 1.2488112,1.00264 2.4792901,2.041655 3.398384,3.370741 0.44304,0.702193 0.639183,0.958063 0.980819,1.729633 0.458157,1.034728 0.746978,2.144994 0.767918,3.281497 0.0073,0.396185 -0.04649,0.79114 -0.06975,1.186712 -0.202518,0.913099 -0.234661,1.393928 -0.707106,2.214759 -0.5496,0.954887 -1.3519068,1.485487 -2.3945824,1.788907 -0.3462463,0.10075 -0.7087013,0.133756 -1.0630555,0.200633 -2.1635029,0.0033 -1.0653765,-0.144106 1.4738648,1.118817 C 9.6287042,30.170922 8.6765423,29.852477 8.3754349,29.706091 7.2908211,29.178822 6.7554811,28.294113 6.227855,27.258668 6.0623715,26.810334 5.8631772,26.373041 5.731408,25.913668 5.089685,23.676506 5.0821086,21.208183 5.4499977,18.924629 c 0.087407,-0.542558 0.2262721,-1.075563 0.3394098,-1.613342 0.158016,-0.52131 0.2936669,-1.04993 0.4740461,-1.563928 0.858149,-2.445333 2.2239577,-4.682054 3.8017294,-6.7245289 0.305936,-0.3638813 0.600985,-0.7371983 0.917802,-1.0916482 0.864601,-0.9672991 1.833286,-1.8781436 2.953124,-2.5436299 z" />
    <path
       style="fill:currentColor;stroke-width:1.49348"
       id="path11-2"
       d="m 26.237134,3.635216 c -0.04882,0.055109 -0.09766,0.1102037 -0.14648,0.1653026 -0.103005,0.1260644 -0.202338,0.2552248 -0.309033,0.3781813 -0.153648,0.1770607 -0.321255,0.3418584 -0.471752,0.5216044 -0.223333,0.2667365 -0.433775,0.544014 -0.649198,0.8171829 -0.951568,1.2066565 -0.674325,0.8538016 -1.639362,2.1400493 -1.529321,2.1164798 -2.891363,4.3800385 -3.735684,6.8638915 -0.17876,0.525882 -0.311406,1.066328 -0.467109,1.59949 -0.113967,0.547853 -0.267709,1.088911 -0.341897,1.643551 -0.08269,0.618288 -0.104155,1.243674 -0.127677,1.867023 -0.06603,1.75019 -0.01922,3.527033 0.343882,5.246587 0.09676,0.458272 0.247615,0.903431 0.371421,1.355148 0.358743,0.815164 0.492545,1.3132 1.091785,1.973414 0.498225,0.548919 1.009781,0.830884 1.70857,1.062741 4.740512,1.572898 3.1177,1.548355 5.788914,1.370089 0.364129,-0.08743 0.737357,-0.14321 1.092387,-0.262316 0.605023,-0.20301 1.413699,-0.594425 1.860654,-1.074875 0.518468,-0.557325 0.873071,-1.421435 1.083201,-2.132535 0.118388,-0.400634 0.175143,-0.816959 0.262708,-1.225435 0.21563,-1.606169 0.007,-3.139509 -0.567957,-4.649273 -0.314069,-0.824617 -0.46312,-1.0271 -0.887061,-1.78288 -0.833761,-1.352272 -1.99992,-2.423858 -3.185988,-3.457839 -0.442566,-0.402228 -0.907002,-0.793911 -1.268773,-1.27458 -0.172048,-0.228608 -0.192479,-0.286428 -0.324396,-0.529425 -0.239993,-0.604049 -0.07264,-1.258083 0.06087,-1.867546 0.144553,-0.525877 0.249279,-1.061849 0.355986,-1.596394 0,0 -4.027283,-1.3858843 -4.027283,-1.3858843 v 0 c -0.07924,0.5327681 -0.189597,1.0587393 -0.34257,1.5757963 -0.141492,0.574267 -0.33844,1.22126 -0.26846,1.820096 0.0127,0.109338 0.04804,0.214865 0.07209,0.322294 0.126752,0.253811 0.179854,0.381233 0.344795,0.620034 0.376047,0.544447 0.892644,0.962968 1.389291,1.391014 1.248811,1.00264 2.47929,2.041655 3.398383,3.370741 0.44304,0.702192 0.639185,0.958062 0.980821,1.729633 0.458157,1.034727 0.746977,2.144993 0.767917,3.281497 0.0073,0.396185 -0.04649,0.791139 -0.06975,1.186712 -0.202519,0.913099 -0.234661,1.393928 -0.707106,2.214758 -0.549602,0.954888 -1.351908,1.485487 -2.394584,1.788908 -0.346246,0.10075 -0.708701,0.133756 -1.063055,0.200632 -2.163504,0.0033 -1.065377,-0.144105 1.473865,1.118818 0.299773,0.149094 -0.652388,-0.169351 -0.953496,-0.315737 -1.084614,-0.52727 -1.619954,-1.411979 -2.14758,-2.447423 -0.165483,-0.448334 -0.364679,-0.885627 -0.496447,-1.345 -0.641723,-2.237162 -0.649299,-4.705485 -0.281411,-6.989039 0.08741,-0.542558 0.226272,-1.075564 0.339411,-1.613342 0.158015,-0.52131 0.293666,-1.04993 0.474046,-1.563928 0.858149,-2.445333 2.223958,-4.682054 3.80173,-6.7245291 0.305935,-0.3638813 0.600984,-0.7371983 0.917801,-1.0916483 0.864601,-0.9672992 1.833287,-1.8781441 2.953124,-2.5436301 z" />
  </g>
</svg>
